<mxfile host="65bd71144e">
    <diagram id="4qA1gDRn-AmS5ek_rgdt" name="第 1 页">
        <mxGraphModel dx="872" dy="622" grid="1" gridSize="10" guides="1" tooltips="1" connect="1" arrows="1" fold="1" page="1" pageScale="1" pageWidth="827" pageHeight="1169" math="0" shadow="0">
            <root>
                <mxCell id="0"/>
                <mxCell id="1" parent="0"/>
                <mxCell id="8" value="" style="edgeStyle=none;html=1;entryX=0.474;entryY=-0.04;entryDx=0;entryDy=0;entryPerimeter=0;" parent="1" edge="1">
                    <mxGeometry relative="1" as="geometry">
                        <mxPoint x="438.26882352941175" y="70" as="sourcePoint"/>
                        <mxPoint x="438.03999999999996" y="138" as="targetPoint"/>
                    </mxGeometry>
                </mxCell>
                <mxCell id="10" value="整体布局划分" style="text;strokeColor=none;align=center;fillColor=none;html=1;verticalAlign=middle;whiteSpace=wrap;rounded=0;sketch=1;opacity=40;" parent="1" vertex="1">
                    <mxGeometry x="290" y="90" width="100" height="30" as="geometry"/>
                </mxCell>
                <mxCell id="11" value="" style="whiteSpace=wrap;html=1;sketch=1;" parent="1" vertex="1">
                    <mxGeometry x="80" y="140" width="720" height="50" as="geometry"/>
                </mxCell>
                <mxCell id="20" value="" style="edgeStyle=none;html=1;exitX=0.474;exitY=1.03;exitDx=0;exitDy=0;exitPerimeter=0;" parent="1" source="12" edge="1">
                    <mxGeometry relative="1" as="geometry">
                        <mxPoint x="438" y="250" as="targetPoint"/>
                    </mxGeometry>
                </mxCell>
                <mxCell id="12" value="" style="whiteSpace=wrap;html=1;fillColor=#1ba1e2;fontColor=#ffffff;strokeColor=none;shadow=0;sketch=1;curveFitting=1;jiggle=2;" parent="1" vertex="1">
                    <mxGeometry x="220" y="140" width="460" height="50" as="geometry"/>
                </mxCell>
                <mxCell id="17" value="" style="whiteSpace=wrap;html=1;fillColor=#1ba1e2;fontColor=#ffffff;strokeColor=#006EAF;" parent="1" vertex="1">
                    <mxGeometry x="220" y="250" width="460" height="50" as="geometry"/>
                </mxCell>
                <mxCell id="27" value="" style="edgeStyle=none;html=1;" parent="1" source="18" target="26" edge="1">
                    <mxGeometry relative="1" as="geometry"/>
                </mxCell>
                <mxCell id="18" value="left" style="whiteSpace=wrap;html=1;fillColor=#e51400;fontColor=#ffffff;strokeColor=#B20000;sketch=1;curveFitting=1;jiggle=2;opacity=40;" parent="1" vertex="1">
                    <mxGeometry x="220" y="250" width="150" height="50" as="geometry"/>
                </mxCell>
                <mxCell id="29" value="" style="edgeStyle=none;html=1;" parent="1" source="19" target="28" edge="1">
                    <mxGeometry relative="1" as="geometry"/>
                </mxCell>
                <mxCell id="19" value="right" style="whiteSpace=wrap;html=1;fillColor=#fa6800;sketch=1;curveFitting=1;jiggle=2;opacity=40;strokeColor=#C73500;fontColor=#000000;" parent="1" vertex="1">
                    <mxGeometry x="520" y="250" width="160" height="50" as="geometry"/>
                </mxCell>
                <mxCell id="22" value="整体可看作一个大的div中包裹着一个居中的div" style="text;strokeColor=none;align=center;fillColor=none;html=1;verticalAlign=middle;whiteSpace=wrap;rounded=0;sketch=1;" parent="1" vertex="1">
                    <mxGeometry x="465" y="90" width="270" height="30" as="geometry"/>
                </mxCell>
                <mxCell id="23" value="居中的div中又整体分为左右两部分" style="text;strokeColor=none;align=center;fillColor=none;html=1;verticalAlign=middle;whiteSpace=wrap;rounded=0;sketch=1;" parent="1" vertex="1">
                    <mxGeometry x="460" y="200" width="270" height="30" as="geometry"/>
                </mxCell>
                <mxCell id="25" value="" style="shape=image;imageAspect=0;aspect=fixed;verticalLabelPosition=bottom;verticalAlign=top;sketch=1;image=data:image/png,iVBORw0KGgoAAAANSUhEUgAACI4AAABYCAIAAAAWO7koAAAMP2lDQ1BJQ0MgUHJvZmlsZQAASImVVwdYU8kWnltSIbQAAlJCb4JIDSAlhBZAehFshCRAKCEmBBU7uqjg2sUCNnRVRLEDYkfsLIoN+2JBRVkXC3blTQrouq98b75v7vz3nzP/OXPuzL13ANA8wRWL81AtAPJFhZL4sCDG6NQ0BukpwIEhIAM9wODypGJWbGwUgGWg/Xt5dwMg8vaqk1zrn/3/tWjzBVIeAEgsxBl8KS8f4gMA4FU8saQQAKKct5xUKJZjWIGuBAYI8Xw5zlLiKjnOUOI9CpvEeDbELQCQ1blcSRYAGpchzyjiZUENjV6IXUR8oQgATQbE/vn5BXyI0yG2gzZiiOX6zIwfdLL+ppkxqMnlZg1i5VwUhRwslIrzuFP+z3T875KfJxvwYQOrerYkPF4+Z5i3m7kFkXKsDnGPKCM6BmIdiD8I+Qp7iFFqtiw8SWmPGvOkbJgzoA+xC58bHAmxMcShorzoKBWfkSkM5UAMVwg6WVjISYTYAOL5AmlIgspmo6QgXuULrc+UsFkq/hxXovAr93VflpvEUum/zhZwVPqYRnF2YgrEVIitioTJ0RBrQOwszU2IVNmMLM5mRw/YSGTx8vitII4XiMKClPpYUaYkNF5lX5YvHZgvtjFbyIlW4X2F2YnhyvxgLTyuIn44F+yyQMRKGtARSEdHDcyFLwgOUc4deyYQJSWodD6IC4PilWNxqjgvVmWPWwjywuS8BcTu0qIE1Vg8uRAuSKU+nikujE1UxokX53AjYpXx4EtAFGCDYMAAMlgzQAHIAcK2noYeeKfsCQVcIAFZQACcVMzAiBRFjwheE0Ax+BMiAZAOjgtS9ApAEeS/DrLKqxPIVPQWKUbkgicQ54NIkAfvZYpRokFvyeAxZIT/8M6FlQfjzYNV3v/v+QH2O8OCTJSKkQ14ZGgOWBJDiMHEcGIo0R43wv1xXzwKXgNhdcWZuPfAPL7bE54Q2gkPCdcJnYRbE4Qlkp+iHAU6oX6oKhcZP+YCt4GaHngQ7gfVoTKujxsBJ9wd+mHhAdCzB2TZqrjlWWH8pP23GfzwNFR2FBcKShlCCaTY/TxSw0HDY1BFnusf86OMNWMw3+zBnp/9s3/IPh+2kT9bYvOx/dhZ7CR2HjuCNQAGdhxrxFqxo3I8uLoeK1bXgLd4RTy5UEf4D38DT1aeSalLrUu3yxdlX6FgsvwdDdgF4ikSYVZ2IYMFvwgCBkfEcx7GcHVxdQNA/n1Rvr7exCm+G4h+63duzh8A+B3v7+8//J2LOA7AXi+4/Q995+yY8NOhBsC5QzyZpEjJ4fILAb4lNOFOMwSmwBLYwfm4Ak/gCwJBCIgAMSARpILxMPpsuM4lYBKYBmaDUlAOloCVYC3YADaD7WAX2AcawBFwEpwBF8FlcB3cgaunC7wAveAd+IwgCAmhIXTEEDFDrBFHxBVhIv5ICBKFxCOpSDqShYgQGTINmYOUI8uQtcgmpAbZixxCTiLnkXbkFvIA6UZeI59QDFVHdVET1AYdjjJRFhqJJqLj0Cx0IlqMzkUXoavRanQnWo+eRC+i19FO9AXahwFMDdPHzDEnjImxsRgsDcvEJNgMrAyrwKqxOqwJPuerWCfWg33EiTgdZ+BOcAWH40k4D5+Iz8AX4mvx7Xg93oJfxR/gvfg3Ao1gTHAk+BA4hNGELMIkQimhgrCVcJBwGu6lLsI7IpGoT7QlesG9mErMIU4lLiSuI+4mniC2Ex8R+0gkkiHJkeRHiiFxSYWkUtIa0k7ScdIVUhfpA1mNbEZ2JYeS08gicgm5gryDfIx8hfyU/JmiRbGm+FBiKHzKFMpiyhZKE+USpYvymapNtaX6UROpOdTZ1NXUOupp6l3qGzU1NQs1b7U4NaHaLLXVanvUzqk9UPuorqPuoM5WH6suU1+kvk39hPot9Tc0Gs2GFkhLoxXSFtFqaKdo92kfNOgazhocDb7GTI1KjXqNKxovNSma1poszfGaxZoVmvs1L2n2aFG0bLTYWlytGVqVWoe0OrT6tOnaI7RjtPO1F2rv0D6v/UyHpGOjE6LD15mrs1nnlM4jOka3pLPpPPoc+hb6aXqXLlHXVpejm6NbrrtLt023V09Hz10vWW+yXqXeUb1OfUzfRp+jn6e/WH+f/g39T0NMhrCGCIYsGFI35MqQ9wZDDQINBAZlBrsNrht8MmQYhhjmGi41bDC8Z4QbORjFGU0yWm902qhnqO5Q36G8oWVD9w29bYwaOxjHG0813mzcatxnYmoSZiI2WWNyyqTHVN800DTHdIXpMdNuM7qZv5nQbIXZcbPnDD0Gi5HHWM1oYfSaG5uHm8vMN5m3mX+2sLVIsiix2G1xz5JqybTMtFxh2WzZa2VmNcpqmlWt1W1rijXTOtt6lfVZ6/c2tjYpNvNsGmye2RrYcmyLbWtt79rR7ALsJtpV212zJ9oz7XPt19lfdkAdPByyHSodLjmijp6OQsd1ju3DCMO8h4mGVQ/rcFJ3YjkVOdU6PXDWd45yLnFucH453Gp42vClw88O/+bi4ZLnssXlzgidEREjSkY0jXjt6uDKc610veZGcwt1m+nW6PbK3dFd4L7e/aYH3WOUxzyPZo+vnl6eEs86z24vK690ryqvDqYuM5a5kHnOm+Ad5D3T+4j3Rx9Pn0KffT5/+Tr55vru8H020nakYOSWkY/8LPy4fpv8Ov0Z/un+G/07A8wDuAHVAQ8DLQP5gVsDn7LsWTmsnayXQS5BkqCDQe/ZPuzp7BPBWHBYcFlwW4hOSFLI2pD7oRahWaG1ob1hHmFTw06EE8Ijw5eGd3BMODxODac3witiekRLpHpkQuTayIdRDlGSqKZR6KiIUctH3Y22jhZFN8SAGE7M8ph7sbaxE2MPxxHjYuMq457Ej4ifFn82gZ4wIWFHwrvEoMTFiXeS7JJkSc3Jmsljk2uS36cEpyxL6Rw9fPT00RdTjVKFqY1ppLTktK1pfWNCxqwc0zXWY2zp2BvjbMdNHnd+vNH4vPFHJ2hO4E7Yn05IT0nfkf6FG8Ot5vZlcDKqMnp5bN4q3gt+IH8Fv1vgJ1gmeJrpl7ks81mWX9byrO7sgOyK7B4hW7hW+ConPGdDzvvcmNxtuf15KXm788n56fmHRDqiXFFLgWnB5IJ2saO4VNw50Wfiyom9kkjJVikiHSdtLNSFP/KtMjvZL7IHRf5FlUUfJiVP2j9Ze7JocusUhykLpjwtDi3+bSo+lTe1eZr5tNnTHkxnTd80A5mRMaN5puXMuTO7ZoXN2j6bOjt39u8lLiXLSt7OSZnTNNdk7qy5j34J+6W2VKNUUtoxz3fehvn4fOH8tgVuC9Ys+FbGL7tQ7lJeUf5lIW/hhV9H/Lr61/5FmYvaFnsuXr+EuES05MbSgKXbl2kvK172aPmo5fUrGCvKVrxdOWHl+Qr3ig2rqKtkqzpXR61uXGO1ZsmaL2uz116vDKrcXWVctaDq/Tr+uivrA9fXbTDZUL7h00bhxpubwjbVV9tUV2wmbi7a/GRL8pazvzF/q9lqtLV869dtom2d2+O3t9R41dTsMN6xuBatldV27xy78/Ku4F2NdU51m3br7y7fA/bI9jzfm773xr7Ifc37mfvrDlgfqDpIP1hWj9RPqe9tyG7obExtbD8Ucai5ybfp4GHnw9uOmB+pPKp3dPEx6rG5x/qPFx/vOyE+0XMy6+Sj5gnNd06NPnWtJa6l7XTk6XNnQs+cOss6e/yc37kj533OH7rAvNBw0fNifatH68HfPX4/2ObZVn/J61LjZe/LTe0j249dCbhy8mrw1TPXONcuXo++3n4j6cbNjrEdnTf5N5/dyrv16nbR7c93Zt0l3C27p3Wv4r7x/eo/7P/Y3enZefRB8IPWhwkP7zziPXrxWPr4S9fcJ7QnFU/NntY8c312pDu0+/LzMc+7XohffO4p/VP7z6qXdi8P/BX4V2vv6N6uV5JX/a8XvjF8s+2t+9vmvti+++/y331+X/bB8MP2j8yPZz+lfHr6edIX0pfVX+2/Nn2L/Ha3P7+/X8yVcBW/AhisaGYmAK+3AUBLBYAOz2fUMcrzn6IgyjOrAoH/hJVnREXxBKAO/r/H9cC/mw4A9myBxy+orzkWgFgaAIneAHVzG6wDZzXFuVJeiPAcsDH6a0Z+Bvg3RXnm/CHun1sgV3UHP7f/AvGJfGJTw0oeAAAAbGVYSWZNTQAqAAAACAAEARoABQAAAAEAAAA+ARsABQAAAAEAAABGASgAAwAAAAEAAgAAh2kABAAAAAEAAABOAAAAAAAAAJAAAAABAAAAkAAAAAEAAqACAAQAAAABAAAIjqADAAQAAAABAAAAWAAAAADNVI9zAAAACXBIWXMAABYlAAAWJQFJUiTwAABAAElEQVR4Aey995MlV3ollt4//1552x4eWJAz5Ay1Cg5FSqGlftgQV/+hIvgDg4zQhmIZ2qWWRmM4BDEDDFzb6uouX/VsenMzdb6br6qrGw07gwYHcy8K+TJvXnvuzVfV38nzfXJVVZJIAgGBgEDgu4JAlmWKoqiqKsvy58/p6337VRI1i+9N+sD/OPvUl6gsP51VzYvI53WfDEw+r0016lqfGjf/ln66xScNXM6vJ3wp56JmfedJrXlnz/n+p5KUTWM+b4mfI3Oez2/QFd2fo4hBA/CyqFhahmdsvFscH2R7J8k0yio1z1gRpjkrZKPUVxftf/d6y7XyvUf7H9/Z/5f3946GgWZrqqagOVZWeVlYurXY6BuyGkSzIA0DFqMFiVWKpOiKYZmO47Ucz3MalqYpZc7SOJxNzvxggvJZXsiSibWpJOZY3qC9srze3XjZncX+T3585/Dx0JDlV28u/sf/7fW33tzs9FqGZRVMkhRVM7WyrOIA42SKjHmVRc4ePjj58T988s6793517+EsiNvNtmM7qqJhG2SstKVqWau2u4OXtl5R7faDIL4/PLi//1EQz1yraeoG0MRPKUlZUYRJuLbV+dH/8trm+nI2NfYfTN99596j/aO49F3P3lrZXl1cWuh3VFkZjcPAD9MoCsNgFvhJlmIwlSxhYwNmOmeVlEu9ZvPm9jqGvTM6PZlMwiBiRakDERSrtxrWBDMDangeVE0DxpqKFWNpsb3Y+ZO3bywP+uNYGabSSVraDe3Glr24pJstRXdkVeeVabtjYdFMheXFAvFcyuKndJxf0Bnd5Fn8vL6m03ma37oocZ7/1Of8Lu2t84JyXlZRUUplaZVMBwa6Kqv4oA2DhK1IJfluxXjpHP/Xl/yEcihzXuKMSXeyMtgbdX95b6DK/e9fd1d7dWe8BC/La+Bw3jhvY97Q+b3zz7rWUzcvZdW9Pl3/oh+0zwc8b+rZavNp0EcNOR8RL5xI8qSsxof+5N0dWyq33lpvr7QqRb28CE+6mUNUL895Lxe3nxr6+aw+9YlHgjFWlqVhGJ+6KTIEAgIBgYBAQCAgEBAICAQEAgIBgYBAQCAgEPh1EdB+3QZEfYGAQEAg8DuIAKycsG+SIRsHSrW1E+cwr58cH0dxBOu453m9Xs9xHM5y1DA9axa9aKFu49nb1DT4nAurat3Ib+B4qd/LrV2ezeX8S+fnNetxzUfH+RtZlXRXsVlVRGocq95MSWI5ZmAXZFNX45KN/Vg+qxZP7LVFfXllsSiqg4NZFGZxxfKCabKKtmtugBvi5bIqWVmwMsenKmuGZrm25zgN22uZtqlpjOUJaI1gOplOh3EcgeaRJBXMBJopS4axGaaq6UqSszDJ8iz3HP36euf33li9eX2wMPBAAKVhxiS0LctaBaomZyxL8pIxTZUdR1tZar35+hZ6j7Jgd/8MnACoIEPHGJUSs1JkQ1MxDjCDlVRmBXoArUDbglvWaTFrYHCiyKAQFQ0dyRLaL4oCVu9694B5MDXT0ExZVgtWJUnu+1Hoj+I4TNKMVaWsqkTAEFWDsdBa8AsVdxjQ5hb0ejdSg5c3Cw0BHdKIUDEtClWSTUV1LMP0DNXSWFAVaSljKgovx0tf4hqpPqXzzy+44Lc/7/BUO59TEOVoGhkeqFIajeOjnTO9YNtrzXbHrjS1Kqoyz0Ba0aDpP4KZz5ugR0Weh5WgPBQCq6PJJfaFrGqRJO9X0t600D4MVtPspu0tpYXZdjXbwPoSJSXLcV5OQhZHRZUUElgiWTE1qWlKtq2arqlgACCOiDKj7nVNxm7BEqFcXmBtgSe1RNPDBz7rEc7JIj6ic0SpAf41giMK8joVeCjsK6w4LouyAimInpSq0hQ8A9jemCAeDSmtpNOQffQoV/w4qQ43JlFruWU3bUnVsTPr1tA72BU8XGgBg8YOwuOAFmhElHiH83OeIQ4CAYGAQEAgIBAQCAgEBAICAYGAQEAgIBAQCHxLCAiq5lsCXnQrEBAI/DYjQGbO2qp6Potzk2cFnua//rf/+vjxYzA0V65c+cEPfrC+vl6XmhuT6YLMyXUVOtZndaHnHmHeJ4vvPD05Ozf41jcu55+X/bqfMOVWsPY+aXJu2aX8uleMiO7W46IzCD9I+SHrlmL1Ki9W2mdq4qsR0RcgQxRdLTW7CIr4o9sTf2LfvGZ2u63rm4vQgtw5Ai2RybAwg4IA2QLTOO+PVVUBqiZP0LBttxpup9XqWI6j6loJigFUhj8ej46DYJJmKaQmimopiiErKoliGLViWdCZaHECAqbwTHmj4/3p/7j1xmtrg57DsgIinKJUUUhzVJWs2UTVxGkObQ1EPhXTTVO7cWvRtmVDzd//8PHHD0eTIAcVhHGS0EVRdM2gQrqaKVKcp3HGmRV0TLoPzIOImwpyFBJ+wPauaIaimRIYFpj0YW1HUiUF1v3ZzDcNB6oIXdc1XcMMxrNxEPiGYWuow3ukPUOgA2dkQF4Cqkop8grsUcEKvli0r2hh0B0KESvEcQSzI8ksL4Mwc3RtYdDs95regqs6ZnqappmkaJKO8tQyeANiJqg+6nIWYc7cUJsYLyehaODPJD4Zyqt7fObul73kldHUvBHwNA9Y9cnO+P3/8912Wfyv/8frTmuVlSDMWAouJStAzHEGiyrQhsWRuroYA0FRVGDiqqZSgN3TG06q6iNNvp/pdx63+o/PfhTde3XvaOGNDWe5U6kaU5VcVkDk/GI3PHgcl4dRCcJGVfpe9VK/2Fi1elsDs2mD+8jA4+QSSJqOI7uObtpWXsoTP0vTHPoy7A++GBxIPrrLYzufJkbKx4uhg/xBiRI0TwnWrtW0ddMAFUSkUZTnaWZlmW1oja5n2DpNUQJ5U46Z+k7aHz04Obp9761t7Y3/6fryS0uq68oGlcHkwQfGaTGLiiIp9AJ6NRUsp2nhSSO6j8pQUxyvJ2c8SxwEAgIBgYBAQCAgEBAICAQEAgIBgYBAQCAgEHixCAiq5sXiLXoTCAgEvpsIwCgqxVE0HA1/9cGvfvrTn967dw9UzenpKVQ18BfUasE+Cs0E2ZO5XRTFn1hr55DUNz8LH6pbp8sEynne1/z83C5hZH6arZkbnGFcJuIBiY5EIuGSBsVzUQtv/UOfoFe6VBmgTzBtsqaTpsGwpCTOHx/7eV4M+mrL1nptt99xH5yM8eK/DidoIEE4p4Hpcn9LELiUiqTphuV5rWaz4zWbYDLA3mRJ5E+Hs+lw6o+TFEoJdAK9ANx/gSDhkgfOkOhcQxAnRZGVfUuFmf3WZmNj0YFRPJ4l4ZQxSdfh7YuVKkZQktMz6FiCMIcdXKlYy9PbTUNda2WjpcSPd4/84QzuyGi5iYSRZPBA5HNMVeGfK80yMEboltgDDhBK8B86wDgOpQQ6A2FT5AX4KyRMEwqHsigwC0yByVKr2XAsvdGyLceM0xiUE+RBagVM54tFOMtoCuyNCmFHkZc5fLaBOpiLM9AXp1Pok5YI/5WsStEf11XA99zmZm99s2fYVlLKYQa+oZR1YDfnZy7kNbw2b6Q+8B1YLzzPuHRaX/MhXqrwlU+pxfMnA9RTUlV7M/aLg+L9d8b3f7q3brPRj7aP/ezgTB6P82h/ysJUNgEDEUv4j/bg+aBoT9LsyW1eLqnNKt2uxks9o/3SRtXF7qwSpu751u6BYcnhuAgWy5l3pFQg7BQl55qbXz6Kj/aT/DjlVI3cd8vRIH98mvbGmtkEVaRkUFEFUdeTXr5is74bxNLQrw52w3CaKDL50CPA6JmHXom2AZ8bfXDFGD6JweOXNG4MGHKpCoqcolho6S9fY52ulSja8ay8/SiZnMVmHDUtub+Sg2sxdCWVqmHBdh7nuxPtcGgkRyycZFF3vJkZ3iCH9Ae7ELShHxfTgI1nZRplepIsNJRb285gwdE9WzH0eo/UA/u1V4+mJpJAQCAgEBAICAQEAgIBgYBAQCAgEBAICAQEAl8bAUHVfG3oREWBgEDgdxGBuSkYH+dmTqBAhvuyPDk9+dnPfvqTn/zk/fffh6oGRvwoikDS4NZrr722uLiIkmS5pZpERBB83MZMZ7Wh9JlmqcSnE9ogo3Sdzj8/XQw56IyM10QsUJqPnZ/z6/PbFzn1CWdfcPpUeeqSN0OH83FSB9wiTYbx+j5EDGWZpOQ8Kg2LMmOGrjJNgooEBnUbLEuancVhNcoeHyp5C3ORLVjbURt+vogbArMD/0xgJsDUgNAg5sMyO67Xanf7ntuAfgXOwyCnAUkzPNsPwik8jsmaCXULVCYwgoNBAbcBzgU/ICkQVgY6hSgp5IKteNqmpzkIbhNEoFXiVA0juTIkx2MqQ1dQ1JRFVsGxVpLBaVSusFwpMkPK9apY7FhLPdcisQLmQfQTxwE+qaAWglMzKGNQMc2zDEZ37ksM9zmnA/UN0Q+lpoFxQmFdKfUsYlkE72elCrdWkgLmaTI7STPgxVS16vUW3WYfLIxzeHJ2cpqlMTgeEFEAni8lCB5yt4UfmmpFtA/LmQQVESgIapDrY/jCc1pHxv3QT0BaLXWb16/23vr++upKn8XaeJRPYgykbMi6oUp1lBuofIjsokR8B/6rtw9nciiT7mAE9PEk8Qzcouz5rUtFznOelL90xhukvVon3p0sxZV0WEgf7GV////M7vzT1D7K5PXKT5JPjsL/90F+/14a3h6xaaw4GrFMqHr5f75ZafQVvJnpTLWWi9EfJ79686atd1r4aUqSq1S6Wo1k62fJ8sd7qjurDGuKRkCWQC8TZ9Ukk5JcrpgqlfCnV87y6iTW7GPF+DhQtKxQLCmK1NPHr66ywX9YSqTeOxn7aKe8++PR9CCBKztV4yBhVJw0Aop8enP0OIo4xw9K0A9tESLtEC4pe3VDdf80Na57U9P85HH1f//39P6dUA6nLatYWZ8MBgboQwh9xmn58AzhaqC8Ue/qm8fT9Fd/n67ePljfarR6Jug3P5X2h8XZWJpO1czP5Wj26jIz/8hpvtqW4YKQHPnVy1mPao5//SGOAgGBgEBAICAQEAgIBAQCAgGBgEBAICAQEAi8YAQEVfOCARfdCQQEAt8VBM7NnGTeBVXD2Gg0Bknzi1/8AjzNcDjEPKF8+OUvfwm2ZmNjY2Fh4ZJ9uzbRfm0oamIHdlZuY/28ZvgoL4b6qZKfe/upxslkT3ZdGjk/udTok1MySFNMlKwMIwq4koTMbBkgAQJGIoJauQFKBE63siRjDqltNITkAOMAfQtqljQ1VsCLVATdClQrhqlbbstrthzHQ1AYuIKK4sCfjUHVhMEsy1NJs1RE8ABVwz2J8RGCxjA0xXAsD86e0IJeIYoN4oiw6STc2znOo0zVvUpxUslGQBBIfNQMMT0yGkWhUmQQ8CRFGZe5Av5mCudR6fAsGE/jogSPBFdhPFoIjRVqF/LZBroKwVPSAq7IEF2lApMDpDlDwyHjQIIAgbMsCHDAHxVJlSUUiIcHRsGEMYYUtAvYJjhj6w+a7VZzYWkBApwsSSbjKcW2oe1E5n+gAiHOXFVDHtsg0UG0mkKjUCa14Z/EUNQ/CrMSAhCQU5pU9VrW9ev9mzcWB4O2JBlHJ+nxaRalDKoPDUGGMA1MBnsUjUCWRDOo+RPifvgZsmn10TK/SQX4ZX3y9DlH4OIGnVyqcymfQ0PX6IRKoLNckmJW7c+yD/aSd96NPnwnHN7Pb0lqw67yKD498D++Y9//uJjchWOvTLVLBQuC8WKMILTwQQ8FUCKdCng+GqumT7Pw9eQgNW0WJPi7xwZBCGWSUuaSPGb2zFfkGQAuQJ4h8g/4RRCHxMdpqmYhEA14OShUlCBTyqnEAydloHTcKtiSA2dVMXU5ZOrtk+q9e9mdX8WTx7HpqaqJ+hyueop8cjTNeonqKT+5xG2lUkAOMkRV0nN59rZeJFoiyWfT6t5u8smdtIwzx8j2pnmvo7Ya4N1kP6kmiYKgUBXTEtWOUvXk0ezRMHk8lZrtBAxWmFZHQzadoYzF4kyLZt2CxTO5yj1CCdDQqJDqIdbn4igQEAgIBAQCAgGBgEBAICAQEAgIBAQCAgGBwLeDgKBqvh3cRa8CAYHAvxEELtEnsF5+FZMlf3MfsyApAxQcFG5ktrOz8/DhQ4hp6tkFQQBPaCsrKz/84Q+fmm9tsD03lNItbjjFcW47far0r3lB1mu0ez67Z3u4uH3RzRMYUJYPlebIzf+XrPR8rJcAq835ZCWnUCJVGGVn41k2K7teRzfVQKqyCoHNMQ6SoSA0e8eVW1aV+LlUpIijIrOM/H8ValGxGGqGPNE1C27PXMu1Gp5lWyAi8iye+ePZbDSFQ6g4gFxFI57GJL9noIjA9sCOTowGgnq4juH02m2Et/E8RJOpzs5m9+5GOzvTo+Ph9mpnY3u9vbikNlwUz1Lob+BKC6sGKY8J0z7FXYcTK1ZMRuODw4OTo8n9k2RnmE2CQtPRHagauGWD2qICeQKKCJRLBgdoUOLQAEhnRLsDCfOFHzUgwgPVqJALcRoBYWMgGYKGh1QfxGBpum6CuQnD0emJZJtuuaIuLrUgSIpDUDjKdDqBYMe2HahpKJqJisD29F9RIeY8qBoEni/IsxqYIAphQvOgnSSrWV7OphFkS+v9xss3l77/R1eWlgeJrz06jm4/DIKYtVtGw4NXNnLZBnETSChogjhPU9vxKX4KGro48Mvzw/zhudi1vNj5zS/xeWn3XJSGngY8TVa8txv+t789fe/d+OSxZkva8lJzsZ8pUZQcjKN9KRpCPaQgIgsUVUBXrgoaPyKwQFhFnsWwQBohj7A2YNNIgVQ5Wu4iEhB2FpzOgZ1SKk0uNClTESAIsXpA2SFsEMM+R3m1ImQzMF3QuUBjRLBAOIXVYyoy4CZPjqfrg+g/fs/7w7fbGy+t3K3a47vV5KxMsdFzPGpg74BmPUHuDG/++NTzvMg5R4AIJaUsNU6gkLSMlpe0VNgbTFYL1SR1GuJAzcDNnErHZ9hu5PuOoaipGpKKhgrsOlXzc23nUNbPsCWxf8s0wQEkoW6bxUCJ19pys2cbbbCeJKmpN2lNks1X+WIhxIlAQCAgEBAICAQEAgIBgYBAQCAgEBAICAQEAi8WAUHVvFi8RW8CAYHAbzcCn2GMhs0ar+BrqmVZiEmDYCT1LKGqsXmCMzRe5Lw6fcKef24prU/OzbZfAaGLJr6gDi/32YU/defyUHCTW3Ev5dXln62Fa0ySKBNoRMo4QSCPuEwqHRZoiWzQkKpw87+sa4plKI6hWBqLEWYlh9cnUAKgIGAZR8wXRKdR4b8MxmrbbViuZ6CoAqVOCLdn48mZ74+i0C+gf4E3NBU/4FVQjwgmhSzclm03LaNhqbauWjBVW5nS7Jp54TLbPj2ZhPdHUz9X3a7RLhsdDSxPkSQSSwwpgrW8SPUyQ1Qhm4LmMNkPs/sPTh/snNwf5qNMLTEUbjIH+0KkCLEsIF9UiDNSqczKrIBOo87kkgqQGBgVuWADn0P4gEUAq1fkGTylgasBWwNRC2gSUAsGA8OVRUEwPT4+RnCeVtvGZuoNehD9IBhPEUYwvRMrCPoBvVJUH3h7I46Qt1NUJPchhAkIeIFjLINCJJcsVV3ourduLd56aWVxqSvL5uFBvLuXnE0yjKotV7omQ4KERSEvazXhxoeKAxIte71sT2i6+k5N4PBCzzlQPZ7mhc8vLz4vClzk0AlKBxm7N8ze24nef9d/+GEiK+ZSo1xdsdfWrXbTjhVjvauC3ZPahlQAVjUrKsSJSSn2z9xXm46F0gr4dCNtFUiYIrsmKUvWUvO6pzcsLIkCjgy7DMsCokYudaUwjcoyJBNVNPCJalFA9qSmqQRJEqIAgasBlWPKqWFqZtexJNVOpDfXje9/r/vKa319uWtOLcfOPE9Z7iMok6x1FMUGxYNdzdcEc50PjW8LDuiczKtRBWVHu0iF90A7rq4vyq22abi2o6qdpry2qkI6o0E3VcgpA6dZKEkOP4CORn7rDFfSTOLY0EJW2Xku5TE0ZFBoQZMmySZt09KCwzd5rVS3V7Vmz9FcG4KhGne+PJ+1Rk8tjbgQCAgEBAICAYGAQEAgIBAQCAgEBAICAYGAQOAbRUBQNd8ovKJxgYBA4N86Audaky8eJ9EQ5+ZVKk1G8bmdE3IGQ9cHg8Gbb74Fbc2//Mu/QFiDlrvd7ve+970/+IM/wK0L/ob3RBUv26qpbX59OZOXfM7hUhkM6ly/8ZyCl7P46FH6UuXLt7/q+cWA64qYz7xh9AB5C2zF8MyFaDHIBV8BbQNl0wUsyPADBmIAIgGQGHAwFiPSCorAQRhnNkjUoFuW07a9lu15hgmeBgqH0J8OZ9PRZDZK04STMoaiGyQGQSvcQRhckxm263mNVqurq0YeF1ESp/uwWzv91d7KYm98fQ3+pR7djqNRsRZKi0xrwjavK9k0rFKfaRlM+GnIstSWpQXQSZpmRky/PWYfn2ajkEz7LVu2DPAt5CENCAB9zAbRUFATQXUKlkKLQePnqhzaHVgceHej2ROvA54mlTLwVwki9iDlGVgWGb7HkCheD3Q6xLyMJ0eKWsIT2gJclXUbENKEkQ8nZ/CvRgF9SD0DXQ31QZ7jEN4EaiIMSINrNMRM4jtCruCNbRrGjm5sLy68/NLK23+0ubDYiafK4b7/wZ1wEhVeV3NdCJxI52Masm3IXJdDU+K7s15PmiS/rg/8SLefJKpAy/x07vn9ee6zN+vG54V4C+cVJGkasF/thL+6E50cliwqW/14aTHd2Da2bjiDG2tdt1MuSqfjQg8rBYyKop5E7OMjee+oGB1XcYCWK0/Lt91k0Nft1a6tye7Q3/T0W6/8fu9ax1zpAaMqziuQHhBqGVqlqpZSbJv+ek8arDa9JpavCJl0lGr7I2X3EZvC6Rkc00npqjzZ7CibL6mLA6slt1b7xsatrr7UlE2r6Ui3NiotqQowQzNNa2mKCaqGBlNzMQTAHFgCi/IJN44cfUjgzSIwQEWxmZa31pX1tabdg586aXst+/7b0uqCLE2lOMpGiKUUSeY086Sy2bIMWwOxhBBOi4u63jAC2QyCMjgM8lCCR0DaKNiWspooxOYsVK2rK2az54EplSA/Qv/1OtTHZ9eID0scBAICAYGAQEAgIBAQCAgEBAICAYGAQEAgIBB4UQgIquZFIS36AQLw9sNiicVVkcBHDBmJYJxVTFnDG76OREGzv8hWxPIqj6uMfhBYAhZaqoJ3yXVLNl0JR1Und0QiCQS+AQRgba+3KFER5NKK28xJK0H2cpje0zQtYDuGUR5mdJVeWscJXvXPc0goMhyRiRzkowzM62iOrO74oZwnhlMU+GqJhkBtnLM2n1Wbyn3NVBtzn1eZOuZ2Z5zMjc8VBXrBDx5QGhLmhuqchqF5wg0a2AyEsAcFUSFoDf0wUoMAGfL8BMdPiE5juU0LwWng4UpiaRKFwYTraSZxEoOZQRGFQpRweoPWBfV0zXAct+N6DWibsCRh4Ud+SAoDubl85jQXnOXVhSjLj0+mkKVUZkPWHWhJZDlnyaSs/NLTSzlP/HGc6OhA1boGurdd3Wsrjp9FPtQrJIKhkDDkl4pWDi6zQNVUCoKbgHPKoA9iTIOSgwdN4ciA1inhoEwzKrdhQCOEmSY5RoeR8wY47wNwSCdDXs1MEDJJEozHkqFDEFFubCy5Dbe/0GOMjc9GmA4AoSA3tCKIyILNiC0G4QdOCWl0is0J8guZDUtf7rdefWnl1q3VhUGvLPX9veDhbjycpUyVwIHZNr4xSU/jmKpjI9wP6TAQuoYWkjY4TuYHYinrq3qNL+7RCRIvV58+OaLKnOZ5kkdn1NTnJKzY8YSNxkUeJq4cL/XlhX6haMBMNRueOWhccVh/linTymCFbcsnMVM7paTLwZSFM1BosqNnN5rxjdXKe9kkD3pnbNDQVl9fkgeNx0x+eJA8fOyf3J5laanCNxwtV+UqeVuXO4600JUHblmZ6rFifXQsj9Pch1oqhpO7eMGKrjaUm6t5b9WRSkcyjJ1AHx2Xy43YU6SbfaknmbLVUmNbg+AFsZPqdD5dIFfDRBuWnof6dk0A4zeiElWaw4zNolzuWp2BK9kWXKnlGsMXjITHCV7ucI2a+MLAiKEk0zW0oqSp5xXrA83oaY8yHb8a8VjA6R5912ggSVGaBGDYmXFWxSkIRWwYfFfgkUPtemHnIxUfAgGBgEBAICAQEAgIBAQCAgGBgEBAICAQEAh8iwgIquZbBP93rmvwNFV0UEYHOFa5D7MiGBrFGsjOiuKty0a7ttV+Di7gacrxPhvvlZP9KhwhmoWkarLdUlrLav+K0lqSrIaMt4dFEgh8UwjAUgrPSYgAAWGHZEL4ALoRb8Rn2Wg0vH//3k9/+pNf/OIXCFFTu0Hzff/HP/4xSJrFxUUobFzXrakamNGTFPHnJRQDZ3FuyyXj7cX5l5sBt/pS0Xm9r97Cl+iHqJZnx3XRMVnj53FscEqUC8gYGJYZ4r/AokxUBGqXKtQgUJeQn7KS+ClNhUU5LyU4KMsShkJkNMb/iCZiubbbdLyGbpgVg++vwJ+d+bPRLJhChgKfVgp4FLgdQ8vQ7VB/MulpjJbjthrNDhAFNRJHk9H0wJ9NsjhLq679sbuRLS9e6RjX5WTo64W8uLTotVow0rM8YskJj5CyBNdicTAKoGBRZcutnO7SoN/5vZe3DVlO3r93PAzjJAOn4pg6xq8UGqaBS/g3y1PwSXmSgSMpDQprQuZ0rAV55KqKNI10W1tY7SysdCTJyWMTtnP4t4J0KM6jJE3ArWiGTfSeDN9rmFiZxuHh4YOCRZZt9LrdpZUB9D9Fmqf4YSm4P3CF+AYlyg+EGHlYww96xDJBZQPXc2HDNm5uLr98a+31f7fZbrWmJ9X+vv/Jjj8Jc8vTbAcklQIHYoalOhYC+yBHVR3sSGKNsGJk3yemBQ3Wi893Fg51mgthqBxPFzd4BqbwqQ0zr/jFH5iJzBRQcVVDnbUb4bUNt9cp949jCNdar2SNBbAyKlP1pKDAMouOZDfkzDLjVHl4Ly+w01TJsvIbvfL31+TmNc9e6OppG4+Z1Xb2CuUfTvMPPvIf/uPB4f0gjBTdwusCCGqjTJm+F8mToZKb0lpTWukbm7223tU+HqWnPrizRMor12NNs4QEJ0jZ/al5NGWz8dmaV/6Hl+StdfelTje/0pKXbDgxA0cCdDlwHMLzWZ/DdvnpqVEG1SbjiYGjQLfs2aaqN21fkvYq6YNR/pOfTx/8alolxGgyGjBcujnE9Y0NI0+82fjqqtRcAiuj/fOxChmQfydjfm44iAqFjSgVJNkppSTzZtOzLWVz3V0aWAo8viFaTb1n+OrVa/lkIc/HLD4FAgIBgYBAQCAgEBAICAQEAgIBgYBAQCAgEHgxCAiq5sXg/DvfSwVTLBzOjMrgYenvlNGhlM9qqqZKxwpLZRXeWbRzbc0zcJG9C9ZOxB8vp4fs5B4725lTNUUKXQ5RNf4ZvArBQ7/S25SdDol1+Ov2zzQkLgUCvw4C2LHT6fTx470wCEGxNFutxYUFhIMHMXN4eHD37t2f/exnH3/8Mcqsra0ZhjGZTHBrd3cX55ubm3iVfWtrC57QHMeJo3hvfx+u0rC3m83mGrwdNVtfc2xcXlE7WfqaLTxtVn+Wk6FGKQ/Tp9PnGuE5LXFhfgaLkCNMSgbJCamGQMCQ6R8/xCngYUbsc0mjOO4SbM9JwuAOjL4NYN9HSaI4YOamoDPkiKossyyZ+WP8pFkK67SugyTRSU7C+6MgIpql6a5uNjSoZFQZqpQ4noTBMEpmSR5miNjiKw93D+Bzrb241nabt66sQX+3tDqwPYvBS1o8zpOJqkKYQt7D8iQFN5RhnqXCWh230bx2dRlDDbLk7u7JZJbHaYoxYhAAA/IaSKiACwluKO4MvJRBJARPbqUFx1TEmkCIUxiW0u4565t9ED/ZTM6meR5VcNHWaneYmufDFKqrkulojZg8DSFJtDxPgmCC6RwcdDDHxYV2r98LpjHaPxufoh9SRpC+BiQXrQqtAOKdMOi9SDSBiDrL/fbLN1dvXFtx3YYfyjsPg0d78ekEQhKpgShBFlgq4kMaltZqaG5Ls5oK9I1c3MiXu2bd+JLP14/O5+kzDfrzG3yrnBf+Sp+oqatS05Y7jdLuxE6W6o1WKEvhGBxJPDyeRI51f2YdD6X4sOjLSbOIG22pZxlwFKdpwIOIMqxO12QrXgVPeNaSK1UumsXuOTnKP7wbvvfu9OiXs+gklTouYhIBxpzJo9xMwdwMDUSvec0I7EbZ2Fo41r3Gkmrul9LjuEhLv9SPoQg9ZtGs+GRiHh7n08cncS/3F9vmuu1aquIZiKDDMbiMQM3WIIc/Jxdw0Aa+nEPXSOfYytiRcKgXZWUQ5v4sK1OGeEQsQ3QdchVIm1CT3LJsVgX4PezHrJJncTkJGDzIpVM4easkFU2ChwJnI5ssN+E/j+g93k3NzPDTS18A553P88WHQEAgIBAQCAgEBAICAYGAQEAgIBAQCAgEBAIvDgFB1bw4rH9neqrtQJenC4slHJdNq/iATe+W4SOJHKAhiAUSgx8zOEGCDzS8nC45y9xSeLkuGZHoxfFozI5us+M7xcm9cnZ82QEaoj9XSVAFZ2U40uEMTTNlw4GJ+OlWxJVA4PkI1O+513b/T5e4uEu7tarAu/zlX/7l0dHxS7deevXVVxH1HVQNSJp33/3Xf/zHf/zwww8ODg6WlpZ+9KMfgY/5+c9/fu/evTiOd3Z2/uqv/urOnTt/8id/8uabb25sbI7Hk5/97J8/+uijs7Oz7e2t//QX/+nlVz6TqrlsPf300/WcMV/K+jLluel2XvDy+UUzdG9u3+V2ZE691OZdUAQw/tLtuhAdiTBAPBZO1UD/oiDiObE19aMMA7EsmXpl6XinH1QDi6M8TuArTYIQAVHVySVaHiqp6uQeyBrIU8D7hKkfZQEFuIGKDiZqyGnoCwT2aWS4mtXVDFdTdQwCYhqWQ4UzTNMQVAb8l8myDu7iYLjHtLzRNq9uLtzYWOu17Xa3o8hpODlNpod5HJkO/JgR6wHND5zZFdkB2Jo4WbXc9sJK12uZza713se7//jzO3sHMxAlBuLYQDlB/Ai+vzAU+HpjRC2xYhYgDI/acCsVkWmSSDfl3qK3dXXp2tUNx/AefhCMDoIiJgdqg4VFw9PCeJZlMeRDaAnqINzAkWijMofjt8ePdkH4uI7VbjY3tjYQRj6IJ3mU07cioU6Ack9qwA40FSz7KUQ/6wsLL99YeeWNdddt7txOH+1Fuyd+lDPXsyxbByPEmGzpsmsp/abe7+huX9E7cCSpwAEakWm0nNy9JC046ARMkLYDcvknnX9RQtkvTvXz9Uy5hi5tt1ixzNKtcjLRDos2BJmdYNRV4uOdo2hS/Pf93s6hHh8nm+rY2jq6sqVm26tKCUqGMx98s0kFkwr4C+N+3GTiaSaVdDyOd//l7NE742TMGImzdLgK4yGGZDBBM/hQK1w19vdHh+u55Wyu6p5qdjXEpUEDUVLeS7zTE9mYVamcT/IqmcTm/p4BkY/VV9sNcqb3ZCZ0OodrjgSNrT6dF7vAFEUpq76eN4GS8G7msWrRkq9sGEqkF7MCTMxZpkDZhUhElsZ6brnRZC+59rV1c32pMbat9a6U+cyblBNFmoAGLGSE87G0otfIlxvlluu8dtXtLzc1xwGdNR/Nk2FdGv58FOJDICAQEAgIBAQCAgGBgEBAICAQEAgIBAQCAoEXh4Cgal4c1t/1nrgNigx8tTHq0nTJ2pqRpCY+qZITyGievEiMl+pZKqVGGR/DAZps9S5VQ0uwGcLoG5V4oXq4Wxx8SJKa8X6VzJ4qBsENAtgkPlwnqaSqaeOFfApaI5JA4DeHAGLNQATz4MEDEDAPHz4cDodQz8x8H+be27dvv/feez//+T+Dd+l0Ordu3fre976Hnj/88EOErkEKwxCFcdR1HZW2trYmkykco3304YfHJyfwnPaDH/xwc2uLnKHhPfmnUv00XTahfiqnNk8/VevXvLjojlvs540h8/KjfXF+UZieV7L6goDFU4uQGFlFzyGkMbKCaBtEueIW14DoqmxqEE/g8S5j0BRZDsKDF4RCpcqzVFXCJPJJNwBIdISMgUMoQ4GzMzQCioKYA+huoEtxVQN+0hpewx10dVNHW+lolJwmszCMDdMmh1L4+ilZXiRZEmbTSEnL/lpn0AfBo2XRLA+HqT8q80xnCsgSaFZyxBvKcimDNd6Hn0ZZSgy7ZTtteAwDETz2Q4h9RuMcftvw7YTBJwhQwwr4UWs25RtXvXYvn0ylIJKznIgCeGtr9eytqwvr64uG7ITD4mj39GTfx/CdptvrLTSb7V5vgGmlUVQg/hajACMkKaoMlaHhYjYdwfFXr9dDKB7Pc3sL/e5xz5cCiHWiJISzsAzhkdAcVIkSMUVwp4bAM8v95vpSr93wyC3Yo+D+bjBjqWaqTUM2TXiPA+ultByt29TbXdXrqmZTUcFqkTM/SljKmu/gzFq91jyvvv3c45Ov9YvbT/bGRdYXn1SSrckrLSXoaPuehdgzZzOrTMoWfNKB2JuGJ6m588h5tC+FJ7lkpGM7SNoa4rg82Z60z6qsQPSgKs/B0MEBmJxVUixVYZwHEyw7uDYViiVVQbQXMGMQKEl5qWWFUTFtnJZBFKQLRZUxEGNuR7PxK0VhSV6OM8sPlHIiQdNUSMxMsitSsG3rjYZZ2M6YYcvkSpRhnCRygZ6MUzC1f0MiwGpMiZLBFqYngt8nhoYgpuKkkYIyCG71XB1yGAnBg2y5shqG1TYL6LXKyoIqhjdsaZJtVqYp67YhGzo2ATa6qUq2LkWmIhuQEaFncoyHGhpmasqKa5eGiZBK2DpwgCY/+23zxYsjSggEBAICAYGAQEAgIBAQCAgEBAICAYGAQEAg8M0h8IxZ8JvrSLT8nUaAbLT4mbs3enqqZJaSWFImwyodVrBFfjqVuURW0RncBT11E/a2PC2nx8X+r9jxXTbaLf0zsDJPlakvYAQGYRNP2WRfdrsyItYY7nOKiSyBwCUELr/Rf6GeuXSfTs/JCjkIwvv379+9c3c8Hp+cnKTpv4K2+f9+/E+oCInMeDwCeQOe5u233/7BD37w0ksvHR8fJ0mCwghUUzeCnL//+79///334fEMmYeHR/CQlqbJeLR8eHh4enoK32igai6Zty86x8NVZ3PrLi7mRmAM8NzkSwXoOfwaiT+ixLFQc/NPaobLZegERniunOF59KijZN3VpcHyuvwaFmNwH6zIS0jlQNUQtrw4eigoyrmMcBuWJhNVI4MeyZIiR9PkkIs8O5VVXmZl5MtDcCFts+85rX53VZWNYHYGZgTKEVWzLMPVrYZqd1TdUSt1oat+/+1Wt1mdnii370R7h1WQFDYinqiQHzBEA+o0m0vtRs+WPaWAORwWfBjniwRSv7GU+uiT/JQlULekSRhgTJoKdkgzWSCn4yjSDITP8eyr11Z1S19fPfjZO7sPHp7MgljNpamWtNzckrPVVePN39/Ii+7uw+CTe/47n8yCTFpbaVy9Pnj19Y2G5R3vJnsPTu88uA9yTtGqTt43Wkaj1VpfhdrBffzovj+bwW2cqsKwbiAkj2FUhZIWOUY0fvToUcGqre1124O7vO2RMQpHQTgbKaYGV3MU6AdO5aCrYWUKdQ4UMl294ejhaXE0SXfPpsMsbbct1zGAMcQ4iLDUcLXltr0wMN0FVetK4GlAXZA3NVopLBFfYa4Dma8xJ21w73LiTw0qULnzrVBvTcq8nHu5Vn1eP3HPzTd0peMZmu3uZr27oyKcKK4EjZXcdDWQfDQ2rtQiN3oWSCbbaGippvKhYwZcbJSzoFCmiMSTFHKUYvul+C3EFVBm33CXnLBKlTz31NSzZMtTs1IdzqQY7sYkbMUCPZBUSZLBDzYhOepAO0fuxKDEkUsNDAq4MQhDuw32wyXjhzedftfxFeN2VI2HkbY31KJUgXRJU3gxDBZooGUgSP8TUPQ40Qc/1ud0iTIgLROmuLq83ZAcT6s8C2GJxkw/y60ijMskt7XCwi83F4IzJVbYXlBEM3aasZtuWDbZ1LeCRBnH5ixlea4QGJKWlPI4IVejh6EaFGzFOOpWsWLqhgW/o3wIfCjnp/Mc8SEQEAgIBAQCAgGBgEBAICAQEAgIBAQCAgGBwAtGQFA1Lxjw72R3ZIfiPA0CTsDbDMxNlyxQ9EYv/PrEVTYq07FUPo+qQQV4Qqvr1gjBwsTgX2ZWzk7Y2QMGPc3ZQ/g3ez5Pgypk4wKvE8NPWhVPJEaWX5EEAr9BBMIwADdz/8EOOBtwMFEUHR0d1SIY6GZATqAvuD5bWFhYWVmBBgIFYGuHAgN3cQtbHKoaJNjciY+R5boWTvwg2Nt7vLe350E04V6iGOvHiCqTMbxO80+6dWE7P7+HPJxe1JrX+HofNbnC2yIbc93seevzB/ypluf3+FggUsjw5n5e4uV+WJT5LWoFxnTwDbBgU7QZHTFmZLgOgygFAhSSyVBJHoq9BKMDn2QzqONs19NNu+F1EPMlSwMoVSCUUTVDdxqW3dJNF86+OmZ5Y0175SbC/ai2yY5OhqVEYh2oaixL9xy76ViDTmOh5dl6BSpmNrMqJbMQlj46jWajIo11xzVsB61ilJbjlQWGZ7hew9Shngjgg6tUEoiDDE1ZW+6h+yRmuiY9Rsz3EP6lpBCXSbFgONeuLWCoK/2Ja2t+kI4iaWW7v4igOIYX+9Wj+6cPHxycjc/CZAoOSQmU0fAEKDTbTaUjh76PSDkJnMEVTNERX0RVNR3O5EB75UU2HJ4gx/Fs0IHtTleVtCzJ40laxFCPwPGZBAETqAWwZAibo0il7ai6qYZRMZ7mQZbnconNaJtoUDFVpWXpbcOA5siQKg1xexwoeYgCQW0gQGQCDnwp6zXmp5eun135i+uLMhcnF7e+wkleStNcPovVo5k5nCmVITk6MwyJdCCk0QKrBKd65FcPIVhUSwdfRZFbeMLGhUezOKvuBpZ2pPduJ/bppEIsGvB2ejkdgYbJTU9NbAPxjhaMeLFZNde8aanFu2oC5MBtEAr4pYVdXxma3G6pjSb2A66Q4KBPIe+arJSSWbcT37jVWX+lXbTcA79693aw/3CmHoC8yzRHJypyPiR84BQu8qhhGiinauoHiz+0QJtax52sVOJS6xpV0k6WFnVprQ0x3mQmTWdKMVNsJvUcZnlKaWoRUyaBFgWSH8iIdOQspkqhnE60yViOY5LYuKakYI3Jj52Cx2YcK4WvuFU27Qb5olxmxcW3Sj1OPlhxEAgIBAQCAgGBgEBAICAQEAgIBAQCAgGBgEDgW0NAUDXfGvTfrY5hdOJOZ0o4OuJszdNGoKoIywz2shlMtc+ZOIyMmo0XpMn8xhPxNIg5Mdxle++z0/tsegTFzPMVOZebg4UYTpcQIoPbzS/fEecCgc9HoLaTfnYZIloQcmZ392GWZfBjBlkMjOgXNExdkSGkfJqiAG7BmxloGwhl4BUNdesCZI4FLcnwmFAoEhhoQdugys7Ow/W1daRBv//EbMrtt1TxidX8XLyAVpCNw5NbdQ9f58hNxPNuYUp+qgkyJ9MtUgTwk6fuXr4gooBboWlqcGIGVU1hwS8XSRBg/uYzxwNaFDJCpWgwr+ulocI2DiKiyFgFWzhM72TIhlpAoSe5iMJY0iaO61WmYzSaTT9sFsBMghqgYTX7NpgYqVrx8jfWlRs39bUVjxm6cRJJug5FQZZnsKj3G42tpcHqQnvQb0IQMRpPjkbDUMobAeiKUErP/NEZfI0NBouNwaDR79CalnYcJHC9BrZGd0yIVI6Hx6ejYjSKmw3n9Vc2F/vN/+EHVzdXmx+85x4/iqSZOYvJv2PLBwfVag9Uw7IsU3VZcQr3aasrudrYf5Cc7o127j8cjoYIz2XacGql4Ivq6HAfztYM9arjeOvLVyAV2tvfDQIwUvCAhqDxCBxjSHoFN2hJMhsOEU5eTZeztbWl7qATR/DUVkLNBV9scBKHW5CNIBK9ziTQCoC9UKoEG1KBjyzDgRyE7xdTV1qmseo4LUXLx+lMK8x1KG2w1UgNwxPfADjwvcYv+MrPzy4v+Td1PkmrD07yD/fzs9MiCxlGL1sQDtEehPRHA/unSgo590ImfvgDQhuHJoGgQRAOQU/z49Pme4lm7UeKnJR+0lbiK90k0xGIyDMkG97zLLPYcpObC1LvVmu/sPZn6jgAySURWwNk8ZBWJYIqdV2p5UkGtichCB98FZZBSjNzfNTryN1XN9Q3l/cb7i934n/4L6f3P/QVlmPjQZAFv2qoQNjVDxAq0hkaACdGodRKPiNQSwQtL4nHpCy1QtIGRhY0T69uK31NHefe5IhNDpk0Zq7F1iyp11WTpnKcwlebHEAQFFS2xs4Qm0li+wdshH0SxW2t6PZ0y4ZMrQpz5TRW/VCBw7xIhzdA4qIuLx5f6vnj/QLX+fIQxLlAQCAgEBAICAQEAgIBgYBAQCAgEBAICAQEApKgasQm+I0gAPMOmaDhvoWomtoMBMsWmXfxgntRFb6UTREd/FkXZ2QORCxxkwLVGG1J0fFKOMQxZTgsR48LOD07/KhEcBrIZb6MUAaWOljy6I1rYW76jSyraOQJAnEUPX78eH9/H2qRPk+O49RsDegHkDGIRgOOAb7R4CcNpAu4HFjsu90uItyAvLFtG6IZuD7DCaQ2SNitqAWvaHEc7ew8WFtdffv3fu9Jf59xRk/aU7e48fepnK92wVt7usnPa+BT/dfW57rK+WOHhzhNcghr4EEKyhi0Ts6p6IPcU0lEQkCmQIobcFagaXJEsKl/F/GBgKuBGRs+ydIsCfwJ3F1pZkfXzUYDjqhs6EAq1WIUi6NqG8l6U7q2aG8uqJ6rhWBpdBATpmtaPc9b63evrS3e3FpZWeh4DRvBatI8jfOU1Dwl86Mknk2PjqBWYbFhM881+33dsBU7qXI5SfIwThEHJk6U0zN5CKpmkuQpHKz5iJ4zaDdg7Ndy6cD1J0dVlKqlhSWFssU2TFj1K2Uh17bD/WG5rxqPx8WjndHh4+Oz0SjNQsPSEc0eoXlglw8CxOORPafZ68mu06i6UhCGACNLM8StgfSIXMJpBsDDZRT5J8f7sPQ3mnbTa7Y6TWy8JA5BS8HwD7xICVOB3VEM+J2DaMlQEAisoCBA8MWloBHsuaatt03dZRBVZEPftw21VViyYhHwxP+dL+HFgs4z6g++PJ+3PX4z95K8OvXZeMrikHgFBDvDbwYQUUigoLj8Cl/19OtlPqD5IOkKEIDpgzblMHKqWJWOsY3SfJb2tbBcmLgdRfIQx8wgcZEqNzU2cKRBV4HHO92i6DLUBygPSKUo0lCFsD49S+rYimkBRNwljMAXaRJbyUebqtlZbrGV/j5T747j+7f9++/7UClppqIZpWqAiaUloV+JqEltg7QkNqjCOw1oiZ4MzIEEefiVRU0Tp4mVqlKr2IjCxbbSTHKwRmlUZlEl4SUEDbufGdi/KrwLIvKTjEA8eLEB7DAeIgwZ7GYWsVYet9SiYSgW4g+hkFxOC0xOhVwMVCnRsehvDhrNuE6fyji/IT4FAgIBgYBAQCAgEBAICAQEAgIBgYBAQCAgEHghCAiq5oXA/B3vhBt9yBYFExR8oNXCGliekE8O/aUiIj1NHkgsxlvJZJy6SDAY0WvSrmwvydYCOBviafD+8Ok9ik9ztgvORgJPQ2KdL5FgALWa+JFgixNJIPB1ESDzKllkuTWV037IgdOzw8MD7vRMvXbt2p//+Z9fvXoVHAwcnYGM2d3dfe+99w4ODu7evQtVBArXAWlwhG4G9Mza2hpqvfLKK6urq7gEiwNW4c6dO3/9139NftXu34fbtDAInhpyPQhu371gH2lYSHi2Ll7Wrw2+df5XPNaz/LxK1BF1QE8tneD00vNLEOHe+aD4HTzicOEVJxn0RZCmIAINahAHgFJceocGLUWGERzGdlimEe89R7ukhyBTNXVFNBY0IrAsw1g/Qzb0LZbrdjr9lgTHcfIszk8msawn/eV8vWW0GrZuyGAz8EWhSXLLdDe6CwO989qNzatby0urfbfhFCBAEmVxcUFSymbXQdT5k7PqYLb/we5RGJz1j4bXJwGit3e63eEsGZ6OR2enUYiANm5ZNaSqpSrO6mIThMfh42k0zTbWOo2Gdf3GyupSNjpOprM8zKt+j2abgx4IVS01Om5jMopHO7OHj5Pdw+PpbCLJuWmDp4EHMg0m+1LGiEEIhY/2duIk3tzc9rzG0vIGaJbDw900jhBbHhIifIvCE5peWazIguAU3Jaua0tLa4uDrmkOcgTvUaQoCsAgKpIJ51wa0AKjZUPbo0cFJx9IrMFAK+qaMmhaCO+TjeOJHz7KJs2GuVa16XuakKf/aQ2ftuPT9/tTa44S32jCXoA+BL9J8MuCVCwUmgb8HkZJw8BWIq6hzgTPfz44Gn/9QxsJPIZsgNBgKaKYKWWp4jPIx+De4CoTQXnoCcfGY4gFhJhF2LFACJwK2kWHlZznUpZDooRYLl1N6prgPHTF0kDigGiBZsZRpZeM4CWzaOpSrGj7aXWcsThDLYqLw0UzCinmEOtGg7c0NC2XsoafqsTGhmYsgbZuvt/5NwxNi89J4Uulq2XPlRZcuWUpo0JRjZLIKk3JKvkMv04nRVqk4wy/LcF2YjoSHLXZmlQYkmEocOPXTmKIuuLMhozGSDPEYXJkNdWNGNJVMFQqRYWi7misdbp0xU/P88WnQEAgIBAQCAgEBAICAYGAQEAgIBAQCAgEBAIvDgFB1bw4rL/rPcHAw+1YENbw14S5cRlmKZjIfFA14GmkEreehgHvt+uubHZksycrdhUFpX/KTu6yozvF0Z3KP61KWNbopeMvSNSOqTgdpbEouz1ZxRv3IgkEvj4C0CvEcYz68GMGuQTMujCmg5JBxBqwLxDVvPXWW2+88QZ4Gt/3J5PJ4uIiRDMgXQ4PD8EzjEajWlWzsbEBgy1a2NzcBLVz48aN5eVltICYNGBrwNn83d/9HRygpenp2dlpkiawpyMVDCHBc7RjIsCIdklv8mRC3EBNpvWvlFD+GUPsZ7RAnMz8FpnF+Sk/qS/IyPxMx2TeJ4qL2Bc4h4vjNEkyyXVgFqavAjzF3DhO5vdKMsAqwFwOlCmiTZlD+QExBKJqUKswWvPANaVGOgFEkokD3bdlVWu0W7Kuxykro9QPhrYZt2273wQlAfkI8w+nYaFLQd4xrJtrK1Uh37iyurTctdsOvkSmswDUEbQmtmO3m05WGtMwkXQvk8xhkI6jx4WiLaxuBFF2cnR0dnIyGZ0lCdiBPngSSIA8R3Mh1yFvdXkYJafDKcbWbnntDjLNZjsL4tR25GyaTPJMDmLINIxKt+RUmgbJ6WQ8GQd53LQwfINC9EgayAQshQpvV6yYzkZAqNFstLv9httAy2EwRQcgWAqWI4wMxoFh0KYo4jDC7ho7dmth0DEt03HJD1ychnDcxpcA1BjUPRrUTLDHE5q0JLRWoMJgpfcs3SilMz84m/pTEEqyTgQcrRsBz3fHxQ7h1Z7dMNTUN52wGSxEqFFKXQbXRJw/Ef81mXE+Oj44XPBtR2O/eBgwH0TuAS8FikOWEIYHkYfiYmAoy4uW2lR8KKgCBCUCZQP+ivigAvF9SOlCUCERHmWpcOGLKUs9/BiK09J1T2eICYNoa0blGNXVJfXqst5w1YkC9RMCw8irPaW5rpqQ6phKAA1MpfDdDjUTeBHwQIWplS3XQMCgikFbQ3Iz6pBWidOUxIqColJB4mw29Csb7ZUtF0eUrwAAQABJREFUTW+aKqn16BmSyOcbeE05ZUoGfQwRS1QTDaADPGfgrfC6AjzhGdj9RREkEKlKBmLa4NKCIIe3Ax6U+7u7WFiMgYZ3cY1GRRIICAQEAgIBgYBAQCAgEBAICAQEAgIBgYBA4NtAQFA13wbq38E+yTpGicyC5Omfn8PgCmNjUmUkqalK+JPh9iayC/HiMLLB9Zm5IFtLst6s8oKd7rDjOwU5PdurEp/zNPOGeeufeSCeprGgdDeU3qbSWpJ06zOLihsCgacRqA202KzIrs9xhCwGAhqcINgMOJVaPQNeAWVg7wT7gkywOKBzcInzra0tsDJgbhCZZsgTqhiGgfx//+//PdygIaEYaBjURT7O4T8NR1RH6BrkozxDTBKY4xGkJYom0ykIHkS7cUHV0NjqB4EGWBton57El7niTx0dqIHPS2RBnj939MFBoW75xaWKfCDnI0M+p2pg8Ub4GRbBvViSVg4ImLlFGrVhD4fyBUMw5MqAkTzJ8yQtcMKpGrKRK8TL8t4BjA6VQyGnYGt8SFIUxQbxIytxEoXhMPJ3GezjzpWG50J6Ep5B2rIf5xrTrK5hvHVjXdKMRrepWkaQwXfZZPfRY/A+S4OuYbaLwgSd0W40VxZXxps3oFbZP3gA13b37907PT452N+bTqYYpq43vQbkL/IsnGI/4Auq32v1lxuIQXIC1c1kvNgctNwG4ug4Hjg1eM3Kpg/PAqhbktxWy3ZDhtSno/otbSYrGeLawyUZGBRMpLaNq7Cua1aBsCdl7EfTR/s7URovL0Ow084XNjTFHEGwkyWmQZuEqArE/dEQ5wcbBqFrkuk0AnUELQiXSMAAT3IP/KAwXF1RpJoc5DinI9AjmfDJ4xykKWmRnUSTcRYZDatBgiSNVDWcJiNSBJutXvzzbYLlqOmSS0v/jZ7Khip3zapjMUcrQvrdgi14PhravciiYz0Iuo2z+RUpbkCy6BrrW0Gro1sLnieXC6Nw2c5XrvdPbPt42Mgf65BV4Wmj/chdx3ECkTcBRgvMGCbMkTAlqS/JfVNt9HSza4RHBUtABKVeV1q/1lt7zXNaJlzZ3YQLz4G28apTLCvutjM21I/Oir29bHQ3TfxScXVEDtJSf9Us316zl/pWppqIqEPCFuJXai4TOw7+AMldWVnIK23jraut3oI2sfXKh99AhLfBU8IQV8k2dfjqy8ihn6bNSlnNgAcl4MA5Tgw/h2arUGaxnCmyHskUBopC8HCg4F8Nv5cvrXE9bUKRvmdEEggIBAQCAgGBgEBAIPDrIgATQM5YVuRwPpzmWYqXrxheRZu/F8P/YFHwLhuE4CZiUBqmqUF3Xqt+xV8jvy74or5AQCAgEBAI/LYjIKia3/YV/LcyfrLSIqQAsTCFVOLFY9jOyPIKMQ33fuYjSMW5JYjsgbwADIi2bPYltVnFiHd8yo4+YUe3y7OdMhrzEp97IFsanKcZsukqjYHS3dQWbyjtZfKBhnA1v4nEzV8Y9bfwJyO3vdX2N5oJmfUuDQM3YNzHEZkX6cvP+HLjz7T85Rv57pUEZQJ5C+LHjMdjBJ6BhgZsSqvVAkQX7AvoGUhqwKDgFsqDmIGMBhoalAGp0253VlfXoLO5e/cOWoBoBpnb29vgZk5PT8H9oGTN34CGgbAGjXQ6HYhs6ng2qOj7AW7BEH96epIkKcq3261ut4eyEOegF26XxoaEYZY2BBmpf2Pp+ft83gUnetDVeY/nhS+e5vMMFMS/xChWTUrRPjBKMrNzSzLftzhDXHZYw+EckZX53PMUtx1zPui8I/JtBRlBqYDdSdJQDfU4DPUS7qpABpeGnDtq5egIyKIUmRxH2dF+kBaq0+9bjaa70GSqFlXV2WR0PDwaTyZxGCOMDIiLNMvGI5/+Paip7UZ7ZXEb4IOgwbqDpYm86XQ0QpQd3fBUzUaUHEQKiZMgKvwsSuDebGnDM23tdJQF08QfZm2vs7y6gAhEoGEo/s0kAvMC927wkFVBQqOkkFg0NESdgR2eHmMKw0NfjPwrEFcSBFuQZNA/X8eTIeD1HA8hedqNDoBGqJ7Sx4MOOBH1B2PRLa1pGY7tuEB1NplhN8BpXgEBFuluyF0atYikqICyYGBl8O9k6g1KC8xXJZdqJCaJizSrCtfWHBeRd2gjoX0OPJ3yJT7nRuqxUvYLSugQ1MZmWzvq6nstdTxmRPEVtDf4yIinIQT5juJZdKvmVrDdyLOcpFpqfq0Zb66W3vVux9EXx6xrlY1tDy7olEgFAlCucO4C+45Pmc+ZZlgDgCaxWbFRJQm0P9yd6TZoNawdxDZQjWWWUXbWGm1437N1wLepSc2esf16q8pcZ8t9WEhHt8OTCcwUMYQ4MuhWpViqpq841fevuGvbXqbbJS0GOWrDrqDvcVL1SAUGD9aIgefTttZtdHwKv2pqxOAXNINDwBLDgsYP7C0Dv4Yp0Gjpf0r4JGzoSMxTKcHZWwaKJ4PvNTiDA4pI58tarzblXKR6pS8uxYlAQCAgEBAICAQEAgKBr4kAeBo/DkfB9Hg6PJ2NhsHEj8KEYjGSV3P8pQpuxrOcjtsatDrL3X6vAX/GLmgb/CVT/33zNTsW1QQCAgGBgEBAIPDbj4Cgan771/DfygxgbeL+WShcDagamJ5wqKmaKalqEMOGClDif4PhJXPu/czow+xUHN0tR/twfVZOD6ssQltkKPv8RDyNqXg9ZbCt9re1wTWlvSI7iLuAqAafX/NL3eVmZbJucRvovMV6VGRY+4YTOoKGA2ZaJAwAcU1ggL3oE5kgFVAGmVBpXB7hRZnPOkEtJJgq4WILZWoHX59V+HcnH5gAUlAjcGL27rvvgjNZWlra3t6u8yG52Nvbg9il0WjcvHkTfsxqfuXDDz/6139995NPPkbdleWVN95888/+7E9XV1axdlEUgqppt9vwjfbw4cO/+Zu/+cUvfgE+ADFpoLNBszVVAy0O0s7ODlo4OTmBG7R+fwCVzXA4Qvyb8WjU6/e+//3vb29voTxonvneo4eD/icT75fd7vyR/MwV5Vv6i56584cS5Z7zCNBjQZ1Q2A/uKgqm6np0ZPmmnukez9KVSgedAJ4G+TA5k6ajgp6g/sfZxTAwW4rgDroEr+SFs8nYhMnehLqmMWj2B05mg8pJ8qRkk7A49sO00nogKPANYBhRVjw6Orv/6N4nD95R5fK1m28sLfagZYqiYnY0Am8xWOgaqtXrrC4NpvutB4F/FM5GupS3SWjiaUanUryUaWmc5iyOwugsPmSSv3GlZ9kUqMafBp883NGV01clc4VZ9G9LUCMsx5uBrZ7twPGbWiJWjKuCSUYMG3w7lghOAh0HrP8QscwnCiu9ruiyzfCyYZ4E08nh3l7eLxYWFhewDRDYRNPGw8M0i1S8cmi5nkdO11qNNoig2XiURFGapBDZAFoQMfhawPcmeT6DqERRUkmK8yrNS4Q/0QkSSInQOS0FOcrSNATOMS38Y7leystfahcGfVq0OvHbKHmxNuc3ftOf2EEI0PLKohtspB8tO/tjzIAoD8nE7sP8+GiJmcEZ/fBdhUHUV8R+lJLhWvnr/eztLb39SsMbdKysB7aMObK1X7AsTn1whFwqVDsPo03KtyjtUuxI/h+2FkhHMFs4gtggX2mceES/LNfhYM2ztYYrI/SQJA0UqdU18zf72PmKq82OkxLMXkBfsqCOEDXHUZM3jOkfdLWXb3UXX1kv6WWCS4/y/MGhURBBJEEVJHu2MpLkKXz3KQWUdoiEg6eEoXP8ZiizotBYDm9skOAAADRVLyKqkjIHswA+oII4E4TlBpN3vr70DONnns7PnrPi50XEp0BAICAQEAgIBAQCAoEvRoD+gVmVWZ6FWTwOZyez4dEEP6cn09GZf07V0BtXRNVAT+OZTtdrDZqdlfFgqdNfbHdx2XBciGzona7zv1y+uGNRQiAgEBAICAQEAt8tBARV891az295NrADwmBEr0DPjUGwOjEEQQ4qBKqBeQjMzUUiQsWU4DsGlEN6Ctdn5ehxOT2oYn9uR8LfZ2RU+lTCH27wjASnQFDPuF3QM+rCVbW3pbbXZBtBx2ECrY1Wz1bEn49I0CvgJXrY3GFMxyXsqVA2wJ4OIzioC5jLcQs9IO4IyAzEIEEZGOWRg3wUxjns72i6/vMRVeACC66r0BrYFNjxUb5uH7foze1PDQY56Atmd7QDmgREC1pDdfKwVOF1aUroCDmITo+mMAaURyx6NI66KIOWodhABHtYZkEnQPaBdsDWPDvhz7hGy5gLWoZSBA32elBsuDUb9DtL2wCQWh8DPubx48ePHj0G5kADmGNZgfZdnrAiQAwLhEycIH6IiWghhoEdC89lABYv62NrQLcB0mU0GsK/GSzp2F1YNWwS7C5sCSwLqqORmmC7aA2N379/HwvtwqeWaXqei30AfQ/CnKAkRDbgeCDogQoHzXJzLoaAxvD/8x6Tz1j9y9mfrvZsDl0/m/e8nItWaVwUYgWKL/xDDD+1vZtngpXBDe7HCS7k4MtLrnL4OCQ6h5cjBgOPPLcZo1M6wVcGmFeIBMDzFkUWRj4iykBbAgdyC61234rlpEj8uPS8XLPUdgsxWkrLCkvJn6XD6ez+7t6dnXt3738MSdL22npZLcoq0UhBhJhADNoTrJ4iW7bVduxOlkzLIpOqrOF1DLuVlU6SqUmWIYAQmJI0C8I4PhsrD3cfhvCHlsbjyfRsPFLl4ujM14xWw7MxLNlpmA3FXXEdS9XTTJuljm5iIU34JaO5UUwUENacGuDgEuUANgrRS0BIpVmejiZn2FhYfahrOu0uZp7AhRYCm+iWYzfbTQpmg3/cZnEU+LPIDyDyQHnNIMdoUC5iS4DVRaQayDUQggW6JpAF2CLgisDgYMr4fiR2DHQWRmVphoVdxmkjZF58WT3/G/Rilb/xE1NTFprGQse2urbqSdkUsWNKCVF1nu2Z9gll4n+ASvPiF9gkirSopduO0e3rzpqHW2lV+thGpwGL/czPyhw0PCaMTYbK9Q991InzNqR/wksHI6kawUXdrMgCcIoSiDW4ksMyQg+GmEyQeeEb3JFlx9IqS4sQBygrR3E1OUj947QooA3DnqtcXbreUl/aspbXGp3lJnrB6iQgjDJWgk/D7CCZQ1ki1WTD0rGCGBx+kWYQxyiIXoONQF8dNGF6HHJ486MQT4waRz4KozoFr7n0Q9PDA0Q3ef4cn/qiLkfF62wcqZhIAgGBgEBAICAQEAgIBL4WAuBp4O7szB8/PNvfOd3DESQNtDX0YlGGgIvkAA1/h+NPNvz1hb9Phsr0cHyGKIquaS+0utuLq9eW16+vbCy0u6ZuauS9VSSBgEBAICAQEAj8LiIgqJrfxVX/ZubMzULgEqh1stSCpSGzEhyggaehWMywvfL3t2uDEPzn4zXpJC/9B1UYs8lhFY4rlpLBif6A4wZFzkw8NVpYnvCWDd5TB0PT21QHV5XOquz2FLsp6zaZpLhV6qkq5xf4wxD2PvATH3zwAczxkE3gEjzN2tram2++iVAiyIGXKkgZwJQgAjwYEZSEbf3atWvIefToEQzor7/+OtgRmNcxDjQMngZ6C7QJtQRYHIgt0OaHH36I9kGxwDRfFzsfAjecKQr6unLlCvqFdyw0hbvgaY6Pj9EjGgFxglGhLsgDKDwwBvBGf/zHf1wTKigDluXevXv/9E//hIrQZ1y/fh2N1O1cdPQ5J+gLnrjQMsYJTF555RXMCMwEugYTgK4/p+539RagBp6//OUvASyQfPnlV17maXVlxfVcLP37PIGzwU7gXM4jsDvLy8t/+Id/uL6+DgzjJMFqDvp9MDe3b9/+z//5//rkk0+A6quvvvoX//tfLC0t/9mf/c/YZtgwWH2UByWDZcVagNRBwnJjw0B2g1XY3Nza3t7GGFzycyV//MnHf/u3/wV77w2e3nrrLazXpX1FDxx/6PjiPDl7Zq3qp+7Jbfpn0qV69Hg+Ywkn0/eT8v8/e2cCZdlV1f07v/m9mrt6ruruTECAhIRJ+D4IugQEZAmynFBAREWcEFFRBBQFHBBHFMUZEEERXSooi4gKKoMhXyBk7E6PVV3jm9+7w7v3++1zqm6/VFVXVzrpkIR7+/Wtc8/dZ9rn3DPs/9n7bIhuw6NadeEnUKICaVDviAEn5B+qABjw4sMQcbPAOKQl9rj40Pm6ZN3GW8MhKZ0aMQiYIUH58UlzxAoW0/D2/d7A4egWv5J3p2q1CdsMm606+Exh2p2YnNm/LzKcTidZWfVPn106PTd3au6uuYWTvX4PGfiJ08dRqTkym/fyJbfotlrh6fkFYAqMiXFkiemUnVzVdX3A02KlFFve6mKn2YrZ+RcEYb/fw2QWtrQ7/e5NN9+E7TRMl2GDLTEAYrxGs+N6jYFhj0+UsFQ3PumNTOUQzVtN36l3AHCAavJmwqE3sEL0XqQnVOwX4bgCCuj05BCbPLo1vaC9UudkGW9ifNfYxJgzOUX6uWbNMpxSoYRKDWazgHA7zUav04Kes0iEP8J59CkkX55n51CggYEDwWlEywi8SzRqtNk50pTjStAW9Aoo1jgWMa7zfkO1Dj1SITugGgpw0U7BsehdaT0colMEkh8kTaXbopqHDA9rHISTgnTpPl9Yymk9cilYjA0DKFm1XcovWcfamWF2OegIfa+WH7X6YkHMUS1OYpSvQ5qcXPIYo6IEhGVawH7HYuNoZ7AyF/QXfBOULE/bzRNPY6nZWrTd2YiqVhFJKqtB/IVG+LlT3VNfajTu6ltAdgUnCfzS6GDfo6f2PrZSGEETTFp1L07O9AfN1V54up70o6Tk0QJyUVgrOlPTtXI1bwA3UXOCwYiKjGa/KK6CzfCjXgFvpPxkXI6yEUqxsMceCNqD1L8qN3+kTFI6xR1uapCmyGvoPjFoDqyTCDeyK+NAxoGMAxkHMg5kHMg4sEMOMH8SO8D9zkJr+cTymTvm7zm6ePLUytl6u8l+RtlxwlxEVgByZ5eJuq9NUGSqb1gL9dUGVn17XdTMe35/18gE6jVM1JnZ7DAPGVnGgYwDGQcyDmQceMRwIINqHjFV+VUvCPIdhERMp5D8MAsL5YdxlkjhNEgNkSmJ/JCL6VzM6clsDcY6T9INkm4n6dSTsCfCJAROWuBGfCJfWr8QM3IsjYcJm4pV2WVPHLTHZ62JGU6pMd08xzis0533L6mCc6Cl8JWvfAX1BREdD2RjDz7I2FF6QGIOToOcHYEXgniUJBCdEwR1B3zANtBf0TooKFsghSclHSGye4AWRPDI7rUSBpAP+A2CeETqXKSis6U1WlCzIGmE/sQDAMMrKNGSIScER1iPySwIQAjuuOMOMAL0b/AhEq3rg5EuEAX8CahxI+IhFNkjOEmABwAdUSIISJ07aZFhtDGIgTyDCpAcJeIV2dZBUNcAVwASEHmfCsXbR/wFPsdhMzDz05/+NAyhog4ePHDk8JErr7xq//4DtVoVaAFmUsVctAo4DOuwV0ZT4cQawBlqc2J8nL1i1WqFpQj1fvTo3bfccgtxwnb0S5785KdM795z1ZVXXnHF5UAy1AK1BpM1YKbrncrSWjX79+3H1lY+j8ZVnkoAZkCrg9a1vLwEkkQGiBNiWqwC1UTout64LlBXQ9+SptzkobyVr9wEQ2BBdb5YJVVpWlyqeWtCkRsLHCNnowMISAxIleVb51PDxU3dHcAT3vhhhOIBAIZIj+Wt6OSpdKUXWYtSviAE0CzrokE48LtRt10wC2iClV2Pz6gXorOCmlq5MlXD+lR/0O2G3bPLzdMYk1td6vQ6KOEBFJ0+ewY9EvCKWnW8G8R+5KOSgqS/jMPvcQ5JsTRaGQmLlYLh5Hp+vNrsNBocyo7ZLDTeOlGEtUCTQ1Ebqz3MSnluKZer5gueHYXLdU5TcemdvHJuxC6anIhjuxFETmzk8oVKlc+zlm8X+6jyyAmrIABcmnMUErewGhzFAftB/M4Ctbu8chaWFEqulyvQ67hehd4UrAVS1Hw6jSY6NahxEQkxSWQwVqCZBAzZQ10GzRq6YkxlYSMrElgGnQ0AJt6yh3EN0EB7I2d7eaVpo3IjtaXqVGduze/cn7X6OOdxyVzkWP3kYBbBHkhZWoNqIeuogkqcnEpm5Y/CH8RTrfiFNIjkJ9CgXMAdcCKkQWr/RNnJXKsIIUhLLbUDGO85DEadyDjRSU6uxs3VKOpEYkTOcxIr14+C+mKvsWBVfDAglTXqLjFWOuFt93TuuLO9cqYftAa5CtBtUuwsHXAH04fGRo5M2GXOvpEL/ZsTUXJiOajf0gyW+ybHHXmcdxTuqxjX1Dve3rI7NWrm8+iUrW1wUAUnKWpQmEIPIlb1eJYXcIeC0gjEJRlKS6P4Jr6pj3Job5WT7JZxIONAxoGMAxkHMg5kHLg/HACn6Yb9+ebi/zt52x1n7zm5Mr/cXu32+5G208qMRSb6onm/NklJZyVM2ATmScBp0LtpdtpLjdWzqyvXHrnq4NSeElNtZbz3/uQtC5txIONAxoGMAxkHHnYcuLCA+2FXpCzDXx0OKPmWga6MEhzKMdCxb0R9DKAJYIPkLbXQhUgJ9ed+3+i2ZTexstED6sH+YS2qFdkTIqd0DsfMjifHs9CeUebOrLEDdm031s9Mr2S6OSRXOykyclKtuwAEgpQcc1LIuhC4I/g+ePAg+AcHigDhgIJACWxDgfRbcBcmkdxBYqBENI+8XkM1IntVyAehUElBbQIZOpJZ3BAQM5FwKVm25BEwBgUOBO4gIoA0KNaA/eCPD6a30MNA0A+agkYH8AwQAuABonxi+Pd//3cc0JM0keBPfoBzbr31VsAGPMkbQAt509gDBYFMJS43YgOJochoCxEKLCeFkXgECUB3h7DANtzJG3jATlj6CKCByf/4j//4X//1X0B0Y2Pjz3/+86+77npUXsbHxoqgaII0xNQjXAVKgVfUOJynuj//+c8Dulx99dWEmt49jT+WuZaWFufmzmBBDWIAMOiBeahTHmF+uVxSdrcwm5Yj3c985jOo8tDGoIFYt7HFpUU/4JARPiMT+I2WQAuh1r74xZtuVBcwG03oaU972oEDB7WQ/16y6/NUiayP1Hd0nvdr3kKSNlYt9d0qwBqIsvUrQWXkxA5gA3UuC8RY/ZLddCpCxNm4wAwckJpeEPZCETFrvQ45Y0PnUtQU6AAE1iFD8IJzrVjege6G/V5zuTAQQMX27CQ3EherA68YWTYnmgDJcMemVB/tlIjjTSLbdQvO2CDqLqwstzqNheW5ybFdExO7PbcAUEw+g3bX90OgzEJtanK3WyjancBcbvRWG+1OO8AmQxKHXUxmBV0aAoJxxwQHKbu5omHnMH3YDzG9HfmUF7NshVypTNdgAreUPTOPOTLbKYxPjO3qTy22z3bCpdAPjMgh33RZuqCmACfCco5YsWwXab0raE2nuxybfcOOR0amSpWRUmkEXvnK6Fm/3eo0m4MgcGzwIXAJ+APfZPHLQhdjER74i4NCCvbQ1gxlwUtsn3HalYtyjSAKpJ0g6Bf9G7ykZ75Xb8uDgjBSz/WapiLWnZfur+AO8t0JqicHnymtGDIojNIQDn9FnUaeUj9QC3InORdP/gpPh9oyHmQZAoXkqHKsfTh4qNikRBIDTRPkDk0oF0gEzZwTi8ncQtIFWpFjw2Lwrth2g4G9uujXF6yp/rrWTmL0jBiNrqM31U/c3EQRC30ay+OUmvZjk1PX5pyJXQec6d2gL5KHxGgnxj2JdfNyfNtn+/W7uvZIIikm5qOq7dGDC6OPKpeedLW1u+hYQDVSbLY3kE+QG3JHO4m8nIMqVo6GRyBrEHOgDQdEKQ01vjf96SgmCDanIF1Vd8IhniQ64Wh6CXcU3xRV6p05Mg5kHMg4kHEg40DGgYwD5+eAnm5xOA04zd2LJ26bP3r34smVTgPNGNGeYcajpmcSgcyx+M+UV+Zp4iGBZVKEzjlmZRt97MIG3QCAZ1DMFZja7Z/YVStV1AzvgZ+fsKBj9c3WN04hJTM8sgZnySxZvdDFUppVHsSXaMmMXIJtf2wTfN7znsfa/ELZ2eI9MbC6JKwWWWymYJKMBACpyBOe8IRLVIrNie7Eh1X2zMzMzu2F7CTOhw4NMiiqhl2bSF0eCrmikSCLQMr09Kc/fUN+qAg+CizBsGN4w6v7+khjQ85GKGo27Q+2j4QgpA4xsrXNlFg6gY0I09g4y1s+RloyS1okdZuJL7UPYjfYODs7e75vje6C4iPDwRzLpc5MFv8jiQMZVPNIqs37XRamSZggY2uuiL047QDcZViKt338zL1ki6/o1sj8C6gGIzNYP/MFeOGVzMpwIk8dGP0w6fWTni9nKfCoNz5rfRoiQILEXWJhQmcjkwWSscoKpxGjZ4es2h6zOCLKNPflohNH5o5YnM6d/pSeHfE6/Sb2xLiYo4BtIJEHegE4YXBibADPwB85O+lAzJiBj56c6ZR5i7yeiRpgiZJ4cna3x4iCm1CkxUU8yNwhIwgDITJ6UiGS4XiYjjDYMFnUQA45hIb5GcM5+SE2DeEQCTRkj6iIE+SJ+KEhCWgQ6BMJbykICWm0iTxTcOInIHFSaiKBD3BAZx5dHB4JhQ8jImGZOuxwnqqZ8LC+w2qmwoBk8JDR/QnXPuHaa6+FRaggsIYQRRDDAFkBe+OCOTQAeAV7v/CFL8BbKvHw4SPjY+PlSpmqR05PRcBYgsBD4tS4F+ocxJnP5dGSIcVjx46RIjjN//7v/1JN8F9T0nImJiYJolcwOLgqHIs+OQHGo4nRCaPqMcQnH5l8VFypQz1teZNy7Oi6F6HOx4XCnaNixRWjahYDPMnef3oRPmSkwoLd8EaQF2TOxCdrtDgJ/Sj0Q+AvKYKSH8uKTvUU/CUADyoISzvpQER6zxkd/XZkoa5H/CUHI3KuM794OmyewZxXODCadXDW1tzC3GrjbLuzHHBQlil4areDVQVOlgKAaWFSDC0c9UXDeHsQS5flcvyVWwT04MNtNdGS4rsJ/SSIo77vN+k8HAAWC2tjHoB0ODBRV+F8Ijo620IvyJLgNlo/jYUl03E7RXfA2mjMyU85pdr42N7x1YVOUG+0+lEYIe1XRslIWy1hpZiUWhaiQKSJSxfJqVlJN240G65XLlfHONrIB9b2+91WswcKqBTmUJUhQ6q7hIHERYHkyBMHatfFgS8qS6K1JKe3oiVieeAyJKV4K0V2LX4kK+mrXODWDzynDvVWbpt90lcPuGMNaVG9bhq5YtRwPiS78MB1TNSIqCBpb1wK3TM5UCqnjvBRfrxxE8EIhQvAHH0h5T86K8Ah2N8Du4IH2LwTk3KjFWO8NHDtdic6e9xfPgF+ipqUjIrSEm0ziIylbrRUjw6ip6MudELnYuN4MzpzV2f5eI9aFqjGDGte+Jj95qMP5UZ2VTiDaI2JKttFIjTN5Z55cjkxG6GMt27OKkUnuwsz+a79qH5vLF5oxourcY8ziYI48RhWrQ5n1/Rt33XQJxOdqcQKLa8bJY3lMO6Y/SUvanFCEbo+gtDQLIA9pWDygVFc7PDRbEF0orVhVzIv4I36q+7ZLeNAxoGMAxkHMg5kHMg4sDMOsBoCWVntNr4yd9etc3cdXzmNOxyEMuFBNqD+rc08eWBGInM3sYmOHVp9yRxEtqTIUgGF8Ea/dc/CGea4QRQW2PKSz7vsNTo3P91ZtnZA9Z73vIetkOyl+5M/+RP2Pr7uda9DJP0bv/EbO4FGfviHf5h1+gte8IIf+qEf2j6pj370o4jCoZdy7/g6evToL//yL0POYv97v/d7dxxujZDF5rd/+7fz8Iu/+ItPfOITtwz+L//yL+985zu3p9ky4CX1ZPfkm9/8ZpbSlPpFL3rRJU3rgYocaQACmQ2xIRpCxoIndfGv//qvV111FfbPeXz/+9//8Y9/HKnC+973Ph4/8IEPIF4AkDtw4MCGGG6++eZ3vetdb3zjGwFLNry6uMePfOQj2OrX2Uhj+Id/+Iff//3f5/Gv/uqv2Neb+uP44z/+Y8QdfA4f/OAHh/0vwk08P/uzP0vAv/mbvwEQpVVjuubJT37yNlHREt7ylrdAALs2k/3e7/3ev/3bv11//fVvfetbeYtQ5W1vexvN5p/+6Z82E2/wATLhs33Sk570nd/5nXrP9AaC+/SIJOfVr341QehPzgcUUeq/+Iu/gIa7xpbuUxIZ8dcsB9YHya9ZBmQFH+KAwCr9Jc6xNq2c4RRMt8LOcQXA7HBuIWgN0iw5KZADkeMgifrcZaaGgTLiYL99GBo9LJ51k35gIE5CIIeADHqkuALoyB3BklzckY05Bas8ZU3M2hMzHE4j5s5yZcMtmDZH3dy3CzkmcnYtFmcouvLKKwmP0BwxLlJ0kAw8gSsYP0As2GWj4Rx6cIYohlvIwDCgSVEZgiNJZ1bHeINYF9E8YYmHw0sYgBHos1cFC2YMGwyx9MsI8YmKs23o03EAq6QbRoj2uuuuY5AGAwDjIQhhGblxI5fnIhVSJ3KSICDpEpZpgYAK6uAc7UMSXPjoEjEpJNtEQlTAUeST405AFCga3MBBurOzs5CB9wDkQEYGKAjXfWPuw5Ya/jCFgntMZJkx7Nu/Dzc8XBNdivDcpjapHbjNPAOkjTUJjNJudHGuvvqxDPaXXXb5xMQ4FXTgwH6qGyUnoqUi9uzBuXtsfBxug9MQ/LbbvvI///M/qDExC6eWqR34z0UL+b9y/Z97bx5JiISpHm2DTU+QUVOEoipx74zrmkytg1SptgynyysRQn7uQaeQJrTxRZoBKPQP0TpWwsIAFQA5uF60RzAhBq7Bxy820fCXz507H3oQDfhhiFAWZwLVkLI6pkZeAtXghSBaJaL35EnHgvJIaA4sLCgCSngj1SV/5b9u+p9j8/f4UV9MgiVFUMi+P8BwnB80I7ogYpOFIUefIKc2MYl26vRRjwfUUrBa5hYdmz1xeY51qTfk9BI5ZKozyNlu7Pq9/mrgtwYD3+Eom/K4Y5d830Y1hkl5yBFca5YFY8u3lutmp7t0z8k4CJca7TtdszddHb/64BU3PP7rqqMjh6anV3rx8X7YCDDvEDhx7Dp58FUKs14nuj4FnYZ1rF9BEMgtUvWg1496fmuFHYr1fqfN+TQ2B1xxeA9gjFAqpRg4CJvhJFG6lpG3OZ4eXoODoQkGQANstg7VWIkQinBe1HJo7AJUpZfUgrrSSk9fSbvYwvfc+wfIpQcA3Z4km1SfNALtof6sv5PTWUzg0Zxnxq5FAQW7MjmOhoNbLKtStColAXBUvpjrFJIkD5RV9pxyZPVoEbAP03VGHmtncsgLjGDICoycae6bTPaXUKrq1PvLtzaW72iCidgF9GzAaqTxgpvMdwx+fbFCx5U0EuMrkXF7N1nh5KnVyC7lMNhpB82JyeiK6/cfefxoZaKsSfV93Davz5vxuHvP4VKzMegvBYNBhB0+33LOrManFgPOw1lsDW4+Gn3lLn9l0Q+7EbhaZ2DNtcwV2g1aqXHSb/M12AO7VPeNuaMY9Ou2OqBNHFUTmgUpHT9OeeKzAU2MTScxcxxwE/VCWpQAe+cuzSQByGiA57wzV8aBjAMZBzIOZBzIOJBx4PwcCAdRs9+aayzcvXT82PLJ5W69L3NvmaExF8vbuUqhlGe6yeZLwWNkIq+2cA1CzBYMWDRwl+kq0xJOuWVvVxQFjbBxzzJ6yN7eyalyoTharhW83PmzcJFvWAkQkkUxd9ZWrOVZBX/f933fb/3Wb7F220mkLMe2J/vrv/7r9773vdCwQnzlK1+5PfHwWxaenJXLztG/+7u/e+lLX8oqcvjtBd2U5YI0rDl/8zd/E0qAhPPBOTqSv//7v9fS/AvGuQ3Bt33bt333d3/3NgS8YseqBqhws7jenvih85Y6+tM//dPN+fnnf/5nRArgDRwPTG3+7u/+LjRs1uSuxVAIi5DdUwWIp37sx35sOAbECK9//evxec1rXgNao7UxEE/9+I//+DDZlm4S3QyugEcCxkAPEjas24H0Q1cu9kK+4Ru+IY0QcQebWXlU20NT74t0pFILCss+6de+9rXIVV7+8pfTKs4Xo/4wz/d2g/+9FzUbXm58fPvb305Lw6oKRz4j6KMWtkSDNgYzDFAusK4N/jBqg8/mxxe+8IVAdJQd4JYeZjNB5pNxYEsOZFDNlmz5WvUcBALVBKsikrPzhls1HbHzwz5kQ34cn6z3FeszabbkEucCyq5zRENiAC32E6yfaeksk68wYnNI0vcxeianIot8Vkng1sCZdaGcklSCFVm5qlmcsEb2okljjx2wMHqWR9p1kYIk+kcErHTHSOdxM0IghWcw48ITAAYgRwMY+OOGjHEFf2Zy3PHkDgH+3AmidVCAQAA5gE9AX5DyM5cCJgHqgB5IBtweT/AV5nzExrjLW2gwksZFzERFZrhDBiRAPCRNPpn86expnAbTZ+z6gQBP4tT0egwjV6A4YDnMAnXqADDAReSHFEECgAfILeVFUZSwJArSQE7wIVHGqrRczFCJhIS2rNpHpKfsBVMKRgAkKCPDfxoFdQLfqL5mo0FFzJ+d507F6RrhDv+pfeodbSc4yVqEYTqXu3pkpDY5OQVs88QnPml61zSsPnzkyIH9B6hEmLyysvylL93y3//93+wTQVUW/jMzg6u6GRAt1YFpOlCc01REoVitVYF/SkVB5srlysjoKA2JtoKWh9JEkQqR2QHf17lJgnatCV7P97GcI5c4uIQeTwS1Q1GpN/q2KcCatyAo4uQ9El6eAAv8viy8aHuOHGTPWg3JOdJjMAnBY/AR9QWyjPIIh8+gZCKqSwQVkEBExbKSk78KvZFHHb0Gc3nBITeI14Fa+NLccskPFu45fdf/u+2mbq+Dctr4+GylPFEsFkrlXBjlQtR2AI7UikXWjLYRolQQdrFkxTEonuvkMFvmFXP5EsoJSSO06bsGcdFz8hyM5QQEpQuzOZvGwbTZqONWKYCV48As9dejZnLyRXPWvOVFQdxu+ZwqdPTErUF/abIy5g6S66+6ZqK2Z2JkdNeoX13prPgsRPuYxrNMLeNf5yBFVxe6R+ABnCqFmk4hX4aD/V6X41XAaXqdFvyS+ibrNmJ3LVanAqQFCPilOlQQAqxF0lUPOJ0lgsmx5QHrGJhdQ/UPfAIRPZo2JIwhLaUNKBpLEoXUctpydA1vuKt6Fj9NtuHtA/RI3JITnYh2pY/qlcooWZAdAbHR6JuLbaNfj5ptMTmISTkzGURxsjTInfK9XiMq5bpgVjTCwIr9JtoxhkN1mRENk2aA+km7H3cQEtCv8+OThJVj5f5YZcm0lup+/Z5263QXTI0zkWASmKOBsbE4mRsUjrfcMyfbtcl6ruaumM6xtnlqMWo3otiPnRoDRuL2ewUzccdHw1p1oWeYiz0wNSBLfV4QcouqH5YqdnHUiVoMiyjuGL5hHm/ae5aNcbD1kR5nvdEfjVSN0pSVq9mYA+HzCCmijzpXUimYJXSAwqRiWFOY3jONQcULwtgLPRoKNR/GVhLzwvAGEW8KI9GBEbNUy1uFvKgjbbxS1m98kT1nHMg4kHEg40DGgYwDGQc2c6AX9k/V548uHz+xOrfUWQV3YQkAGetrrPruqoxfufvwdG0StEas8ApOwwpg0Am6yz2OlFxZ7Cw1+s0eFoXVxi2RHwyYzUTNQeNM6+xd88eLXj7nepcOqmFNR26f+cxnssp+wxvewLr+Va96FRgGG+82F3bnPqwc0Vlh4z9BEAs8+9nP3hyWDZ366NnNr/BBiAxUw1IRRZ/Dhw9vSYMnKMtmhYzzEQ/7s3654YYbwGk+/elPM39mHTr8dtjNihWCYZ+LcOs17zYBWQa96U1v0mRoYCD62ECMyII62uD5UH6kRGTvB37gB9CpoirZ34mgHxUrPLFwzh01F835l73sZTwOX2zT/Mmf/Mlf/dVfhQBwBSDnOc95DiIL2ucw2c7dKKD87d/+LexNY9NhkVAhMkJA9LnPfW4YqkFSoesCcyPbpAL2AMy5JQENLAXnkHVoGoqDzAp5C40K9AihE3jJlsEvkSf4GQo9RA4/ObkABwZLdohEooWzGarZMp9UOj3A8Cv9BVHjGMAf9ue7Q3cKCc+wZ+bOOKA5kEE1WUsY4gB6MP5K3D6eBHVRi7ELplM2czXTGzG9UcOrmU7JcIqC37C9fcsLfWaL3bxs/UBuGIDTqP3yIuAy/CDpddmOnrApXfb4El72yMu2afmj9vKyJVyOrbDN/IhV22ePHrTHZ63qtFkYMXMcS4Oqh0z+Lu6iiwQCQQTPhYQdTUmADUALZOioMCOXB8ngFcMSw5WGbXjLKItEngGG4CAiDC3cQWsYKYmBORZviYdxDuiFuSkTU+46EpCPo0eP0vkSG55cRKKxIiZt0JO09iFptCWYLDJ6gRnQa+PPyEGGIWNeMjs7i04lkzaydOeddzJ84iAbSIqZnzGBY7MGGSOfDO0MjcSjp55Ma9DphmNkiURJiAycOHGCIgM2MLiSf7IBQ0hRI0mceXNxHH6IhILPF8yJnjxBSX1RfHgFZ+BVgJ0jkdYGJ04c/+QnP/nlL30ZLnW6HehhOM2DqqFGCEXVEIogTLyYieHmhBtqqlqtoeM8Po5aldi+K5fKU7umNHRHVEzZaTbUNRMUogIYg4aJFy2E+L/4xS8ygQNLIAnANg7CedrTnj4zcxDgFINc9Xqj2WqDGxY4UAVJ/RbfgpZh80J9VMKFe+2R14xRREKwfil26RDD3uuvlQgfGnknf+RblYe1xMRD8BQVFF0Xs+dHvo8cPAEYYFVGDrByyJ47EVLTcSgVD75+lmKReCu1EulPtCYT0Sg7aURLFKQkkbNwE/UTBTBwQIdV8MBoOEuo5BZy9Bbo0/iBCMFr1bGrLr9u377LK5UiSjOYX+j1u41GvdVq8MH2uh3IBhEKSShFkEt07AQU9XLdwqDjR20/KFSKlVG+IK+E4cBGa+D3S8nAToyiZVeiQc20q/lypVqr7JqqjY+XR2sljFrnc4DTlu/HrUZ/ab55513xcv0r8/0VVp4r3XqXQ+zRDcwXamBtI/5yaIWdJfIVYWrSiARRERNcglaJJUhl4Y0qLlfGSsUats/oT/udDoYO+xqnsRX8hTkzBa7opk7jZJVJe6BG4GPONfIe+B+9DVsFRY/RE3No8A1LX0JHQlillH5WoBoiFOhsrQLXKh2+b3Gt+aqueovX5/FSDWPLxipvdBGGg+Kr6h0/aRWq0almIEMFRWWBD9AkR61Y1qAfxHcuWB3b8Nv+qZaBXXRHihJ1g+TLq7nwlD1V6ZbPDqxm345Dt2icbRihr1plEtiJbzqD7sBqLw1OornUjGMOHYJfKIHl3abnLoTJiWbUWuyFq31scIKjWDTjQNjMBoSzztjtzWjf/8wb3d7U1ZNni6VTc/bCSY4UYgyTC11RD2tj/eTUYmgc93tLrYHdoyPGoofrDwCLrIJ9ohEHPZ+vGXSNRmDZaLzEd3Zyow3r4GqnNNW6EtuZh6zlrtfn9KKczVfQ7w/iYGANfCy52bViwU5Ge52JYrJ7/1RSyZ8ZFOeX/fm7Ymxn9tpez3dNlG7sbi2o7y75e/Z6l+0rHNg/kd9bsUFr0mu9wu9j3abhM0fGgYwDGQcyDmQcyDjwtcUB5p8cT9nqt0+tzh1fObPcXe2GmINVczdMztpO0StOVscvm56ZndhXcLFjJnKnc1BNd3WhvTTXGjnbXlxoLTU4GJINXGytQTs6ijEF3AjqJ1ZOj5Qr02PjtWJZjPnuYIm38zrQ4mO98ZFQLLtAaFBiwM3acOfxbKZELg/qwCKRV0A+aIqwjXIzGRYattTG2EDJgpRrg2f6CE92CNWg26EtnqVhkX7gRgKASB3pQeqPA8tp6d7Nr/u6r7u3yYdhQgM5AwoKeGEGiqXZvd4NPVxQOeMP//AP4RshsHtGikNB5azfX/u1X0PtA6toL3nJS4ZfPXTcmMf49V//dfIDn9Hb0Blj7Y8qDJIiZAvY7EphCQQv1OmHPvQhyGZnZzFyjgxhA4u+/uu/HvnST//0TxMWaT4yH3StUp0MuKEhh9SHqBBKYNNPJ73hjngHC11APoi5iI27NpEHGYo1H/vYx3RsaSiQG+1GQrKh+SHBQCVLv0XjigKmoYYdkKVQDW79isaGVIR2+IpXvIJywajLLruMYg4HvHRuBF+//du/TfwIzbTVMtx87FTQThLdOVJ47NixLSOk+IgHN7xCNJdBNRt4kj1qDmRQTdYShjiA3NAFESklUScJOWlmNQkapr9sumXDGzW9qphEcysWd6eAko0pejbY109N+Mu2daV/Q3+H7AeRGYANpo8i5FMc8yIqNQjCZB8z0zglFFIiRmAd8cFSjcWG8KKJMk152h6dscYO2qMHzOIoW8jPCw4NZX97J1MxRO2IyCHDzeyEfpkeUwS+akJGR8lUQEMp9OBIMLl4RCjP6Ij0nEkMowtuxhsC4s84xxisu3h0MhhygE94hVyY+RmvNARCusSDNB9/oBHIkNETIXNEPAlCPAAwwO9kTyvQ6LdMgnmLJ1Hhw64HgpAcGSAgGSA2Jn/ExisyRszALfiTc7IKtENh9eioFTsYHig7UA0RkiWiImk4QNFwM07g1jPX7Zn5yHgrMm6l1QTfdNug7sIobLWaNA+4dMeddzD/gP80FfgGoAKXYBHcBhKjvkC8fB+eU7FNakq0tHIcOz8OYEPUtGo8gFVEGK7QMqY7MJx0GewBY3iLzhOeREUG0Aimglim6MhJBUWcqalJqpLUu0BGnS7JsYohhnNVsOaUP5LMvS8RwYvke/gaCivemwmGiWXNJSJyFfcQCKTjlOj1xV9+URR3O2Gvi/1Dzj9PlL0ooBpgW8k1Kywbo4YORpnQ7MBOmhhLozAI7CUaiYII1cUfkFyVdfFSAA5yauAIZPE510JvJlcES3ZFdwQbX05upDZ9aPZRj3vcNYcPP4rDoVwPubZ8I43Gar1Rr6/Wm80GTEazLgp8v9/pdRu9fssP2t1e4Id+3mtzlmgpF9cEJil2OpxZFedz7N4yc4XRXL7q5UqFUqUyOjoxObp/7+jUBFpP2NC2WU/6ftjq9IsFvqJ8t7d34uS+ZhvLaStdEgJa4NSSYqFa9quFYjlfEh0ZlFsiziMVFRk6TVhLAdlNyB2zcaj4CFRTqHiOy0q11+mK3TMMtPGWZaro0wi7pAI0g3CgS6L4R2w5x857oDBoVIjJSdVapPsUc3RiCYsTyWJqxBW1J7GKpsDltA6Jda21rCWh3wzdHxxp/npDoMLVLxbkiR2XUQBaMuDgljgCrRn0IvPO1dzZgRnV46Yf9nuAr7SSuDew7mzkG6fc0dgvuKFV7+eTPsdyLQ3MoF7krKCS08sZDG/2PW23fcJc6MWdBjgNXATKSlptf37BWurn7zlptFeBRgynMsjnBhwWQ8vuRk4U2227erwXfP42vx3VD+WtlZFg/ky+eZZjwBjL+OBBXgCUnJW+ccsp67gf9ZxuKLhlCO7q+KIZhuG9ldBYXUbPCqPtgMYkjhEQ6/SgcryfYIhvvNe5vJIv7fZuW80v0GT6MQcrFasJnw+aNJFp9Dl/KA4mBq2Zgn3oyC5n3+iuxLvtnu7ZxX57jmZtMYyDjvqJ04utwmhy5a7w0bOlyb3V/FTVBtOTdrdW3UM1nDkzDmQcyDiQcSDjQMaBjAMX4ADTbObP9W7z5Mrc6fpZNr0wP5XtKkyAEIDKfpLyZHVsd22Sn+cw5RRxrUzwDHbdRNO1qZlgf73bOFE//aW5246vnFqO6yyCoJH1gmsEZn+uc3a0UT3S2z8ejhRdThLdqeSKCf93fdd3sazbpgys/njLuuz5z39+SkYQLi3G/aZv+iZ2x6evduIg3T/4gz/gGBhNTAycipHKqc8XA4v0873axp+15zZvN79iyXk+qbpGlYaDDOsEAAVx8VbvPUXgMEzJo4ZqwCE2IFJwg0WuDjscZLObGDjPA3/2Ow5jD5qShTBrZNxYk8N02AZIQ9N81e/ICvQxJOzITDNDuTiNRj9i+oxLu3VhtRuA6h3veAdQikZ60rA4sLgFwENrpK1CgwWzF7/4xZoAyQDgCrKC1Af/G2+88XxQDW9BRN797nd///d/Py2HRDGsp6NCWoUDz9QH9TKsgOi3f/7nf64dw/cUqmEnMTkZfoVbC6OGm32Kheh2BfL3C7/wC6BQfGt8LN/zPd+zIYYtH1EzSv3ZtZy6UwexDdMAAqEhl74FPsF8HDT4gESmWaI5cWBPSrZDBxIG3YEgi9NBKDUXbj5nGIiDR2317lnPelZq0C/1xPibVt1D7LPDRDOyrzUO7HTA+1rjy9dmedGhsWpXmIVdlr8a+0tx76zYQ/Prib9sWKcFg8EYmlMagNkIbIO2DQ5Ubcqo2hhYBRJRE3I8RxAXgXBEzVlEW6JMg1H/HlIqkUmKvJBJGk5eq+3RcvpxbLh5qzhpVffao4es2l6zNGEWaqZbVDjNAyBOYiChM2WEAPNAKEo3yhDCI3iGVmbkLQAGAxWyePRSwT8Yaxm98AG9YChicoDyCsoTzBjIOcMngnsUawB4mOdBTAyI9bkQ9GsRPOOBRmiA8enQ8YSSsClUo1saU5mjR48ipic2MsNch8kQsZE6mSQ2NGxmZ2fRzmaHy8zMDMgKQxRDjhbu0+lTEIYcHGzlYB7GI9AROtHEDORA3kiRfTeEojgQMMAQCco3V1xxBRMLCgIBUA0+jPo6V4/sO22AqqFSgKy4AFoURJDAOhgOlxg4QVPwhHtUMdWKGkiuVKL2qSPqghbF4XXLyyuHDs3uU62CBk1L1S0tDAPqjkqBsUhh8QddoPpQgSI5ALkbbriBRJkc0CSoGtw4SHQ359tM7941NZXP5VrNBmgNExrySrSYxqtjvK5eD4NQPq5zl3xL8pGwuOFSr9Y/sPVnebHxUp/gmqd2q+WVfMbaV2Ji3SVaF1rzAv81wrWtbUr1RX3PkAru2G4EnWbA8eyc/4GNJoKxlsOyFHek7raHUUGOYQnRbugH2BkM5MQq8iqIDYlIgjiULWtJSL1DtUK8wR0sY2CbMafF59CsyeWwRRVy7EpiVyu7Lj9y/TWPv/76Jz3+0KH96B0BooBPRNGgx4kz/OuCg/ZaTQyJdVdXOqsrjZXllYXF+bn54yv1M3xqmDtzRnP2eL5WcXK54uJSr9VByo0WXWl6z/QkZ0WNV0b4jZVrI6WRaqHAgtG2iPPs3MrqchMMKIySQqkwOT2+d++V7Y6/cPZW1D9oVZxlXyh5lZJbtAcFJPKVMRR5wuZiHHQRzaNNJBYhKHIcWbabB9Mpj1bKNcdy+51ut90CoMOOty1ACyUSY2XwZ4Bsf43p1BWVIgevgA2C/OQc1rKcxWP3I2E9SJICgbQ+Ewoj8g/Ig24aLM3BHt1aVSse65sksd4C1rw3Ew3RP6BOmho/mgMNBpyLk3UwQYfFuH6Iwlbc7/FhhQHQFVptg6SX2MdaVbtLGxAz54B2oodjWL3EOdm253uWMxdbgIQ9NEuMPbWW5YaAnuXQGiuF6BidHJSCpXzrdK7rm34PDAsNqBypYHA9apsn8+GJxWK7w6FGXsHtVPNBKR9D1VtNRDXHdRej/Gfmeyfi8DFVDJZ1lptj/QYjGbCYYGJE1nUrJwN76ajnHAdQBF+SXkcKyClDcJijiJKECOXTAFIBhBQEyuk7E0scKNMMC73e6C6q1fusnb+7GbaP90bs4NFHwrFxwze9haZ36oSZLPpuZ3lXlC97ufGpkXxiLSxbrX5ttWmB85lRSLvBWNp8WJkOjNGys2/KrUzV3NEKSjnyqcmlK1d9f/L04CPoWTQAAEAASURBVNW1Sj27ZRzIOJBxIONAxoGMAw8/DmBRuN3rLrca882lZTF9FsjkRja9mKAylUJ53+j0wfE9GASuFir4oE68oZBsThsvjqJwo5TvjSAc+BxiydwYa8CWEcbhareOws1yuz5d66CUs3OohnU0S90NyZ3vUYtch99qH9Zrw57bu0kOA1MI03VY1oBIjVktbh+Kt1Bq7YoLUm4geO5zn6vlzqk/OjoYNOMxLREiaY0D6YNPNCV2nNIgGxwgK1iI2uCpHyna+973PiTOP/dzP7clwWZPDmLhHBdACHRi1paNm4kMAwUOzgfiDSIIMryZEpEF6hdgDJQX22gYztq5fsNWCT54fghtOGs2TQ89Kl1MpAGpp3Zok2gbPHlEFqGVvUCwNiBhm4kv6MNe5N/5nd8BhkGKBYi4gR4BiPZByydFlTbQbHj8+Z//+Q0+PIKocUoTaaWvEIZod/pNXXPNNSA0iDiGra5Bw4G+ujEgitFBdHPFRtw21gLThIZphnsAYC1ajv5e0M1CoJcGuTgHRxBt0ENKUSI+wxTKAqjjm0KQmPqkOO53fMd3bEA9Ly4nFArxC2tmgrMBE5ne8DbMDXFq8VdKT+ej6TeQZY8PEQ5kUM1DpCIeGtkAieHHeQw5REGjYDCxXcB8vqA1nGIctjCMhjzJ8Ivo2QhIk8Mw2oio2mAnDW0YjrdRG4OTAZu2RQhphIHh94x+1wjQ0QFyR4qlpIAap4GGHd1iVgZlmoJZGLeq++yRAxb6NOUp0yvJjpoH7qJXotNHEM88AEwCgbsGUeg9024LGvo7OjhGFC76Lx6Z7hAKQTlTByTv9KqaQO8jQIjPdBAa7sQPGAPiwgUcgsoFSAmRAJAwMhEJyArieDKg4ydp3aUCDoEYQUMSOircDDBkjFGZXBEVnGCuAwADmkKcJEFYMsP0RcdDWOjJJ0lADzhEKjxCSdKzs7NgVOQHGpIjLKgAyAF4PkMpsBDxsNsC2AbHA8f1h3pMtARmSzCEnRfwVpcd9sIcfJjdgqnASdAaagR/KGEXFYFqNu0H/AZ478CBg5ddfhkaSWhswHwmOtS+qnphMtgeExEcXCjXUylUB55Pe9rTaDO6mqhrapmqgYZ2RRXjoC7IHrvTEJ2WSkUsoWHLa3R05ODBA6A+62LW83F4k7D9HCHxaREtXpoMPGFIPisYgCI4dxNCTaqiUS8ktPIDTlHiXWl+4QC1sXZLjofhTBXBFdB9kJPO4ZboGWBwy0UND7k6n1VfbJCJ8JrgBNbQjIpUegiVOfFT0mNRrmDlxkE1VpxzzHwx5+RzISapSIfOqArg+phHP/pxMzN7pnZVgC3QrhB1JrnKxAw6ge4MJtCajd4yNhpW2vXVxtmF+ZOnxk6fGZubw0DVMsL0nm/0A0TzRcvNV0ecieni2NjIvn1Tu6ZHRifLI6OFygiqdRTC7LQ7Z+ZPnzp55sSx08tLq6wtiwWOpDpYLGEOcT811agfF6gGQMEyi2UwvlzZSmSi6kmnakUBWhGDCGtWqMuwIqVxcfpOoVSsFvIlihQGfrfTwmIjukfkH6SG3lJqCdaoCzRLVaRivWxhlB9YjcPpWi6dKnAAgIdCBwgm2jtyEQq9kDAZMPYTJevmcxU/7FQ8l3RS1E6lrZO+9HdV/xQbbIMSDExMfjGWoFLjFfOFYinf9Lye2e8OQh8oyqXg6G1ROMeL1ZZNDPGJ+kobDCSQkHFoVnODkhGMVgPwuMi1YXwndOrdXCfI9doMWaFtUyHAaqYRBc16jxNfThqF+Sam7XIYlNtbCad3RcXx3ErXW2mbbZQzOdSK4aLpd3L9sJeYfSvogqai8SLqPqIkNbDRqolCq70CVoktD/kIBAgRjiOtELOJVJFtg19yEI7AbJy9w+Fu4QAlGJMTjYJBAsYLlrOwNJg7GbTvaeVGwonHY/Sy2HSL7VN268th/VRQ6A7Gq8EVCy1nsTU/cM/M+8tn40EnPlANMX0c5dxW31uYyy10ghNnevt3tb2JCNx+CJJZ/5wvfb1mKWQcyDiQcSDjQMaBjAOPDA5grmy11VxsYCG62fG76D8zuWBKwdaigpubqo49as+RK6cPjxSr4DRMQTeXGkp0ZXZVJnmF1n2z20H5vTfoyWYd2YkVd5N+o9tabC6vVCfLXhFQZ3Mk2/t8y7d8y/nEshwdilVqgiNj3TJ7SMm3jzx9i3AW2bQWBOPJMRgvf/nLWcqlBPffwboSKTbxAJawPNwyQpb/G/RjkCpoH+QVaZDULFXqkzpY1Z4PqsFMN7HBMWhY2KZBzudgkauVFVj2bsleHRDYAAUL3KyvUUFAWLFlhNTFT/3UT2FKjjygjcHhIkg/tqR8SHk+Q106S5/97Gc1VANsNozfXDDDyGrQwtEbhS9IfEEChAzf/M3fTHvQB+TQdAny1Kc+VW9c1sHZiqodW6Ji29SmDnVMmf8a/nzSakVyomkQC7A1GUq0dlgDp/Ah7XxDG9aPSFd0hnXwT3ziEwhbtHv4PkyT4mHgl4CFmkyf+oObzx/Zy9Of/vQLFmc4/tRNO0zd2ziwYkfPQFopje5zECU9IDgN0VIK9mrzueEmToRXWpy1uVyysI6xBeJriSgEUNJNPVA5ScuYOR4oDjwM+rgHqqhZPDvlAOfNOCU2xCdOySxMxv5+tGoSfynpLxv+KiZnjEFXGTQCgOEoZc6K4IDiopxhA34DZuOVOaUGaZcRREanbXSaGqeRGZraPC5iYDGMJkJAsaJGkOKkXTsIToNKjVkcNz2OwwH1Yc/vA3npjoyOlekFiAsYsoZPGBLQZaHbAmWhm6PPQrjLeMAdpRaNl0AJDT50Z1zI6xkvmVIgl8dBEO50czwyfQFj15AM+AfBCUsHTRCSwAcadoIQhIsIGZyQ3c/OztKx8ooBDB/yRq6gJwkgATpWzjhhRiLSXMdhtCMeOllKNDMzw8jKoEv8vGLqBsBAoox8WFSjOPTClIUUUQlixCJFiol5UzzJADgE4yhwDtMveE1wmENyDyTfH/S4yP+GwUmXSHsOu+EGxWcSD6PATmAjwBhshC0gZ8zs8acWqEEYDpdoNlSBbgbQ4HjhC18IATVY5giTagUNGGr/ppu+yH/QHdo88TOl5kQ+dq/AW7ZUMDljmKTBUCnUILMltlwRLXyicVL1NDAixEGLwkE14SBvz3rWDSA9JEFaYGyKr6o08mnxX9WaLp7m+Vo16qXRuTpVpAKNbFczOjLiFAxH4TZCzw/tDfVXQSsqTd5rAFY+aAygtVu0c6DNAfvEZIOHKMzIIaGANzy4AAkcYBNiYRFzVcA1ABUJGASB6RbIPo8YT9CZkwfJqDyJ8o2ScHtWkvfoJDynkOM4LDRtHAvrZ4XDR/bPHt5TLHro0KCOQn2hiVIoeNVqOScnkqLNw5kxbqVaGJ+o8G3B7U57f71+xfHjc7fccvTYsaNLC8eWW96JeW9yqlQbGzk4VtuztzrFWhNst1JAsSJXQOGGmkr8fnT8xOmP/+uNN3/xpvkzx1laOo63b+/MddcMxkb3TU9NtJq7jx/Pc7h9nz2BrFrLuWIlV7XM0iDux4bj5vK1KdpTq37G7/fpBlxQmkK1VK5VKlXMUPY6bY6o6TVb4DS0W6yiUcNKwUiJ+tlqKOzSJtME8eaBS2oaVjp27NqBZYLwREo/iTDqEC3Rn6H3hZOggi7sxJ+DciQYLt2C5EEu9VdalrjX/qqHS39TlU9eJWvSctA6wcYc9s9b1h5rbN+4tXf3rlqh7QWLK9Gg27PyIbs3VeEB7hITrqgGYxk+pSUeECn2CZQ8f++IuXvaS8Zyy33nrmODxbrV9R0wFCPuOJAKVALs084lfd9Mgsipt412cxCF4WTZv2aXf+Qy254ZObqau2c+WKmLtbR80DwQn3pUPr5m93RnsnyP73GmkjEI0GcxQ3BKSgD8A/f4akDbMIUnn5O6qDIYC3JDY4/5awQUgfRpW7FBE4ms0MsvOd6JXvTl+fDkl9qLt6xaq2cLRefA1MyRy3YtF4qriW/ECyv16NZ+2Z6Lpm86Xlxa/Xwwcusxa+6O1ljc+8bLB7NXFJpj5TsWc//xH/Hpkyv/8Mnl1bONby6U+SbsKgfRsRlCfaNKF2k9b5e+irMUMg5kHMg4kHEg40DGgYc5BzBJW++0V1qNDhN6Zt0uExmZ9HiOM1KsYPTswNiePbWpklfYrE+ji84EE0WZSq4EZtMN+kcrJ1faDSbwbPhiMscNzfBOv08Sq53m7pELwwObOcqyixM+NvtrHy025cR1Fl/no9mJP+akNE7DPjyUP7QhrJ0E3DkN68pf+ZVfgR6LWOeDaoCIsJYBDUtXbXcLy0szMzP4sKrdoZ4ExFtelEubg/vLv/xLDEltSTPsie0vzRMs0Q37D7s56URbiGJRjIPNrMNvN7hZRKN/g9gdRAom/MiP/MgGgq/uI6IVDU2xQ1fnBJEL8Eyaq49+9KPajZiIs2lT/9RBOxyGN1J/HMgNhh8vws068f3vfz/oiE4CiYc+qwbNJ6oJ/1QDDLEVZSEJ9F3WBQ7nTRAc5a1vfevrXvc6BCMpkYZqhg3fIdbQb1Eg+/CHPwwHhvEYxCApVIO2DVovECPI0sbc9OPjH//4YTCJGDZDNcSTHsCTZoaCa5yGt0B9xMMrmtCb3/xmHE95ylO0I6XfoeO1r30t0iGIgbW0ogxQoj50B3kRaCJCHt6yYZo7UjsgIi3t+dKXvoQPNm9+4id+AgcXLZl9utp9EXfESgisECFSUhIlFRzIjnAMr+DxpKIRW0GpxYwIskjufJ3JReQkC/KAcyCDah5wlj78IxQ5IJecRmM4eYuja7xKwjnbbjFxcknYSAYISNmZjZyon0QcTsPRE3k5vSbknJuyFZZkbtVfMTqNpN82MJYPMXIpkRPKX36m4SCtNG3QnZpZmLDKuy2gmsoeszSOxbNLxEG6JyYu9E10VVz0ZfRrdFK4Edpy0aMxUWMspM/iwoe3GhrBU0vPISYe7hDjiRgdNxdvAUvomnFzJyBdIXNN/MFguENPilxESCguTQYlFzTExjSFHNKBamwAPuCvxzkGVP0KKAgkhsGJrh9oR8es4QQyQLSohuDPHYBdzxWImUfiAaqh46ZoTB3IG1mlLOyqIGbGS15R6zpXl6gKvurRwjrKSxvQdSGLAVXvoF/4MAk+ffo0maRGuDPy6QxTd8wdYQ7+3PGHz8w5CIU/AYkWnnOsIjN1VIbBvW655RY9y2EkJglShIBNMaA1zJhhNc1A858apPqg0ZWOm/ihJ2nS0hmAEjcXYANNgse7777rxInjZIxsOK5HnY6OjdEc+bzWrnOudZ/hv+rthUi0xHstD+rTlc9XLvzWERtZk/G8ntMBBsd6YtfMBHZxRAuGWNgcp85MGcBBgBp+hMcadQ8T16gaCDRDHPwVYpKQuCVaegpJUIveWbLxQ5pecOwixs/ynoVuRBc5vlXM1fLV3MTEOMpyftdfWmicOn263liNk6BULu7evQega2qXvOV8DjfnFks5lZjoAHFaztTUrnJlanJq+uSJKb6IyamDuCcnJ6ana3v2VcZG+c5BdsVSGKEwgtfu8L2sfuW22z/32c/edNPn6qtzUeijCkO/d2j/TLU0Vq1SGyPouw1is90N2v1wfMz2Cl7FBQM3liJ/QDeXL7oWkE8TzlBQGxioWKHvYbE6CAPsnjHnCoM+UIVNVwnaILwRPEGzX9WCsEieFc/WOEdVyGktVsgBYfCdMLRZpVEjbRrES4FmsFVaM1M4gTLUC1Wp2rV2V/7rr9eI7kVwyR7IKjY0x4rOZfvyYTPyxwfldv5QWNt3ODd9cLK2f/wxRTtnd+vdfDSG5qfFQl9hIEMfDAVX2BPfsByXFhhTZfux+93paSsZyS90ERpE7NsLQg8Oc+oa6CGMto04F1kjeWt6kr+OUS+OtXPBtHmwZl17pXH4sBfvHy+tumfn2tUCxjzjkci7LCxcfsC+8sh4fWTsxCDHyTGhkTfbhpV3TVdGUmESN5qOastSj8pr/VGyyactNaua+MCPo/Zgdo8zvrviVsuMNGgB7RuxnL12cSL3mCvyMwdqe3fXSrl8q+E8+kiu0CtamO4b4zgd1NSCyA+LtnP5HvNIxXvK453Zq8rNsZHRBa/dCk/k/NxSwacN0AgiVH50TlR21rOlM7vmlf3JOJBxIONAxoGMAxkHMg6chwOYlG1026jCYL6MWYyabcrMveDlpmsTe0d3jZdGSjlM/8p2tG0urVszWqxhMG2102j1uu2kL9Ml9dOpkJA6DHCbaO7zK9bdOgxrwxSq+dSnPsVamzNmWD7vPEZsKwEevOhFL5qZmdl5KNZ0XBeN67AOZdnI0jJNEVCKi0dsLmmo5hnPeAbm0DXB/YRqZmdn2X2IZg9H0L/iFa9IOZamPuxgaQwGgA+7Tgk1/Eq7kVFwwDsG3nmE1RhVY+GMiJ/lMKtgLU1m7cxFWZBpcOGZxgMOdMMNN6CakPp81R2s5bEtNpyNo0ePcnDRsI92v+c979nsiQ8Cfa0UggUw2uQwDdbPLoiaDNNvdnMQDigXVuxwDGMerHw3EOtSIGRghyh7hTe8Zfk4rImCFTXqCOjuj/7oj3STQLqiYRhET2hoffKTnwRWoWg6Hq1XNBwntQ96BPeQQeFPg3nJS16CA5yGC4d+HA5yn9wsstgvCzbzzne+U8NUFDm12waOCDSlF2k7iRaJHMcpQZlCUyge6YDIefTnj/CHPbsbYtNNPfWEIRqzwSdlTvr2IhwUQQv3tIOORfdgFJ/Y8ES+RHehvyNEoPjoVxeRVhbkQeNABtU8aKx+GCWERBDpIRuyQYM5SsE23ZLI+4Bq8iNx0DDChhG0k6gjAjCxdMYFPVZm2IrsD3pLqNEk3brht4wQK7ExtvKhELEQ0inIgYIs18qPWZUZq7Lfquwz82OShJvH/JpEdmku+mV6KMZ7JPL0ZSTCkMAshyGBSRL9F490W0h18UH2DSVBEKkDgUDABIVOmbfDYAbxMG9gOkI89IloZhCQoRQVHPR5GajwZFRgJkEo5h/soWCo0KAOQ2DaRSLuZ5xjlCI5MoabXpsgyPEZEckbEnkyQ84B8LlwgArQzxKQVwwbxAYgT3JETjaYqBGQ6RQEjBxc0IAQ4EmiEBMn8VBG8kOKJA2cAw0FIcJLUwNftVjTUYp5D1MEZocUHA4zF4QhTCxgO21DX7QBXTWwSA9jGt+ChuomKuoF0IvtJ/CKIlH78BBshvkEaA3ze5SxGAh1aUmRHUDMUZgH0AyYMWv1GpKAgNSJnJzcfvvt0AChEZYWRXXo4BDgICfQM+KSNNmgTokfT93qqrWRQ4cPX3/ddYU9e5V0WoIqJEVnf+3LUyO1Hq3lfSoplgcJoQXK2oWP/FNeaz5DbpEty2sik/hUxFoaLefYy3E1YRS6QiAqOMriFiYRMUkVY24L/RCgB+x50b90B1EvCjnSQ0WkbEORLVhMoRVyI8kIWiO5JThACR8NiGhZIZ2Q+iitRFatMlWs5V3H63X67Xrz+LG7P3/zZ+85cWe7u1QolWcPXf3Yxz7+aU+97uCBvbKMxJQYVq5EgyJxxBqbt3//WHWkdMVVu+srVwHeYIQMrblyOQ/2WhDtJvSoVCY48aQXNOqtM3Nzdx27+3+/+IXjx28HpwFQgSMJMvJeu9NY7XeblfGxfCmHrUSsctXr/ZV6b3pXbLtOuUh8Vthp9QdOBayWFGpTTq4QRb7neqUyUI4X9EQnqIdk3Q/gC2p3uvUqFgm7z1UWLygHEy24JLbleEP3moiKBka0/DgETIe3FJkeV2lD8TxAiySOpeCc9yolk+pTrWEt4rS+tYMIJNUH8WLqSP0XTOPQRP4FTx176mXFqB14/fJIMjIx7k0fno5HyqWKuTLmdPbEg3Zg6TORdDPElt56ftFV0e0U5ohWTc7cPeaUyjZnKLV78VX7sS+H3TlhgGqnMI6hzshbcSFnFIoWtvWW22YXJdJgMFIwD++2x8a8pJgfH09G3dzqamgM4pJV2+XtGq851b3VLgpXY0n9cGCu2nYQWZ5DPys8lQzJX/XBSLsWfqvawqUgGl2t8oJLbAX2o2rZOTBTLIzlJ2x3/GB08Dmj/pNyhWRicsKbuWyiWi6ULTu/Nzf63PHV60tmOCi6g7FKnHgmulroBNlPDMdL9uHZQm0iP44pv3IynvNXHpckdWeiaEwdqJo5TwBS0pTE1/+rDGS3jAMZBzIOZBzIOJBxIOPABTnAWTUcqChQjey7UuTMeUyDbVFjpZHx0mgpV3R3YMyceRi6NSWvOFkeHy+N5ew5mf3LIkzmKdiaFfCm30XD5oJZuk8EWFDQ9CzWZmZmtBtzTGyIZNWGRHvnsbFGS/fI7zwUgBDXzuk3UH7wgx/c4HOpH1/+8pdrI2zYdAI82CY5cBoWyBCgEkH9bqZE7SCVUEOJzsFmmu19ONWGVFgab0/2YL7VqBvyGV202dlZxAVkAKGN1q4AHdRn0rAW+8///E9esRjDgIrOZIqgAERtyPa3fuu33k+ohlSAapAwwOpf+qVfQnmFJLRADMcwG1FE+/jHP/6a17yGb2FY9yXNEngPIiP9+IIXvAAyyosVQfSiWDZrSy28RQJGPMOHx+BJeYE6EEzBHD46LoRdOqpLd3/lK1+JcCwFF7H5pquD02LIxuYze7bJCWIcIJ+UANnRzTffrB/5HlGsSV/hIH4Eg8M+w24ke+9973uHfS7OraVJSF9oVFSoFvFoiSJSJhhOtPhT9YiYuPjclCiAhatcWtZ0cUlnoS41BzKo5lJz+GEYv8yMmB+JYFQJlBD2IdrkfAXLQMbpeEbgGTZ3N4m6HAIg8kFka2ydj3r0BGLuzMe0bAcbaCZDM781fRqiZQZHJGw3xujZuFndZVX3mOVpOfaGbePy22Isv/8cpM/iokOkk6JL1XfGUXpPxlTQF8YJOjjdf9GjiehOXSStpxcMPBrRYWRCjqu7P0jo+OjvCMsIh9ycMYAIGYZ5hfCdtBgYsEhGt060kIENIGRnTCJCekYdOcT4gx8QFVtjIEPcD47CtA/oBRpyDjExcOEGyEGgTxBe0cOi4aFzwh0yckL8BCQ4JaWYhIJMRM6qs+ZOEMIyMSUqyohqCAMVF6UjuM7V/Wf7QzAGGALrwMy4gLuoCzjGTJ0K1UMXVcboBYtgAg5dBNiVwjm8gr1wFdwFJrMDCJyGumNeAlRDtFQfjZhagZO6XjiNhgoFiSFpzXYwP+ZbNBXSJQ9M4Jj4stcJSmioevJJWIjJHnnQWaJCuciMLgWeVNyuXdMHZ2ZGRkbxVLklcbVa4msbroC1Dwu/4U8sdaeO4TDarV6RmbV4iXY9Eh1IFmcijRYCvrIYtYJAQTUAUeKrepNYLKAl6MRwkgo20BLQW6DdvhzVwlkzSmFFybMFdyAivj8VnUoTpzzRw8RxaFtepVymOjirBvBmpb7abHUK+Uq1XGX6h4nr+sIy58/cc9cdt999y3J9zi0Ul+o9lnnVsltfXeSwUhCUkTEUXyplTj3BLpprg06Wa8Vd07WgvwtTW3RC9HN8oNxVVpDJJ9gyPHsWlHdhfu7MydPH7zlx7K67bl9emkeRQQAkcheF/NDgoNS5vENF5fJF+ppGM1itdznJBhJwlYRuMcA8HLBfFagmV6yhTxOFXQUe2cBcKNMofZoAjrFw1Q0AhmgmC5eVlSw8yKc8qZ/eGKOIEpeeFMU/n/5OVZVS7YBMWCg1JLobDkvnHPpN5yxSSDVuulSE53yhuTQ99LkkcJFVGj2/8ZJbnCn5u3OxH3AkkWuM0Y3lqoWeAaQfjtrR3pEwP2rkxstOMa+ayHobEgQEdgt+JVEzmA2A5exiwbNdi1EtDAb7xkJs8qE4Kq1UIB2h7gWDJthPPJgsWjnPDpwcWxUS2oxrVSs5D9t3plEqxLW87Qeo6sSebYqmFqiMZ1cSs1SOgynP9jlNKQGn4esl7W6crERJ2PELqy30f0qTFRelLjJGsmuZlmahfFRuqfgwpubzZY++uxUmju3PlLqlwqA6NVYcK+cqec4iYqtnYcQdeVQ19EvSQBmuRaxh7EWNykhyCEpydqFaoH3DgGI+rpXM3n4n6pZ4rmFohOOe1BYKxW9hUnZlHMg4kHEg40DGgYwDGQd2zoEIEKXba3W6QaDkg2oyyl4otpVh04wfFo93HptrO9V8pZaveBxhmzCXUXMbWWsPeoGPxn66Ltt5nFBi7SCFBHRAFl9aLSCFalJ5NAJcbVXpWc961nAqrBnZjTfsw2KNR9ZuKA0M+1/QjZxaW0mCklXk+vLtguGM1NwTq0XW9cMBkDbcp8U7CkDDwYfdLIeHHze4Z2dnEWtgmeojH/kI6ggsSzcQ6EfKxdkquNlFylkdW9IAS2CPffMrLcdgrY2UBpEL0hVWu+nFApALe1NgRQgxUE8BUdgcyVfFh9W9lrwDTugT5lnso25Fxf3gD/4gWaI4w0bewGPQnmEdjBgqNf+lc/7MZz4TeQJumsewCTUYy6VpNNgAWaqcgVxCi3o0wYY7lr5IDktlxAlOhhoTXwGiJ00GMAnupd3YysPS3XOf+1wkG8ORpJ/J2uJUvSPnSEJuvPFGtiNz5hDXf6jzn8gJtvgQgJBh2TJ86NCf/dmf4Qa7IvU0Wj4rXiHcSH22cWiJiiZg0+1mSpiZcoO3tDGaEw4Nj2l6tFtoPLipr5e+9KWsjLX/Du+0zGHK4TZMV8BW6eGu43nPe57uZFCyoerJP0ymMesYkCI+IFANIj6qnkqhLFQoTEBOxddB/PjDW/ypdCROfN280mIl/HlLmyT4cIky90OKAxlU85CqjodCZuiwlOBIC7lEgoRoSwymiAO5jomoVZRs2BtvDPIG8AxnVPOKEcXvJX0569mIMPU/UCI3hM2yrVuEUsi9kcNiVYbDbIpjyJkMD6O2gejoAPY4RUzGmEjOLoEskB6KXonBDEE8HRkicjovRgu6J6ARphGMJfRoX/7yl1FrwJ8+izkQfRluEBGk5/R6zKvQO6GDZooAgY4Tf6LFzWRFd3aMTCTBnbRIhXkG+AehIKOXxIcxg86RGCBjXkVYLpJA94I8MIGDgNGXKSARkhY0hCUhIiGr9O86AxAQyeMe9zhwIAYbCpXO28g5c0ouHCTKyMpFfkiI2Jih0jUTluGTdIGgGEXYW8EwRuT3aar3UGiv2+eBIqtGK5JqikapKTuVxVgFT5i7UyM4eIWDRsKluQS9DouD2oSZ0PAW7lERcEy3CkZlNlOg6ErLIR5qChoIaFfUMo/ocQOJUQs4QHSoNQZ1tplgKZWxnCpmSoHPZz7zGWAeXV86EtLlSqsDB9nQF0kQIW7uxEByI6MjrntuV5HKuZLky5dHLPItcil/9awi3mZyIiEUz6Qv0CyUuzypu363FicCZzk7hRccpx4PwCdo7KQgSgqCMaBtJ/BAlGD3MOGjL7iJa8c9DCliXFXOmiFS6JR+CG7yDHVCKIlSJU+7xRljGcws5qpjY6OTk6VqqYk+09zpM/PzjucypcfyVLvV6TVWovaqFfVsdbopKi8rK3O333FzHNWLucLyKp/V6KOuuObyKy4/cmTf5NQI6brYVUOVyqLipHyqvKSIOpBYEkNvEJ2MuTOrN37yczff/MUTp760vHyq12tTob2u77r5SNl4JHcUt4gWT7laLBXy4ECFStjutjpBvdkFz7WxaxX2W8js/XZgOn2/R1jHAyzyBpjhAt/q96N+H9NnESURdRrscq11npq76uAVyZ3wh2apBP3CJN1MUJxRqIxnGSzgTMAhFEPEuBy8g17hjgSJpLLcnE3i4AGqgUn97OBaI+KPVPaluoheFYzBAAgv5+SxE1fClF4MTkKXaTn2wmrwb3e2OqcXr22eOTzm5cdK+eq914o6p6pJpplWXxDhAQYTELCcLRYIDdkeIPAgDAJnOzvf/Y872nGj9XVj/ux0sbR/j12rICuATY5YM6PMQD5mteQNSJDGwTAIqgsig8M0OP8ldi2zINMqiVbI47of39qKVs929nz+jgOeVXrGo4pTValZ/X6djZqrBCFXXLykdpai5MthUj/bPPCFO/azTeIZV+fLBQA2SY+823a5aMZYPVzDlCnPWk0iGmEcgkBHTz1X826Jr66YI7CLyVLJtmou6xkgQrkk09mVcSDjQMaBjAMZBzIOZBy4AAfYQtUHRGE7EqsfveKQ+Q8zEDvHBNfOndsQdIGY5DWhCm6eHwCPLEKY0zATZ1vWgE1gIWbQWP7sIJqNJBoz2OCLwJSFM+tBFt0spliCaQKUAHAwfUJWPhyE5R6C5mEf7UY8/Y53vGOz/zY+aCHoXfwIVZEUb0N5vldvectbNrziiBQtkt7grx+RIWDGivV++jY9NCX12bmDs0AQx8MibIYj098yICJpeEsBAQa2JMDzR3/0R1lcs1jmgpg7S1pkI+ejH/Z/2cteRo2w7qbg1BSSkOG3Dyk3y3xAEdoYuXrTm96ErCZFR2644QbeUhC0UgAUX/WqVyGP0plPwQzkBi9+8YvTEmGaTGs1pT4INFJ1LoQ5nICrX1Hp6SogJSZ+jM69+tWv5i0qIMNQDfGkXwFuXXFvf/vb07AAMJxJwyP6PUiiUn8c4FI0BizKgCph8A2ZBp6AFshMnqEuTYxdEwqrTc1rHyQkJES9v+1tbztfW9KUSFoAdUhis76RJkjvKTfwAQhBRJa+wgFkAnimfagO3d44bGaYJnWTnFb2AmWZnZ3V/huaKBhVSo8DxCutRB71WhAHtuAAtHCAMg7bc0MqRYQpeAPBRVzEQLti8Ygsi+BIk6hf3cyoAtzak2rFU8uy9OcG53GkmbyIpLMgl5oDGVRzqTn8cIzf1NuaEQ4zTRI0gb5GkFrmTfxD0uXKtmanYA66mEFLgja2zoBrk17HAKdBqwYNZURRIgxSokYlkxJhLDItL2/kivwQ1rKJOQ6WzUHHDAoG59bYBZMzb9hKA5xjOkhQkY/JQThaEnY/GEnWGSPBKpjpIaxnjwP9FB0Z/ZpGPpjf0M0xpEGJBJY7XRs9F/0XyTJMQqyxaGg0IkLHR2xEywU9lFwEwa27PJKDBjE6+0H0RJD+EU8ygKeOn8jJCZ5sDUDrgiTIG28BUfAEGQISIEJSh4z48UEHiPjJErNDelj2C1x55ZUMmWBCOhVesX2D4ZbxD8BAd9bMmXgEdoKGmHGAUpAcb4mQ0fHw4cMkTa7uB5sfBkHhIcVk2Ebniaqk+FQ3d9hL7pkpan1eeKVHOOjxocpgGrUAMe2EGtEAHtAaABsXk0XoeUUMTIVJghGd0Zchk5qlppiMQtzg/+oqtYMPr9iXRNsA6WF+xrYsaIiBFKlN7pqb1LVue8RPPnXrgoyaosZpKqhwMfyTIrNcER7zhW57yVe8RsJf+bT5cfGlr7nOF1w+/vVLhdECfhWfdA1EBhfZ+9bv0877csyV2A2TdRYXonCV+8Rz5GfR8JM4GGBcKhacRNFIZviCBFgQD8kVl4pBJS2dj2V7dq4IXOYWUezrdnrdZrtTLHskzVqOkNLxWLFjBHYckEN2/PX7oK1zqAByPsf8/HIhP9JY7kVBNDFRG58YIWskYyYROgZgFzBccsYFPi2RYciNHs8Ig6hR78ydwfDg7UtL9wDM0LU5HCMixh+RfTvVQm5sdHRiamp0YjxXwBobmg9wAH4Y9ARBnyNpwtV+r+53+0EvslyMnqGmTPysY1HBiDhXB3uGGJEI8McEn4AKolpC2oq369M9+CGeqjZgjvorPY5yKGKC0mVKAcgZrwQCW684ODugsAAPQDV8ARqqWX/7EPmrcisbBMRwmdSEUpKR9kMNc8bRYiv4ypy/cNQPF/rd0eBQeXkyNvO1op1XRr10uxYuyaXN6imTewJOoNgVCrTBfwFlFYNojURu0I8v9wa3zQ/qpwPTazd3+wdDb3Rv5JYZszw/0DGSG9ivVpK4qCN4zV01VVEc473klwqStkxeOoPkZCc+sRCdviNc5ui2ycV9hlUdL+ZKjKFyAq+0QFWpEjEVBmqYKFOBpuFb5llOnmwPFu/y23Ho7V8olFxvnAPe8oQhz9IlSN+lajitZSm1lC/0Zcou7YeI5QM0wlgya6k7Lsm3UCgS5chuGQcyDmQcyDiQcSDjQMaBnXCAeRSzeE6pHGC7lb1WekqhJhXr6/+hqcmFYmRGxU4aR/aSqIkLMxd+Mr3nJ/Or9egvFNG937PyZb6r/fTiDjcrO+0zMzODQBY1ER4pjhbaon/Agk4T6DvLrjQS7cOiTDt26J/GliadxpC+uhQOTpJH4I6UFgExYgGdRGpoa5sUN3AgpXzqU5/KKehsN0zXqumr1MEZJx/60IfAIbZJCKiMKw1ynxzw/Gd+5mcQyuNAAv6QhWre/e53AyalRXv961+fujc44BVcZcMuZ6gMg2obyLZ/pMpo7ZoGOcOGlqn9afCAixyvgg00fJBsaH9wI4QSaJzwOSBn0J7pHbGJxmmwooYxsdRfO0gIrAWDeAg9ULfSnkS4gQxZE1AN4o7UH1yHr2CD0lv6NnVg6Q5jcQBRZD4t1Pk+n5SA4BsKAkySWjWkZSI/0UkMB0kTxZH640jdwwRs29UqRNrzsY99LApVtEwgIg7p0Z5axIQ0CeyKvbm0hxR7I3vahqHu8YZjvk9uWesrtAYJkhbl0dGRLhIkJE/ah/agxYkURMuakCLSWgjLdZ+Sy4gfTA48wiWzDyYrHylpaaGfskUmMkoMxKCGjNwM1Wb5yQE2IgMNELQaVi+xSsgbk/4qG9qNbgt9GiVu0tO09MtncsX8R7YBG14B41BEbMTdGFxHy5hkn7djolXjlNSvbDpl060Y2ElzygIL3T+0ht5ci9qBVeie6JrplRCvU2X0U2QMhB/pPBgMuAV9me5V6b8QhRMQnIMekA6OsQR4Rlc0oXDzljv0EHOREElAjKf2JzkioVvkERCFEREyhtK0x8cfyITUeUWcyN/pUvEhTmZUYDPkhwkWMROQjh7whreMpnTHXKAOaD0z7eMiXV4x3WScQPRP3hjVyC3bEND5QFOH4OAHjKNY3DqmDu5jksTIwUVapPvI66w3lAi+AZBQR+AljF6wiAu2c8Eo+IN5Vhzs+6C68cQHHsJnBmPmFkAsVASP1AU+DITEQ0MiEphPFaB6xeGNaMxgHg2Wsq6YOzP3vzd9gU0cWEijDnRTBIpjZklYWgKzoqNHj4L9EANVQI0w0mtAjpyQf1S7gHO0mjPByRWNh4DQoAj1hCdcd+2111525AjaHJRBNqGpUPJH/q99YBse5QXvGZtVwUWOq4i1v7w656NZKKAAlxI+c+P7JQA/3qpLSb5ZSmFaqtfBoHQnKeeYOZBdPg9kxAjH1SILhQaDH6WI2CU3iPnYeFBgTSRia453J1MEkOyROboevTiTA66cvGd65X5iAl0anuUWPJfOJLHqzXap0eBMeHaHGOOjpcUqmhg2un0AKiCwcmS80e13UFvpdFc7rcatUVApW0948qNRlcAgFriOlXRBNAyDw4ewHYUrMuOuKl8JQw6sGquVwuVH9tdXZur12/zeYs/vxyE0chqMZQyK+dLeXdOzM7MHDs9M7tnVDxC2wzCQJRAbjlLhwPe41w/Otntgemw+NFzSYl0bxljbQqQeYtehE/Y6A46XgWsoaKDPYwrgLSwWYICq0vCAsJ2YhTfCLt4wFRV2Sd2L0B/NL3PgWJFpS1clszchh4ogKI8IAgXLXCxZioU3elYVWCLY4iKYuiRJSUlo1/3WXj3QfwTSZ/mLrmI/iLqNfuRHLBmkoBQZCApdk9ZguWUeWyrdfdfELUbrmSt3P/rKucnH7C/uHuVQLybmCt0jXzQ5gBmGlqRqRoWc41ZKkes1B0a/FyUNdhVEJr0mujtSGQb979l6tNBzjy0Wj82HV+Y733D67quuKFUv25ObqGErjfaJ2hjckzNwJJdJHrtnNSzdif5TOEjqnZDDk4DnqFRBRDgVyXPqnXh5MTyxYC+u7v3icv3a3vGr756/4vq9EwfHjWIJ3RlgP4Fb5FQnVJ5MJ47Lg6iAUbXREkel+Y65GBf+e3H37WcX8t7tpfbSyFMe6+2fBuXrh4NWoxf2Q1s+y7VaXqshXUnEyCWVL19cn0IHYIPGdMGoFT23ZNtoYKXXJa7XNJ3MkXEg40DGgYwDGQcyDjwCOMDcQ0xJmBamN5AUiAEOMR0sc342KPHbuLrYtswy5ycONl7JlimZ0uofc0+mgXpfzLYR3OslKyb9/OY3v1kv7nhMLVOx4NJv2e+IbBqzBzx+4hOf0FJjFF/02/QOzsGVPuJAYM1S7hu/8Rtf+9rXDvtjj4uVOIvHYY2EYYLUjQgiNTmVem7jYE/nG9/4RgiQXM/MzAxTsgIdfmSJ+qlPfUr7sMzUDhaYSANws4pEtWKYfnv3sWPHOJB1Aw1S79QHOb52f+xjH6NQqT8OWDT8eOjQIRbIwz4spYdl98OvtndjoALlHjAhxCzbU34V32qcBtkLS/thO2Y6SzRR3UrRsvrABz6AfIamyAJ/mwwD5GghFTSAYajjEPn73vc+HYRWDeSj3ciX9N7izbHBtPS0FYQhmgCgiKQ//OEPk4cNQagjrWTD1t43vOENG97qR+RX73rXu/gokLFonyc96UkbKGdnZ/HhE0NsQt4QRt144434PPvZz96sUgONBlAhAKfhTiPHLBsXbi7AIXTFlPPcjbZ9PhUZtOKALc+RPhAuIBmi4bgprevzile8AjQOuQ16VIhutkyBt895znM2vEJ2xEe9wfM+PUpXrKRDhEJyyB1BFq2LupMVoloG0nJoIUgm+Ui5cPBKv71PaWXEDyYHMqjmweT2wyUtJZTDNIxsu0Xyg9Ui5LLYI0K5GUHVwBS0hmPCQWvsJOxh4N/odJIuujV9EB2ZTa0ZwSeskgXzF8mWbDcmZgRjxIzgKDAGnMysjKeJuBZaNJ5RrCmaDj+BavRP2UbLIfTCbI9SsgHUQdVGzOHskKH0TfT49FmMW0wp0aThTo+GP8MSbqTtTGvo2hDB40/muHiFpJ4gdHO8ggzPNEXCMhrpaIFSiAH5OwMVAwn9IKHoHwlCJHSFxMkjYAz0qntcO+2G2MgVcxTCEiHjFkFwkCLxgMpwIdAnfig16gONyp1kD8yAsjBI85bMMPiBJTANZWyDBk0LZga8AiLiLYMxky3yRnLI/cEG6J2JhOAAGBScpCF+ZF8UE5bCGWZ4MBZkS9cvrGCqxw4LJhbUCFN2PZ2Fw0xowPaoX7hKvVAXTHZpGP+fvfeOsSy76v1PPjeHSl2hQ1WHiZ4ZHADb+AfPg7HIORgs8DMWsuw/wIBMkAEhwIAeIGSyyIgoBBLiAUKA+fnnZ7ARPBxnPKFzqhxuOjn8PuvsqjvXVV091eOZsWd8T98+tc8+O669zw7ru9dadAkIruA3iIYPSxACv+pVr37ooQfPnDk7iaS5bqyfWKtUKzQ6DQpmBihILBIhInfamkfaQvU9EuHICRO2Ws2QLI3CMpfWpN3ppPQfqkCrob731KlFTt9wUTwO4DzVNW/JS5fXKohM2OLmY5TPUly7bz7VXQQrQhauvb7PF733pshIcYiLZYDsqZI4DQM+tjBxUvCJgReHpo4Wa8+PwChM3UpCJwu02BCNCWEURhi74rsW6IFicLGvKwomzwiAyGaNjx1tYGJewygZKDHrhzc3d45vTzAiiSDL1GB9cwPVaFEgS5Nauzk5Oz09NbW22kJExUszlBXC/kbdFd98swxu6k5M8uXUSq5l5mHub3GgJ818Pcc6TazlJVQlYnYrSzpCIaeNwsYMizclZ3Fxzg/uDaK1erO63ekgYwVTHrkUVj0T7YnTCyfuvuf+2eMn3Ep5G+yo28c+PFAN4iuQpbvjdb3uttfvI54jsLSN1ZwAOzdYTkmzOPLj0EdMj9rKZ0i+ghdJ/mosLugDViEUoo74c1M6JWUYlEBQCcQLhCA34L/bJhroGFsFpBGoZi8h6AtClGvgR2imsDi+SMvtNWmRrCStLnIqkCJpcPVKtfLe++fkL+ACe+ttP7u6Fayt+r2b/cSLgZSAPQRUAs8wtfPb2trlrLOWdTrlbhS7WW8rGhxLupUVA3FIEYWi4vKjAxlRZtatZKnsH5t0qieNrqk9vpasr/n5RlcLY2glrSHcgTzMtPMb+dpNbWdT663ZXSQ9NW8zyJuDjjsJZS2hZgEcpvyNUzMIppr2uXva9elqz7A2tpNrFzrdrRDIkDMOBOFgKKdDr/r5lbVk7XK62i+v9JL4Qmcn9Nfs/tSWbZRjgWqQHpJmZWbVmWbKcTDrbc1NuLMPLRpTDXDCTLNXw/rWSu/kx9bR1gdiyICymVub2/HmxY7fCdFFSisL7CYNJVTiJx1FUsUt6JfAS2CEkTdVM5qn6g2rrpUhNsQaX2MKjCkwpsCYAmMKjCkwpsAdUwCcpoJxTtvNEz1OMqvE4Sgs0nLKKg2TkLM2YC5HTxQVyuwVPNkusIlmh8TiSNZHrG9YS/Mr1jlHTY9zlioo6geGcdhGKTebKeVQ2orYkbHRw/AJnuys1fZ5GOuOHFj4eM973sMRPU5hsq27TVzqxY5yGICyoZcMlIj9/tBz1MGGUT2ykx2NOAzDlhYxhQ9+8IPUZejJDooiobSKE35gG/gflv4wyj4HchJKL9w+/4OPf/iHf3jQc9QHZGsfVAPMAOQwGuaIbmp0ULzjiHGf9WB0VtKEsYB2OBzDbsYju3hwDpgwXOzWUfsGs0gVQAGHNBCNThtBB3gF7PFvUzzYOMO3RMTNtnHYmXmEXaACwFsYZjSMohzwHIhL9+MRxWLceVT5wq3icR9HiK9DATAUfrQAKrXhnQ4GbKkQSoqk0h++xbG4uKgeOU8M+0Lp8SPkW9/61tFgSN4ABPIFDT3horzpTW8CERn63KkDaGqo25Ac4efsq+OdJkh4mGnvfe97Id3XfM3XKKgGVhLl/P3f/31kzg6Dam6ZkWrKW746uqciOB0A5pVqJqqphlES4S258O3zFnqqBjrYRkfPbhzy+aHAUx/885PfOJcXCAUKBo7cCocwdAoGkOL9sPDSOdTLQXEv72zlW8t5d1tUn8FTUsGFTVYcEuZgTYH2CE4jv0KMGcsPJh2vYKjtMpPk8IzOGfM00DVM18B2AomB0eXomE+26rrT1J2Gbjc08Bt4TDbCN5VnANWomYbRmaUf4xcjFGMWoxWrH8ASJlHY9MMGYkRjxmKM4yIKeAaoxnCKwpMlEeFJh+UgIzKJMz4yy3JXkzRu0udSSRGS2ZFHhsjhoMz8B74CMIA/0yRpEpdghGFGJ1OyIIyavIlFLhy7gNGPzzAdqoMPxxOY9T/0oQ+RAishxIGZCHlFLagdETlqQUbgE7jJi+hQgMIz2TBwHzajDwnyQnTIGr+Yn4aFx4cWZ+GONBKkwJ/VDNQAvOEMFGLdnHdg6lXhoT+LePyhGAAPtOItFoOIC7noMMNJjrfoh0Vk/sTxk5NTk8zWdB0Y4Y1mg7bAugqACk3DXE5nowxEpBjkSxY0BJ50m6WlJYwPARcNT5cQjJUNqSGj84mPP9Lr91ig12sCrZ04eeLuu+85cfIkb6WK8ilxyRcoLvXE38JRvB5+cSqMCiEcbXWJa8+966Wei3gCp8LtLRAEUpN8hM2/ewkgICIbqEHIkiiN/NS30p4RB3xnWr7p9Xd8D6ujaej0a5aXWV7ue9s9LL5ESWhpInYm5/EAEaS4RSEEpOFEnqx9TYvvqIJBedNt4nd5fSNLgpmSMz/dXlqYw07NJ59gNNB6O9FgIpxdqC8snTh34z60o6GRYbOzbWRxOUsmsMbeqKT1uanZ4/e//Avue+D++bkZLdqOdh7Ne2uaj7Wtip5389jJ/EEe9LKoK0oam9PaxLQxPWOVqxiEKlfdyWOTIg91c7nLQaQoqlRK07Mz0/ybmm61J2v19s6Ov3JzdeXGWuSjh81BfAVla6urm9uD7Z7XiyGh28hMd4Ces2xQRqFCJkJ/aSwQCmQUgzTSljlaqpT6CDX67tJmt4UkIA1SNARDrejbgm6FzEkOBmM4aFTTIvAHA+xHOgcXN+IgNMjdKVmipK3QsyZDc9FLoPtTLSrpyf5YWlyiPk8X7c1xrCtb4d/9184jH+92Hu8l3cSqoPWcU5uFuEySeBGayvQQBAehE7vyX9n8Y8t5pYMaus5uTRSVwMEyM0mdhUrwP2Y277vbnS6719Lsf//b4PHHvGSdswUR2B9QjdCbmEk2CDVSjkLDcsy+2fg//cpHntTca4llbUunlP8iwMKHrfmBtbV57ynrq/Xjk/rUE3r5sfPBx/5+Ze2SZ1Zs6C8gGM2SZEGcbcWZFxpJ4Ohl57J5Yq2Xf/j/6u4nPFOXOUjksoT+AtPB52h6G/dtfPSl58qlmVYJHX2G0aA9bX01cv7h+sRK3fiyC52aYT6SVC9dTq59YLO/Epi78jEKd8FKHMkJbEPjSZtzwkIzs9xqZf178usPLVpp7S5zpia1VpUqmpeHXZ/nsbmlAONrTIExBcYUGFNgTIExBV6AFGAZWWU7WSqz2OQAZ8IBJLjH2FhNkk7Q6wa9MIlYdLLUedqVJAvRKIl2fDnaFEYwBIo9gWw9OIFjggbxk0M7R77Y26qwKDwYRmKXrdzsuZSDbZdycBBeYSGIF0h5n+n12te+FqiG2EhUfNd3fdcRk2HjDx/80qVLxIKtzKbviBFHg7EqRqRAcduH/hjkGMo3KPiKjefw7VEcsCPUqdDDAiu68XbIlzgsJEnte8VeaJ/PER+fccQjpn9HwWDCqPCwaEYjYotIMXxoF5gwbN5HpVI4wUlgGAjcaTsF84xGfwbuIToIiwPVLLdMgS6B6Aymcb7sy75MQTXwFlRIRVW4XvijYkR5DmuHFAt2nZXnV3/1V8OJ2pf+UKIFtglfwQ//8A+PBiAXeghMLZhmhISjwls+t4KP8VRAZF/2CWP95V/+5ZD/9lS4O3GxcSc4KOwv/MIvIMAEGnQnsW8d9rd+67d48frXv360/F//9V/PwV80uMCCU9EgBVJTuLmjduWWaR38Lm4Z7Gk9GbjobzCXCMmQwh0uohoQIKDiQNIEOGRM/jRGuactyTjAs0WBMVTzbFHyRZnO3kpl5GNGpxD8WC30M28z69zIt25wvDkP+lhi0K1CYoaFlISHxQf/C7Ls8YOAasDqsTduxejoV7I1QjWCyU+S5Zi8JC5cSRHiEbPNhiNGcWyBajQbtGZX1EbUo+HPGWPDRUOaOA6Xs2GQAibhwqFwGqYilmsMZ4xWrD8YInnF2gWQA3/EXzgLAwefADzCkWdcgzUPnjGcllg7Mggy/jIIModxgIXpGR9SJjoXCaphkSzIFH/e4k/KBOZiJOUV6xugGhZPimVPIpQTf3LEgT+TJYHxYSYgI6ZeVnL4UxJKzp2SqAoiGMRb8mKFxwyBdiwmad6SNakRiwBckBy1aQRTojzMlMg1U3HWstSRi5IMl7DSQC/Ai1pzHTYJQUmAGdqOmkIEGoW2AEphZl1cXMSftZSqNCnQiArHgmLM9LQFgi8gPYry5KJC0hYQnBV/tVoLfORyLiqADZkljj4tLZ0mi+3tnfe///8MU6Z3kRGk5k7iJEhGnEkBBwKAkZSLo2S0HcUAKGxPTA76A7XQMUxjemr67Llzx2aOua46fqW+1hGO66ENp8osjNzd0t8ypOyrCsCEw20RAIzstTDyjs4oISx8YMXZFQrsJgXFq/XS4unpkuFMldqY4wCPKtEB/aobGP0grJdsURjFni6KE3RGGUC+AjCAOyi+8u64IY0n6SKRBeyvAABAAElEQVT8hlwKmgidcs0p1U23Fvp+z4tvhv3HbUahhYWzp6utJp9x3/cRvCFV07YQtDl730uwFVNtNze3N1EFVipXWbxWKw3LLB9bOHX/K14xf3webWq99Zv9Jx+JVy4LzzwqG9mEEZl66OlxoCMU4zhxfUWfP+5iCmXOLtfqs6VyqVafmlmYP77W64HrxJUSUM10s9UG+aS8wSAcDHYGPY4SarVS26Tslg3YetNfGwQdrHudaNUTuxVkVt8LQh85oARdaaIvSyCaYuSkGaEvI2fR/tKJpZEKMKaAy6WZhTh7214JRghuQjNOSTlodTONHLlH4Br5CopokoaMrIjuIMVRKluVmo3+N1qy6GjSA1QHEtfeRYy9bPa8nuO/1BuNhOu95NEnvY99pL/1hJf0U4d2k6OahgigoGEyyzhbiZCViRUZ2+5mlU4/y7ZjVNJhjkjmDSEIlaVbWUmm9xrR/Um/PxW5XW/FNx57wnv0E368E2hJarDxRz8aG0WBtjh/gEwSKdum62SWsxm5GxxIikKRR2HyEqoDkpkYNco831jpWgGjaCuZrTweGx+/HHz4497aBc9tunYBPkq6EQr8MpmaLFN3xUZQaDhBmG8MYGmgR5Qpj16DHKfgnLxmZqz2fHd1dc4o+72AtXZJ0/m8TT0NM/3ioGpuZLPXPLTyfSJIL5/PLn9s0L8Z2HVmMuiDwjUKqA5MFOwMGUTIAdSPSUCfs6O76r3avIuFJT6TXY7HwVZ/jpt4nPyYAmMKjCkwpsCYAmMKvAgoYJtWo1JtyILSYvse+6xARGUtK9yN/uZ6n8WOh0IzlGbIxuHwi9UKqzfkaVa666vddR+pfGEGFKu5XLN0s+qWa66cbjo8jf1vlFotNl/DPR0h2FlzZ/81DM2WGV45uA7bZDxhs2KNY/j2GTjIEWgE2+9/8Rd/8brXvU4x4p82HYq0tLREGdiVf/d3fzeiCc/A/gpERqU5jAUO9RP9bW97G/mOUl4xx4fc/KctlQrwP4vrNoGHBufRB3Wniatk2UT/zu/8zm2yGH1FcVQ7jnp+Zt0KrIKbpOAWkIa//du/HS3Sv//7v/MIq0E1gXqFanQc7P0VhMYG/9MEJEhtyPRXp1FVRqN3/LGYgo/iCMGDwj0EdRSWCUcCNEVBEaNx//qv/3r4SB8j2PARBzr3ODE89AEO+ZIv+ZJXvvKVQx8cfBr4DzW28QhcNBoAN3gGBMEfdo2SuPr0yfKa17yGRNCFOAqr7Mv3jh4hI984Ub7t275tNCK5KJk82lr5o7dQOfAfeo5GeXbd6nuHuaSYlpQTFh+eyofqMx7yyPXs5jtO7TmiwBiqeY4I+6JNFvsKubeTda4la49mO5dzbz2Pe3jK0W+Rg4HZhHYyUBmUpHFKfI8OrMKEg5ZqUahZGJxwCY8XC7GCJbsXEM7SHttR+GIosEkDlK1piZ+Hm7C7NFMYaQLSYNUG2MZp6e6kXp7WcBwuZwNGAt+cC0iDxRB3LnhXzDGMXMxPLCyYnPCEaw8ww1IJS+/MEwxwIDFw84ExGN0INlzwybISDnYB1eAgKfj+BICxDjcfTIVM8QRiIQsY8YTnIkGmRu6kQ47w5cFmyA5PZiZCMqCTI7M1Iywat8B1KAnpI5kBiAJswxyPD2sUwBjmY9KhIiTFRfpACMxGROct9SJ3GgDWP+VkMmb+QEssyAFvicjC9OLFi5zpQN8XywXC8xa4Ar29lGSv5V7AfyHIwakIH1oKWRnIQpdgAoO89Aral1pDIjwhpqo2/QG6IUbD2h3iIG1NeBpC+UNViE9I0lRYi2latPvlK1f+4e///tLly5VymYgPf+mX0n8wq8KFGMM+gg5LSGkpCdHlQynY5gULHnsWtdNnzk7PHHvwoYd4C7hjwfaFI++49XqNLcHIUkm+meLDkQ+veKBskqF6Ia7ikmDFxUdbiMrsPe/9FQY9/2Dzx7nfS8NumHQDRA3qCzWrDDIq4Sgn/OUCIwC2hNcsA8DsidbrvuohrxfaKE7UUO+lBSKsEPf9qOvF6JCarrg1QNl+WUt97UotH0BDPsZQOPGF1AQkFdkccgdsccoldoBu1XJRighiQovmjmV5g62PPHYtSjZmz82fPrdw8p7J7d7g+tV13oZR2mjUTj/4ICjOvZuvHHhenGaw18GMpAFcByhyYnqaXaXfH2xeWLn+/31scOkxKzHsTLdT3UHoRcswa2K79cyu+DDyNzbq5XqtVM+QlZAE7KmpVhM7IvDuxSQJ5mjQzYgutJxe0dnud3Z8THJNNGas2UoeA5zYfW+r071i5cFSY6JRnyjVpze87KNXVq5ugOp0QKnr6FcTkzbSWDRXMSQKwFI0E3/Fv+jLIoIhlBcERV7LT+guzSC8ftGDpbmGVkIeB+whFj9eEUd+gpXnUZhkZlaq2ZWGw0gs8XffE0b6inQY+fuZuegwbKP7YTpYj/prMYgXQEeGbkzuBW0y6VepmPKhe2kpdzGHBAlMaISuTrbfgk7LdCOCSaIqEwyvUrMACOMo9nth2E/SkIOfhTyN64AHit0kFMOl2MQVAUpd7CUxfwmRCwXpWKkBJaIoqRwXNXMxJgQaZqNsDdGlZGcQ3diM1lZQXAlwDuyKpo7MsVJMyOR4FAWVNtIjLL2hFoQCAs3otiisExkqC3yJMwEm6toyMsBajZQA3E5ajWak1Yw0NPMIlLSfG4+vI/nlXeuYm9e0oBencWp4gtIZVbo5Bq9IQdquaHlpU3JCuZ+eWLWGc+5M/a57Ks1jDaOGuKoJjYqwchs6PjMNP851TIExBcYUGFNgTIExBV5QFGAt3arWW7UaOiVkQcl+vRCs8a1o3dq+WV5b6azX3Vqr3EAm5jY1i9K4F/ZXOD+1s7re3QpCVKwLVFOgNaL9rFlB93Adx20S2fcKjdP4DHnQ6i17fBxs1UcDIwcz5B3vMzwzGuzobszVwA1nm/Cud73rd3/3d0eRocMSYcOFCAInKbE+wu6SYmD7/bAz+Iclgr9ScYZjn3gHPiwLFaIAE+A2KXymXiHxcMSs2fZ+dkI18E+UlSMQi1Gohs27shiE+pODglZI2yjPN7/5zW94wxuOSITDgsHHgMNDF1KK3A8GG+qyQxkdbxWQwGFTFVIxQEgECBOOkPJUTCTc9E/YDspzhPkgHmyBf/mXf1m9+pVf+RU6M2307ne/+0/+5E/gaCl/7iA3QDXqEX6UkjGCPuQ4DPOWt7zl7W9/O9ux97///UNPzk/zaQwfcSiZpFEf3Hx0v/EbvzH0hFGmSPoN3/AN3/iN3zj0//QdVAqeG0AsHB6FtB2WJlw+9YryK77caEhI+h3f8R2jPp++m8GEMYeWwgFB6A+kCQODcY87nlyffi7jFJ4fCjz1YTw/+Y1zeQFTgGPmsZ97W9nOtXTzYrr+WNZfRhstDDPdKetORS+hmgxmLEZofLhaGorOhiwguIHC1ObwcopIHuuFEToUvER8FMdQeIp7L2WZxgNMtF3dsvARc04OYxTbLGnYs3FaRmlSj3b08jGjMisa0kS85hbccMYsOOwMiAxYOOAG42bEZKiFcc9QrhZSzCssbhjXkJ+AKc+yhsmDEY2xWCE6aryjfHgySxEdPj5cfu5K2IKRkSjcGbsZEzknQhTmG3xIBOgFVIZH5kLSZ/IjKcpD7sh5EBGYh/AkRVxWVASgkMRdXFwE11G4Aj7kSHgS5JUqDIOvkrcgR6rDFDtciZI+0wnlJ2UKTCz0axEeT+7gRtSXlHEo6ELBD3tt8CL8S625IJdwM4um5I4bIkBzVgzKnze4WRwMBlgcF2s0XIocyt7PSEjR60p/KJYauucN0JEF0kYTII1FpxLuLdQveoJK4eA0SabFpd4Xd3o7p8ksixakoScmpMAkpeIKPFTgG/iMxDnMOfyoJAAs/uEzmyth9PKsvHZZtpI1EnRYUfG3/MG65296dtkyqtiLMcWOOpxx4YYXvF6JL6nAUG+3K81mSdAWYFZAxCQDKUGTgR+Bg/Ih5xWKHSfRAIvqYfXajOtFiT9IwtAoocQM8QJReUAJ4a9bpapdrruVOoBNjhgFXPPYc6OulvY9b/PmzgXb6p27es/08alT98xP63WY+Z0dD4s1gW1PTLWbUzMTc6ditDAksMJhScPENlEO5kgrWXEYIyyBysOr17c2L62gqArz7iWdX142DYAT163nZjnQdJCxvNO3/MQMYrSZQSTQl0oV2WE47cLkj9HrFiaeH/Z7Pj8sojYbdVcrt8vxoOcP+r1Of31z50bdzs+0G4uN0uRUo5sCFKRlN7207O8MoA0WehIGDvj/0joyukhrFOBEQVzxpWEUmMIDZC9gSNVkxSNNIK2hw4EXGELkKJQRFJKTNKGAQBhhgjxTCohYrtiIYUhaXJJOEU4GXJHDkTi7N3FIACmSKoR6OfQuAuze9mKO+t3CXdTlFv7ixbuSpU9UjGNtHWtF5Go1MVSETA2VFh1vYBN+kidSZsgG9AHekYNQ2CgYK1F7zNsieFNALQhrpcnZaW1usVmdtT3L7od0aUTEQHWATRNH88uOXp1wLNNKGYwRS+IwABCGYEGQgsS5aGhAFqRhkq6fhaLDDlEogBhmGmkdLNOULK3qatPVbGIya50w0dYJfIRZoniQ8LZS1qG2W6Hfia4zvgg/1r0g9btypqFkZ4hBpSaGa7Qg0xoVZ642OXHK1UtWd5CsrGXrKxF9jG4oqBLgEOJeSd4wc7NltE872ZwBcVJD95l6U7SO0PIUDTJSTmhJOUGOclfvz5bDhRPV6ZOtUrMChCj9RX6qLbiPrzEFxhQYU2BMgTEFxhQYU+CoFEBwvM0mutFExJw1tigujsWI7QBWQNa9bq88Ub2I5M25maXbQzVe7F/dvn5+/fLVrZsbvR1W6HL+iN2ArGOMsu1ONdpTjRaA0FFLpmmKVc2xvNEoStSGDeCopwIw8Hn5y1++tLSkXrEl/Lu/+ztUW7N0Gw18FDc86O/5nu9BKIEzkb/+67+OiqejxCLMG9/4RjbpytoHzO5nhtYclpeSouDtZydUc1ixXxD+sFAoJ4yaW5YW3s6QgXBYAPzhJNzy7dAT3hHYBojOEFkZvhp1wN6h4ylxGRAjWBEPP/ywYh0QDHtI3BG6okh8DqrzcyBYpaAYU/R5MBUu5Un56Zm4gR45t6o8993BaWB34EnP5zjsj/zIj6BmjdTowz/7sz87DKwIxSOMr//1v/6Xgi74RuicP/iDPwiTileKtTWMohxAQark+/wPPo4GIxcF1QyrfzD8M/b5pm/6puFwcZtE/vmf/1m9/bd/+7eDweAfPutQDbmo+sLsAgFVbD3Fp8JfvTpYkrHPZycF7nj6+eysxrhUzwMFWHxl3eVs82Ky8gmkarKwg7ALyyjdriDXYjTmjNYCh5jT4EY+WIEfJpzcIf8HrpcwYEWuhlO+LLwEUIGfqJjThbozYRLy2+UfKceBakkAQCAWcGKzUIu7abCmW1f0ynEtf4lRPSGK0cz9J3dgkTMhgX+AyihQhGELqyTw1llOCf9sb3bkLSiIkjsB7Sg44+iVMZl9EY9QUiyqTMQFFCFNJDRZz7EWJAyzI0nhz8hLLIZIEiEkwyJxkUpmBYaMDuUhAIFxsF5kLqQ8i4uLpIwPd2AYHIBG4CtMAxSJow3w6xHWYcwlCmkyWZIaE7AafKkg2ZEO1SEublXOgsA5kx9nc5gy8Sc1kiIW1SQdIjIHM3dSYHxAmG45R6rUXlh3yF5AELulPjg5jfrgVpSEJjiIU/hYqBeDaKAieOxVXxFV7soHB4EhIHHxqVSqGC/pdLuQemp6ijv+SGNwkYlKeS8p+auKUWQHn3moJYDPRBAGjGv6GHrhGngc/hd+vjD0QQpBBDHnScLOiCj/UwkLW/2Wlyq1pC3/iicJWjjwFH48hQFyCILYQ64MXV83+ptrPrulrObkaBibMUtsXRREJMWUYaDIjduuABlM7gIpEJ1VABHANojKsO9C8o5eGsbJtq3NLHfWet7mlU3UmmGQBgkWkXdgAWeXAGnKjQnumo0KKBOMwYq9qr9l9ddjf1kPr296q1dveB/4wAcxxt6Y+X+On56/6945zu9dvbCx1kNURa82KxgzEViX7WMhc0LKojQbvYWocUQjQ25HdmXDrV4xrCDq6mlUtcGh0FNlOGlihRFFym13IvNrutHIbKAd1G+xeWT0MlFsJXpg0yhGtA6kKQ6DKCgsoaJrYabdziOjuxHevI6RmmvrO8sDv+vkZhT29MSr2fn0VGN2oXZuo/Ufj9qPXFm7tuEN/BBdV7SqIMPF6Ej68NqHI6JYsaFdaHmqIbQWPEX+FNSn2aQ5pU0RJjGRDYFjz68YgkXUhh9fAxIaWMVB/g7VZ67z1LgnyaheqFKT1HkWzEZyKZqWkqimVp6qvXkt+RJm6NjzkMLd7pKS8l59RLuZo6yZ046avtCwXn5/adouGespBmeMNiCbaUTozAPGsdcj7fENDYtF/laK2A2yJq6ZtPX+fEs/dRpNgW6c6IAWEah+nNQDb2nGuu8V8+XZyk5m9K5H1F96GQaQ8vBEuny6lS/dN1udaw6sWgQk48VaLAiRqWWlPHXN3HYQFTUj0766k/7f85xT04KunQYhkJGFKjlDP1a3Hmg6zSg980TgTAbzL7Xjtnuhq6+tBt7FQS2Jzkxbx0/as6cbtTYHOfVOmFzpBFdueJc/2U924jk3QIefO21GjrsRxG2z9IX1M3edcs2mc3N18In/js9/zPN8DRVngDBVO1+omacQ0qsDKTp5UKKoedne6qcXLvVv3Ig31nLPp+ZGbqLiDKEeE2O/btY7kd28y03aU9PWVJu232uZ3V6kHot23nsz/jumwJgCYwqMKTCmwJgCYwocTgHOPjWrtelGa7LRauxs9AMPXbSo1QhlBxCsmttP2FcQVUYaBgW1FbsMtMOjWvKx/GN/wJkWcJrlzurjaxfOb1xGpGYQ+FhvlCMyrPwNCw3IE7XmTHOiXWuit/fwsnzKGxJX1inYUHPkDqUUbI0RqfnHf/xHwi0uLg5D/97v/R7mYdQj+sBhN6tdMNIGv/3bv40SM4yEwz0Yhj+iA5MVmEa/ePEiNkpJ853vfKfaWj5tdER8CKm42z/+4z8O3/mIEZ825aE0wxiqeVpa3WkA+hhRDoNqYOYMxbZumTJACKyYIevmlmFgA7zjHe9ALgeBrdtDNbQvUA0HRkkH+R7U09GF6Fc8Pv7442SEA0sz3IfgwbBLKLgFxgVvj36BtSgJGHhTABhEhLWF9jNUooEYcSAYDgl7/1/7tV/jc1DJwteC46TcfCaPPfYY8jfKpsst84U42AMefYUpHQUsjXriHg32nHK0jiKmA9NPmfxB4uqBBx4YLSrEQVOO4vuN+j9bboZZyM71bCU4TuczQoExVPMZIfsLLFO06mthP+utpBsX0vUn043zebAFII4iMsOt6bVpo3UCqEavT+ear+fbORqA4MLBJ5RL3YtHVl4c+k1gLokFGjFRITICyEvDgIy1HGmbwh4ATEH5HUIlYV4SDO1DkQTRe/ClYL3qbks3y2K35gBUA3oBfAKjHLyE6Qp4gzUcwzfjFxjG6BoIHxB+QBTmFWZWkicuPkQHdCHKkKWoQoJtMMjiScrqLUf4AULwIRdyJKJKn8elpSVQFiV8DeJCeBInDMM34SkJpSIvwlMA0icdMuUMBZ44CIwPCSqIhTCkiSdxCUxqXIeQTCMFZkRCkjh3FYy4zHzkywqDUjGJkiBZPHfTxmHFe9b9qeOwmk+bOGQnDHd1KbeKBal2kyreDdPkiR4CxXCokDQTQNpg0AenoXFZ9HAH5mGTgLkaAnd7nFzpJBi9KC4iEh1/kflAqGIvHV7iVpdy9/u9SxcvLS/fBLpjUWIDzBQK0OgJCiBs0/fo+XdyFR9Okbz6PvkidxnykgofLtIiEZunju9tYmPFDwehhzH3JHNXB1YJLFDUTIFYIFMg/Pvin5BKqCXJ8or0lLgPQdFmpvLBk6xBOaxUK297pUYdrjHyNmHYs0sNUZ8IVIVxmlLdrTadcsN0KymiNgAnsef4225/Re+vhN5KFKxhbAQxsEce/3i5UTl9z6lqrV5tifGnTjfq7vjAFa0kr9TLKFGD0vwoFDxtQBAMhMgtQ/OXYZSa5vSZeHJ9I7wA4FrSEifV+J4t0XgVOm6tUp603InQKEeoOgvQUYW0RgHLxQaJIrGDdRyF1iSIq7DjBMIxEC6ykLFCyBjcLQgQy+pE0QDkJ4wHcRIgbtio2HML9fZCVSslRgml3ldXNpHZYPtqlIUGyHRIe8id/+qP3OkbQmv5ibu4y/uiesibIFIDymiZiWmSjdhylWbY/UF7PIIUtWgigPKUNj7SKVLdvUuq6nk3I5WVtKzKvSjQ8J08FeWRcuBUbknkmVz0FhArwI/PO1c7Cey+bYshn3pJVHvFsdSlbF7s59uXk34e+lgHC4AkAFfzeX1wf9O879zk5EIjBqfhhx6xJG4ExkzbXTgzGTcqbi+uNgezcxY60Gi/aTN/sKLde8o6+0ClcrKx7ZS2B9nWdW/QQRgsL6fRTB5M1oz2fAXVG6FtHdtM+rZnlpLuTcA6fcq1zizo0xOVVrMy6bjeZphX6Khxo5QNEM7yrUS3McuWIv9TzHMcCZAPRzdRymbY6DyzUkPstiXMgxx4oN3dzM3TSkmvzdSthrXZD1Dpd/ljydqTHDBFjtRCSM2185mSfm7CnjhRoedLg+pazzCvLAcrW4G5EkF+9VEiheM6ScnNqyVrxjbPmu4DJ8tTi5P2VFsHqtkD3oaN9Om12zCZsWNMgTEFxhQYU2BMgTEFPicowFGoerk63Zw4OTO7Pehc21iJMcJYCOVzkmanM3gyueqHAceZtr2d4+05VkwlCylp4T6lWYJdxy1v5/r28qWtq+c3L97YXusFnlipEUM17IQ013KPNSePTx6bbU22qjUUIB+RrJgGUUxneMewtn/u535uNKJS/YQP9lH+6q/+aviKTdYf//EfY24dH+yuc0fbBFvjYYCjOGCFs0NnOwTcgiY0HsFI4MmiDIpNylFSgMdN4RFT+Mmf/EnFQzhKrNuHgZrK7Ac8BFgKtw88fntHFGAjDzRCFGi7LyIMFlA6WAT7/IePvAV3UZDD7QGSn/iJn4BdQMSn7RKIyLz3ve+lA5MsAA9Rhljj3/zN3/AI1wht+ThAcbhz8BfmDw4uhTndUZ/nI1La3mAfUcghq+T7v//7yZ0Kkh3iOz/90z8NzqRy4Q42A4rDwWXcQDXcX/rSlw7fHnTAreJzGPXno37f+9436oObvPYF2xfgeX5E/6HKETGjITSlfFCbxrAwpPzzXLBxdi8UChx1znuh1GdczmefAqyVwl66fiEBpFl9LOve1OI+h7R1u2rUjxkTS2b7lNFc0EvVHNsICD+CuKCtFpYmZ+mfumTJJYuvNOKIr4ZafaeRY8s7CzmaLlAQUjiITEeiG62wxwDbTyI8lcBhLgmGUrV+NriOuRrTndAQrPnUC0yCWYcVEsxx3vDInRmR6QSsgjuXisH8x0zDfEBgpl48ecW4r1CNYbChP4mo1BRgowIDmfDIvMjj8IiEKoOCRohOAJIlgAJI8AGz4a7gFlUqAigmPqXChzs+5IinKidpjhaJ6AcvFWAYbOhQIUmHHFXZ8FE1VSU5mNQL0We0vkUXlAYdrQieCnHBwVqKZQ2X8iEYDsAVrgQGN5YqhGEsepEITPfgUmkSkuUIVgS5FkVV3fRrvug12BwiOO3VbrUAaS4VF4t+CkAsLqKTFwgBFxmRSFEWMZsBgrPX9/O11dX3v/99//3fH7558wbRaSzpOYZx8sTJV7/6VQ9h4qiEsfs7gGqAGorvqigE2QiGIUIXQpbiFRInwSDytz1/tRNsB5QuFZueJvzr/kYACeh3UQxiI9Y+8gL7kxv/hboiMgdLH7sfRXrqD0vL4mVhY0SgIL7yNAt8BIYiDxgj6TnxwHTKjltF41mp3rbAgE0X6QZIYUaD2mDdGaxp/Zv9/upKf2PN2+5nQZT6ydbF6vnaf3zgTBqVz77kRN9PVjb8rc0+aAwISitJ0dUmutioI30dLEiqqooJjGKWalPzZ1694ztrvajb87uBjwwCBlwIyRdZLU0caz6UtB9I7GZEm2DgJBG0U+oaC5oCyiZNVZiyFzkGzYjQahWmYb+vp2bspb0+sjao4A6zxEtSC91sgyjsD8JmktbrzrFG6VWTeaWWdtdWoy6KCM0+LHuIWhiZpzHkJ+Iy0kZioEa1keQvhN5tRBygT1kCEIMpJFEXjno3E/Mlmieyh8gwiolXCQ8xUYCWEhKRLNj1VIUmwpub5CU9QKRpij+SNRkWmcg76Z9Snl20png6eJO4UtjirzieejgY+FY+RKSNJqr2/aca0bGKxvYGshbYJCWV4tE2m9HHs8HNLXSc9dMwM6oVx9BOmoP76qX7lxozdx2jgxU/vtXMypKSbVQaJd80Jw3rzKnce1WwNJcY296soz94Yn7xZG1iaUZv1VrQcTk8H4dXN5Mo0BtR4mQ7M8dLM9MLrVPTQIbliSh0rGMT3uZU5O7oZ7Ty3YvlpdPTUbvtR8ZGbFzta9FKdvWTiVeNr/WNTteKvMZmWtpZzZ8MzNaGX6qmEB3tbVt+ut1F/54bhwjZOPVUa+SIdOmDLPVL0VX0pnl5fzs9v+ZuPG72bqJiGA0g2LAxTDttW9lcxZqbqZYm636arQXp8k6y1tNWN7PtDu0rHyCdsWUFp6vh2Vnr7JnWwkJzcmJqYrI0MVGyayWav6C9NLVqYNVed9pYt2rAsd+YAmMKjCkwpsCYAmMKfE5QgJW1azvtWmNxZm570O14fS8ORI0G+5lUA6KJsg7sABaF/dDb6nemahNIySiTM8jfeBHnwbav79y83lle7q3u9PuoHsd0IAfhWG2ydK2VKiemZk/NzE/UmyVHNuxHJCsn9AnJDveLvuiL2G3hUMgNp9wwAw5TmEfO+P/Lv/yLCoZ1DUxcfPjDH8ZwOmrQuP7zP/+TVyA91PFpM2UTh0QOx+ThfXMuD4Y4OaK14jd/8ze/7/u+Dz4+9kje9KY3oeLpC77gC542NQJ8+Zd/Oco/KO1RAh8lzIc+9CGl6uorv/IrjxJ+HOboFEBURQXex4vHk44BIHGbpBQ0wu6eMJz6PRgSzfnKU+E04IhKbOVgyKHPy172MuXG7j2nSHFzeJQ73Aa6KI4v/uIvhg0FiKgs6HzFV3yFCs9dqQ1U4Yee8AuG7n0O7K8osJME+YhGKcAn8DM/8zPkgqIzoCMVEVgICPOHfuiHQCnAVEAyyBFmCG9vD9Xsy/cF8QiCpcAkbBGNUkYVXlmTYpR4QdRlXMjPFAXGUM1nivKf/fkKPzVnyeV3su1ryfKj6fr5dOcqgIperhnVtlGfMVrHzYnTRvO4Xp3SOKXsr3DGF2EXMVQD67ngPu/Wk0FeONxw+iJU9YuVY6OKChpNizCorJuRaC3D/AwnzOXUeQyiU+A9HB84dHrYo2BRTpShRds5v0yOFe+7WKUxFzJFwXOnTmrVxfSJg6kFVAZ+usInWAXCB+c6yskXAsM35xrNjjS5DqIdeJIX/oAuChJg0iWX0YwoGwGYsVBHxiJSTV34MNupjIjLNZrdUdy3WdoWhYXzLsZ1jpLUiy8MEAvSqQgVQXCWSqxpHnnkEbWcpe8hJYMIPEsWtI8tLS1x+mO4fKGx6ELcFU1oMqSMaSzUrZ48eYqTNXNzs7zsD3qXr1y+cP78Rz7ykZGU5dsiIne6gUqH5mbavnTpIue/Ri3UcQiF02Ef/ehHWdZQSHoR7UUXBVa6++67Aj8Aijh6u+yy+5/6rlT5BQ4QPjwX9qT8OEKSZmsAWhP0IwQUEHtD/1IuVqjSYCdCK5qJIjQ0MAHVsHGihwmmwJcnmICgMlj3YGsjn6K85Ua+hWyNSHgwMCAl0N2KBp0kHACBgSZYotANq0y1NvI0dqmmWw7jBHZgjNi3g22nv4w8TX+wtjXYWB9s99LQLVURtWAkGXQHj33yvGHWkVHIDJaeHhZrTJ2dYWo5aKhCiAVETUNaR0AmpXkB8AKDJCaZlNvHFqd3vPrNG1uwx3sbCBNhtAZ9W5bTKDVO21Pn7Nbx1LDZb5owwC3QN5F9KQC7QqtbIbFDNQUBwlhImA66DHEiKUgR/L4PIocUBWiDjRUUsbBVBh01KyWz4lTregXxlyntxlSQrvpPeFYnRdoig+AieAH1ilYpEpa+UnQacDCoyzuehb60nMj3ZLmTZ2XLrKKNwjTAVQKQMFA/sIoChsOHCPS0OMPcPZaT9D3DSWpYllaSxHZ7UvFQuIuGpXMUuQ3f7wZ79v+QMYI1FcCVlpNr/KR/Fl3rqbxuakGpkSDdJQSRtgUx1Fp6POPaCNAcm+FomOrVo7WQkwMtM59pObPHXSPxODfQoMWa1Y5bG/TM1AceSa4vh1eWo6urSejrNUAgMD7+34wnLEyymd0wsdOsXcqzZloy8mnNEq2TtZJnO51BuhlqG4ntBba5pQeDfMtL/QCrOTbJoN2jl2qbUew4AtVgxmYQ52i8C0PAeCfOdJntuoYV5qGRV9I8sKMEtX8NreSY9ZZZG/BVop9PhKek9S0DWMfDUlOkr67E19bCixvhxavexhrmoKgmYjt51YzmSvG9k/FLjpt3nbamTlSNdsOuODbExZBR0SWeIujQtdf8Q4+xY0yBMQXGFBhTYEyBMQXGFLglBYologagcvrY8Z7v3dha2/G7HFBS8IysUnMdBb9X15c3e50nV64SslpCDZpsnFGU5mHnMfaR4fcSNr0BIE0a5fAARPqdpZ1htyqNs3Mnz8yeIOLuVuOW5fhUT+QJLhbn9EFlij29qYQJWAOz7SUs1iNgK6tdNnAImA2qq37gB37gO7/zO3mL2jGsR8Dmxj2qTGk0E/ZuyuoG6M5P/dRPAYQoTroKw45PRSTxX/3VXyVl+PXsNEn5wQcf5PEg33Y0ceU+iNNcuHBBvbrNvn6YjmIEDx//7M/+TLlR2z70/OxxsO/+9m//9iOWZ2+TfsTgz3kwdujkwfZ8aWlJZaZkWXDTiL/wC78AA+qwQqBdHzBDdR6EsQ4GG0p90ZMRTAFEPBhmnw9aYUiWrwBrSQrpUbwLYAOV0Vd91VcRBc1+KuKwS1Bs9eEovTLDZJUuQR73dTxSU18WdaefLy4uDqMox6OPPopszdDzS7/0S3mEVfL2t78dnAYIEykcxYBCGclBTtQQphqm8Dw71Df+zDIFnUIvHHFBpw72bcYiGoi3J0+efGbpj2N9jlDgU7jMnyN1HlfzSBQQLnLMKfrk5qPp6hPp5sVssAkMo5db5uSSObVoTC4iVaOXmmKrxnLzpJPHgCVbrLOEpSQczILBp5hm6g5rO8uxR6HFHPC2NQdshuWYp3FYnXPRpSyPo0K2pqdF3TzsablPKeDHFWxESn04J0nkdTiKo7hZ++sHTsP6BvY3jHjmFSYJQjBxAntwhIEFE1qqkKTZH+05eGZoJl+KwcTMpMvwDdt9OPMJnzzLWMzBnb9x4wbLLHwoGHquMNGGwDJRhoGfg9K9CJOU/rO3thgl3dAfZOWDH/wgIArHOnCz/gO5gfgEJgw+KHJlNmX99Pmf//nf8i3fsq+fEEyFJBZrIDTDcgKLgyHohAXXQeQCkIZDWyzlWaaTBcsOlTW7BZqerqjalEQAilghEYDCIAQ2LCG9hfLQKxDTIXCB1rmsilj/sfaqN+qkc/SWK+AY+Y74L0xu9WkVmYkPllyCNO2F+WY/2x6gzisQOQw4/ihoggNsAKvwyQJFsJtCtAd9W7CO+aZBXwqDU3CCxcpHLlBN8f3zSgRCtCRDZI7eDUaCMIrm+fqNS153FRDVcvQm5uCr9clae6rWnLKcKtgTgdEoZoSDir9V8lby/vXBYH3Z6274ve1wYDvu/OSJRqUFVJPp9s2V62FuBig1rE7sbPlRGGxvYUI+bU000EGXAPmIFE8mhunRLcb+T6AaVeccubjJ6en5xZf5aWP1xsVBD2GNxClVa82FibmTU8cW6qJmKgnCAEEUACWoJjiNkFDGNwiIsJtkUAxuYRT1e4Ogh1Eb3TXMcICYTl513Fxr16uoU5utNGcbC/P1+Sm77GZBJ1292e5cfXVrs3XcK29Vn+gbW2HuJTn2WmQ7KXIt3KEqAypUJFuoDzhTQGJURDqpmO7Cugpm4muW0bSMClB5iixYEgLgyCUa54ojjtCfUgIiISeogx1RdJoKCSgZZAtxo72ORF6CPMmdHoJD7oKb7A3FewGfy79CY3WRtZRk7xG6oL8O8RGgQcpUlB5K4Jb/BOV/QSzuhb+UHzinatAoeqiZO6ERbuWrfnohTPLLgzACnMzSKOwMsuUdvTsw6Hrrsb6aNh/1spnuWq2xA/xu2gBuYgGoF2auDywTW6W47iWdINnopNsDzTPLYRnbNi5Yn66nhp7kJj0NxXQZKtpQ+eHypRa22tCTFxs6Ct1oUZA1S09RfQbCFusupxgahrbQcCpnpxpOc2s6tz/p3/jYdudagh2dPNb6pn1dN6704uXL/Y++b/Pa4/1BH9E0PlWdr5PkXCOeNb3TtXRpvjwzz7mK8k5sdtci107mKlkTNK9e1h0mwYJMBVmFaEPqjh1jCowpMKbAmAJjCowpMKbAESjA4gyJ+NnWVPfY4NrmSpiE671txGVYpqnVGLqCO4O4FwzYwoiVTSxsokGd5WyG9UTUpSWsXFiqok1ADmqilQOVFrletktT9fbSzPzpYwtzE9NltzS6Crx9uf78z/+cAGT3dV/3daMh2XmxrfuxH/sxdlvKf2lpiTP+SpqBM3aYQMdsO4wC1KCpAEi3jKYwdKPTTAEGnKLjUv7wmtkqIg2DddhhSBQcIVuDlI8CSzjVh7l1rOAMA9zGAev8F3/xF6kIxzrZJAIIEZjH27B3qTsH/igJXHKVMiwOTPUovvAXfuEX3hIPuE0ZnrdX+7Cl5y3fTz8j9vgkQtOzJYT+9B/Y9CpZuhzg3MEs2I3BfMCfs5j/8A//oALQUgdDKvs37Pd/6Zd+6fjx4wcD3NIHEa53vetd8Jp4C8dANbpSUwb3AKMp8MRUIRHzQrDjbW97G0wGFZ4oqODjDmcDKIX+Nvxe9hWAV0jM/OiP/ihlu2WfBIDBJg28kYceeuitb33rmTNnVGkBMpHuouL0VeWj0CPlBjqFZ0LifCz4HMQsVbDn4s5nglwdnBa+OAYlZYCHjG4p8HRYAThWCz6n7ABRCwBahRDDyVGmehg6aHcFFe8zYHNYmmP/z1kK3AGP73OWRp9zFYdfy8mWsA9Ok25cSm58AqkagBP0EemNY0Zrzpw+a06cQqRGLzfFvIRw7+BURnnU4QdkUnDMCkaQcPeElSYXd9xwBZM4DwJR1FJuirIb1mtGzDlvYRraMBIjzalrYV2zOlo80FB2i5I0wWBEN9qhbSHMV6woq8LsD4VUDcMiaynWAcA2anBkFIbtzkDMiKw0RcLy5oJ7jieCL8y1OJh3uRhq8cfB5Mor5jNeKU+mQPIDgCEX5UmCvCI6gdWdACowweDFo7KTSYhgSPOwnOIVgzhxWZNRSA4vACzhYKwnRwpMqZgdlYwkwYayQVKy4iJ9/EcLjDee+JAyJSQLFZEC4KkKo2pEsUmQiyiExJMoXET/XLggL8AYNt+QnoHmNAGkoOFU3XlkgQvEQjNBnNe//vXKHzfTNhAaSxNSYPYlJCmwyqFx6WwQUKCaJKEpETcGfaHdIT5EBoYh7tLi0rGZY7V6jUUM0VmCq/6Jm76hmk/lBQYgLct3UujTo68SnYsjM6zqJtoTFOYOW0qABj4mtj27nxSyMXyfBTsegzTIaBgY0AAc4HMEuMCRYnNDR5bHalluHX0HeRiBOCKjphliZANrgaL1TGlDQyREo7thY0RyEWEaXqZANTEJikRImuphRGrZ3Gw1D2c6G0vwyrVS0xBDUzZoSpJIlfU4NDHgPlhB79lgsLrlba/73k40QMFY3Swfr7WmGrNBZm4H0c3udrK52lperzc0f9DDgEmaxqWqie6FcpwlqP2ScvDFIksj4ioCgsDtp1Z65rhmrVGfnkV5Wh5FuWHVGWpK5WprYqE1MVutVRFAYXQDdbMKiklUxdaWL0zcACnYbgfpMBFg0UGiUQMZZmEOgJ3EYDe9IO6hGs2P3W4Qbw/8zd52eZPIRind1JYvuJvXT8D1b2ZXI2090bewC5ZkbEllbpavUMR19vKU5pKWkn/4F4+QF5Qhjp2M5biJkRQLrX0RJxXDgRdhLwWMIoEI/CJ+WHBFARqDJXogRZVbkR53GZ3l395WeNcpI65UW95Lf5G/PBW+u47i6dm/AS9BSbTY0RlQ3KZAKypNCWUIH2BMScqC3jk6GSN1X7PRIAetK/1AKgKgJeiSKH1DfVoJPXgmnZq46fL15PKl3L9hRJ4RM2UZiT/I0K5O86PKLsotABZwE6CxblZa99MrW5FtRUwApbLZRNzLNSPLtANjsJUgCHOyF9kzadvMp6pWOF1G9Z5RN4NMQzBGZDhTAS4dM605equilytgbJqP0GnAcQVmDeTGQHMy18hqtm6XmMHMetVuNZzpiXJrtqE3movVdCvN1x5HVyhfBIoYtU5kXNuJNiPv8hXto//VXT0/QAEeIltOwzYr0qT0bz49L8VyjZt0HL6o2EgQk2s7iTkVlWZRgDZjCVTzKdewZT/Fd/wwpsCYAmMKjCkwpsCYAmMKHE4B27QaldrxydnPW7qHHevHrz2BXlYWVRzblJWi/GQByWOCOuCInansclimiao0FQBgJ2LHvytSw5a+VW285NTZBxfvOjk916rWyeLw/Pe/UUx/UBZ22fvesfVmT4cn2zpsmA/lCVQwIBZYz7Cn2ZThg9lwTMzuS0E9woMe+p89exZ4Bu4zZ/WGnqMONt2wzh9++OF3v/vdly5dQiXa6NvbuCmtYviOhkF7FUQe9Rl1c7wPZWtDH46EciBVKXPDE4788NVnlYOdLCQ6YpH+6I/+SHFyjhj+uQ7Glpws6APcgUOGmJMCb26ZO3wkhLFGXwGZ3JL38rVf+7UoWENj2B0ZNXnFK17x5je/+Q/+4A/IQgGHbKvhMPCo0EdgGJU7X4FyIOOiHK973esUtAOXbAjS8AqcDx6RCjO80/mVDaShz6iD71zpQCPYqD/u7/3e7+VLVCgXvZRMhwHgpSiQRvkMeS/DAM+dg3bh3O2+9LH9s++c7r4A+x4pvPpsEU4C/R2KKDHmoC9uNDBsnPvvv3/UZ+weU2AfBQ4d6/eFGz9+7lBAcBqOhW9dTa5/NF07n3WWYWoa9SmztWDOnDHaC6g7M8oNzS4X0AiEgTGGrDNqf7o5TElWW6y+4JOJFiQRr9klHX9lVQbUEOW9La08qTcWsKKNehgt8xF0Fp6nqBeqa86EVsaATYhRnDzc0YKtnB9uDaFoGL+kvP/CTLNuI98DdLR/FiEokx/ADEMkcwwsdSYelk0ss5j2WBww3zNbwF7nEQMzoPcw+JjPQEpg2TPNEIu4vGJtBLedkBxGgKEPz53AzNCE55wOLHs8CckJCLJjuOciEfj1lAEfArP4gxHP+QJwe8Z91k9E5xW5MIkycXJkhmUcsSgYgztZE0WhKZSTjMiCsuFDAN5SNS6i40N2JEIhqR0Xhae0BAPjIQtekRQlx1NVB3/isqqjRlwkwpKUarK0xX8/iV+Yz1TqlgUf+kM36s66CiiFFoRKCqeB1ERUd8LQbbhwqNToKkAshITmrKSRfVZLfx6hMHdaWe0QSBMfRGhpODKldegen//5X/DqV3/R3ffc22o2CEZHAqfhInHSVJk+VWyeKYxo3ZJuTKuxGWBqZ+lwzz33HDs249yJTjyplbCw1VekGODqC1WyayAYfC+mWy3D3DcC2PqJyMWwg/Izp65PnCq5kxbG03d2+jcubQZeXG6VERARHrNpIBrH9sFytAJ4lTFAyo2AAYgsqsNsw0TSINXhHZdqRq1RWji+sLVav/5k+9rVzWsrvf4gyoyu4YBy2EaaVhLPDrf1/k2vd3Pd39kIejuoe0tDW8talnHStSYccyXUe/KFgrCC/QSG1k8TSI3qLz0Iy2EUR3HCgT5a0sxg8xuZgSEYvhfhmPPjL2f7Sq7ZapRmphpJMF0tOSAdjuM2msA0qF9AFwPfHV+oWIqi+QA4iC87TO4Qsxj8SMwytRhF2iW0dmMEBpGJHFVkXp5sDVbXt6/ALe/49SDWBiH62ZY3LlTPTNvTzqA8uGGFW6BY6HlAJqbKEMhJQ1HrlVg0BE9m0YHJUMBcsi3aT+hKQ0lg6ckZ1nAGMYiUUYZuyHKAVfV3Bt2dsKQhC6TFdhxZaWhmkZ/5tGlCrJwC734bCvMpeoGorpOeJ/1DvZW+xyONWdirUd+TvFKdcjcJiTN6FYnspT/64mhucBqQjF6UbXZCvx/qQWxi6oe8kV+yjbXNtL8ZoLCMxjPobJzCzLRlrXwlcia2gmylk6K6DHyHEvInTmpla+ZYVSvbW3F2ddn/xIe8Rz8axz0L7E6v0F+hrIk5pjwGpIfoxTlQ6fQiMZYmRkhj0lmYmnr6xpZgk7pTxhDQ9ZXUNoJXdaK7jOyLp+0Tsfvh9fLNOtCmvuOlCMDQ3KLgE7EqK29XjLkJu9pwyBOIM2Vm08Hm6T3AhVnJyCarTrlpoRZkpmlMzlabM2VM8FSrdlszG23aKkMvHiVOEvZaqX9Zu9Azb143tlfBlXWnZiPaaiLGRZHzDM2By1p1a8d45PGSfQWtfeCMceT552r9mTPd6fvqTruuNyoyCnBJC/Jf3NLqyoM/42tMgTEFxhQYU2BMgTEFxhR4OgqwLnYNZ7LePDt7EhuO24OdIA46QZcVOws3WXGzpxQXPAD5J0tZzm2JfHixqBQ7tnIyM4/ZLqAL2W2V66dnj99/8uxd86cm662SfWcn0pBEgUP6hje84WDB2b4hNwODGOsR7IUPBmBvxbF6DM+w6b6NsikOUL7xjW9cWlqCJ37LdA6mDFsW8RqsqY/CPAeDjfqw70AV25CHDt8AnOb2vN2HH36YTSiJ0Cgc2Fd62MAM0DeFnA1sh9H0ny03ySqJEDZJd5ombBCAARSHfPM3f/MR46JfDlaJAkiOGOU5DYbFeDg8YC3k8q3f+q2c/qRfYzCGtjgsX/b+WIihFnAA2NfTUqNYxWgs2DL7QJ3hWxAOSDdEAob+ykH/p7cgtqJEZOhLf/qnf0rP5yApAejniMLQJVR04Mlr167RcygJ5VEpwEGiagrggelBlH1ZHOUReSCugyEh0c///M/DDaM1kbBRI4EKhjCcalyYHgBgh3V4eh2F59yqigWheDwMWx0tgIp4SzEgUkMAqNj5Sgw+bb4gBcKNprDPDaFgyKjw3MG0SISv9Z3vfCevhoHhF9E9aHQ+E2iCvhyg4tGKD0OOHWMKDClwx0PqMObY8aKlQBxk3ZV08zIiNVl/Q+MUcaVtTqH0bMngV5/W7bI2eryFk8OcDU590BQt8WQFJsxYTKrgz094QAUjSLh78hhFWX9Hr3ZN9L6YNSP3hOkpbCNYoMLlFQkbhi541izynHbutDW7qUU7egrn0xepnUwwmz1OE9xNW3eaRmVWL01rku/+i4GSQZ8ZCD44THmwCoZLpjcGdDzhpLOgYdzEk/kJUQkKgyyFQi8oCBcDLmM60AjRQfvBVODp40l4BcYoFVWw41kFwtNnDsYfNj08erVmYjJGtho3YhZcSGCwLlGAEMmSI7EoCRIe3JlseEvi+LNYpNi8BQ2i5MAtlIF0KBX1IiOiUxiyxpM7UagLswuxKACOxcVFcicFJdBDwQigakrFyQ5/PFUUkiVBAuwn4ovxGVrR6MzZzJfMmpALokFMLl5xFZWGJPzVFRkVGYhFAxGM1hEDK7XahYsXNjc2aW4aiFU1lwrJnXSKrjUBzaenp86du4tZ/MEHH2KNVa/VypUyzXrlylXaSLX1bsQiU25kzwKLRqG56XIzM8eWlhbvu+/+M2dOz87OVapY5njmF+kr/ixJCBDAFqqotQn44WLGycHCJxIlSKxZdasyaZWmjMSNV1a3r1/ZuvrEhtePyi3XLjuCY5gALJll5ZaDbEqhWEuQBDEkYiEugLotYA6Y69I9TadsoK26PuVSva11y1hGEmWn2w+dvOFWa45bd7LYCTuGt4GkWdfb3A79ThR6iez6Sm6tSgCwizgY+EEf2ZkktrMqFtmTyPS9LRAaq1RBJxjgRVEf2rH4CUm5oKjgXuwS2TwiCuOWrHrNbTergYf+MLFtQxFrNeAqECBqRhhBaWgCvgxl6UNIVQxmCjBBtMN19DRxarXSTtkD7osRqrAQdGEvii4HBFw6vaDnR2m3v7m+VlqpO2sT9kIlnzSjion8jYUAxGZo+oBKoFrI6IhplaJpyIcBlmoX/UFVoGgjsAQkhQplZ0AVqDVzrFKr6rbrCArF6JSk+ggnIdskfZpGRHAkC4MkiDC4whaOXCCCpMvoWwCzIGu7BFK57N73iLabtRRweFHG4dNh7mHgO3AMknw5SK6vBVefQCOhb8apWRjdAbhCQut6L1u/kQQ7YJ+aVaIdOVygLWe1R7tW8kTcxpIR236BanS6rhbG823z5felzWOl3LSgie/n9Go6I3A2fdW0AfFkMkkSAB4qJOAJSBtTjMiKQSpyVZSiBngCDQnWl9e0qKllZfSq2aZRsrbLHE3IUbiOEo/QBz0r+BFFIya5EWW6F+U6+gR1nVaOsDAlQ3Xx8QG0a+YgA0nTozjUyzkyQOVaCRkpCmmXDbNEbqhuFyWD9OcQPWlB2tmO+juGHkWulZUbjkU3ovByibrCQeZ2PaZWehLIk0iWIWbltAe9Vi8dmBngJc0lF82nWpD7rpd6Mb6PKTCmwJgCYwqMKTCmwJgCR6RAyXbn2lMoQFvprg9iL9wIQz8UPIaVVLGILRbfxaJDQBr5IekOnwBtGgly7b7Goqzmluda0/fML929sHjP8aXZ9lT5To6jqaKyWEfL2WHFhqWuuOqHBaCct1RatS88YM8+n6d9JOWj4zQqtaPLmqjwiC8gr3CwJHCcuQ76Pys+ZIp9+GeWFAjN0UEalQWCGs8sr+coFs06lE35huI6SkbveMc7jhLsNmFAYrhuEwA+A0I5owHQ0D58BHoZoi9wQriGr4YO1LkP3c+FA2iEa1/KFHK0nPveDh//Z3ENH8EjEbcaPt7GwZd72McLOIRc3W3i3vIV7J33vOc9o6+AiukVoz7K/Za3vOWg59hnTIHbUOBzgiF7m/qPXx2kAKrP0vUL6fpFGEJGbdqcPm1MnjSb83p1Unc5Z+7K2mr0Qv0MCArKyoBqOBgD1oIiILQFmeg84kz6HgMItlTBm8KkuNbfzmtdDgqLnW2toaWmlqJSDFaTsMaKdVyhoMesapwqrszndfTFdDPMC/jrub+qhTt5ypkRzl5zztoFp9Er80ZtyaguYLV7tGjKDQgBAAOqwQVbHAEI2OL33XcfHHaOG/AI31ZJTjDagt7DokN6EUSEYKQA8x2+PAdnYLgjhQpOQwDFN+cYhcJmgF7UuQMe0WCmMgLsAQghOvUmJGdwGLhh4qMjC1kW8H/uvCUwAUhWoSbkwlkMcB2CkSZl4y0YAG5kNQCKgFWIhQ9lANRhXsEHLj/IAWgNrxQSQyyqAHMf0VdKpRIHsOEiGOUBn6B2gEMUg5qSI6tbUiMwFDtIxheZD/ShHUHsHn74YY4/0DG4oAwXDgV60We5aDWAiIWF43Nz80XnxEewPeJCW04S0Tcef/wxTFA+BOdyegAAQABJREFU8olHOC6heoIiF7kQHWrfc8+9LP0JefbsOYXDQWd4sfVa49577//2b3eXl292ux2yLrY1xCYi6CU2MqRRaCDCl8A3bAdxj/bEBP0HlEjlcvS7cGSLSu1+lmohURxxE/ShoAk8ZvocFaxXqhrCDGyhylpjtuK0TcTdVlc2/+uDFy48sd7ZRAtaYtgi8CHJCgwLqIC9DCm5UI1P2cyRc0MtFyx1C+SjRG3cUtmu1M1a3W3Wa4Pt8MkrKxev3byxfMML9Vp+omFYiBOUstgabIS9lU1veyvs95M0zOBVZ+BCjfq8W5ncjoxNf+vi9s0N8AezYjpu6PVR3dbZXg/TvGZg+QrQF3a8yEZQnkLYrNgyigY0VKEVhlqk2LrjOpWy4D/8QIgi7N6gGNqxXddx2SNWSg56uOGcQ3oHOTapnVSW0gAZU1MwKgsVW0ip5O12ZXujB8O92/eR4yHMVGsyjNsdb7PbR/nZYNO0rxn6k7bxkbKJerVTjel2pW04lc2s+oRnrSGRqOdlS7Rm0UDSEOSigQ6oWlB+1X4CVFMDcMUQHWtpDBJWmWy27j5VO7WQTTQiLwetdUWmBgWIgqJR4pRwIQrQIrE8L2UWhW1AU2RJy9H6krQAFfQm+V/QRly0pPhwG31ZhFA3uk3xnhFe1I5xSX4CehQXLwtP9XTLu6Swm5G83wrT/1gPPvLxzif/cX3rcmC6aBwzDRtIBX18CbomewnmeZgrdKdCVuz0jeWktrVqPdpFmMkrsCnALlO0+fnBAye0Y7rfNBrNmYljE8783XZomq0orBmpXc5sU7OzFING3djwEh2BLLAOTNIg55jHueVaVXSkV9DxJ7rUmLP8JN6KgkrP+7y6/9KlykLbTt3Siq4/sZN+7BP98x/vGKaYqYnEqBMUMND00Ukcv5Ov+aFlRuBiyAAFaFrD6E1q6qJrzd7JtMG2bWylmterL+TJybK0Dd8SStKw25SKQ3UIAY4qrtMu1XMrDNLSRqxFmdW0kfvyUReKvBQoEyUVs1KGqH4nf5siiDiZiWLOqmNWHBEkkvYsmlW1hzTX0zWSCjm+jykwpsCYAmMKjCkwpsCYAp9KAQ411czKRK05g76JWhPAph9xzqnYC7DC2F2AyxZHfmqFyPqQrX/KiRgLofa6W5tpTizOzN93/PTSseMAPxxn+9RMxk9jCowpMKbAZzsFio3zZ3shx+V7QVBgDNW8IJrp+S2k8FhhPdZBZXTkaWbvMtvHcaBK/5blgFGWJwPRfpZ4wkB0GsIbtWFJRcKyU2Y/4ATJD4YTp4NjLennfi+PkY8hrxqrNuH1wfhUatDQhMZRfGRrUMAvEjbCfOLIje5OImGT240czCYZCKOU9K2KXpo0KpRwXnNat1SABnuYCyQDnKOQb2jD9eaCP4jWKQRi4HrDtQfYAOfADWwD9ALTXEE1xELeAswDZi3ABqAIAAmgDhALIWHNE5EwsPjhbgurHW1IlkVS+JApYRSOAl25gFjIC969SoGQgDHEIjzQDjgKr0gfNVlw/AEMwFHInaISBnEc0kRCiHQQsuEt6VMqJQCEPz4gT7wlWRi0Si0bNaLWAEgkDtOf8lAGlREhgXDIgroQHrSGXCjeLRv6BeQJubio3W3KTACox0V96R60tYKpoANgTYJFJbnos6QjQiN0mKEMLynjCdG4AGyQJqbByqXy5MQkoCCkpl+BnxGIWNPTM4unTt1z770PPvDgy17+cgKQGo2uyob6MshOG9111znaUfrPbrGl/LtQTblEIfu9PtgIJ/ct20FVHz+qJyzW21Ty1q8kHhG5w1lXiewGBKqBIBgJQSoB2ycc6LftqBxrZa08baBHa3l168knli9fWFm9iZ4xMYYkmp5EakPIiBJqROHgZ0vqUjJGAmCBAq3BDE3JRELPciynZJYqUM+pVcvhILl5mQ9oO8kGhulgJwf+soWAQ+TF/fVBf70T9LtxHEq60i2FYW+B3JZueoEfbt3srnWjwLDrpuOsrV9GD9TW9pbhVFu4KtUSYIuDnI8wpSE5/1DGJg6RkmGQEwyBwaaUIQ2DbFMNBBMkJgoCWof+ACTGr1KlkQHFAMzIBNSH1KRTSKULBjpbTIRvLBtACrGn8sRktdmqYP69XHFLZqvdPutWovXe6s5gexB00H6Nqsdtw1jp6auVaDOsNWptJIwGenk9McCrXZF3gdGuWogsCsusUBPWPXepStF2AqqBu4QeIIBt1CamZpbm515yaurkMeClaj85GaW1aTTC6fDnayW3aTotzS15+Ylquz7rlGsizyTYGhmobi4dqcii+G5wqefd3ii7akFh1OZaAh523apHSomL1A+LtM+/H2aXNuPHr/iPPjLYvBg6Ddeq2LS8SIwEIYJPHBhA3MSq4YmhFrqe7mduf2CubqH/iy6Ezjrpv+gCyzy/BrSzGhiLRjVvzbdLD95XadVScye20E5m6m6eVJMQ4Cqt1WLLReSFvgxUI3JJ6AAsW9Z0GVgs3EYiiS4o3seiYHome4XWPneq0Z6q+JYxSHMkgTDAZseJ5RiJhV0cwUvkKxABs9zSsViTAwuhuI6WRAwoKYCn3QD0CiN3tMx2xKoN2gQzDjuIsCk4lPx2aS8Ao449mqmaVWlUvLYW17JBP96pOJ1QD33RXUr/poOYaYyJJQ5CZIaBKjmM9MAZAUMyHCRQBb+T9th3ydewz2v8OKbAmAJjCowpMKbAmAJjChyVAmxvyk6p6pYRsimkg1lQy9pCFhisA1mKFFZleeSUDeLFWmq4ul2r1mZqEwsTx9B7dnxyZqY12arUUSp81FzH4cYUGFNgTIExBcYUeNFRYAzVvOia9NOukF5umHP3mZOLsqTC0nG5IUeXzVvYgNnNCu4qOE3UQTUZrCAdRWQo/e8jMdPHeMKnStXAchLmk/B2w34eYNsmNNwKCzcYn5qGoIw6bANOA08L2Z1iZQeTkpWd4+pWTSvN5NVTgvTEPXhysvazyihJw6SyZtUFpzmc2wQTHEAFlAKOPNAFMAYQBTgN/HF45ciRyHJS18FFADxgpiME85rXvAbP97///XDeUeKJG/47OApqK9GHRmAQnYsXL8KaJzrQC8lyAZMAqMB+xhMZHbjwyg4KnpQBT4GJarWlpSVY/ChhA2tRAIkwvvcuaIs/sAqJUySCwVClzEA4r3zlK3lLYRC7oS64iQROg1JdHMBCxEJmSFUTvIdYpE8VKJgqJMgEiXMnEZAG/KkXF1ngI8zoF8UlDPWRughHWnrMbu3g70IryPtP//RPdAMQMiS4adnZ2TleCRteWOPyT8WybFTkYe5demWREnd5B8UgNbI18PaRzqHdP/nJT/7rv/4rHQYinzlz9rX/47V333N3swnQ02q3WlBblUDdSYLORq+gQTCWRNb7mKikTwB62v/7vvdxx710+vRrX/taAASRDdmrjpTyji7hvRNB5B+GaQjbXoy5Y7OdY/9ZBmyEUfS6JdrFrGR1Y+s/P/TE5fPrfi+sVdBeaBTB0T+V8JmDHCSZlQDYAPQoBEDUNQkQkEdiwSruQVP42R7iIgCzZErxYUOnKIcyNPqhZlcSo4pdDiMKkkGn39voDLY8tJuhHkGSAuRgoLCCKN/Ig5WkE4Q7vQj1Z4GOPZocNWhd9JZFsT01vdhu12am23Wxu+SwERSwBkRFhhV44iArGLZB6aHUXjBlJIOyshg2yRNwjigK2VeWyqVKGTNClVqtUquXUDRYKSHhRKNhfES+OCzdi7F70kA2BbVohdRHvVWenW8P7kp6UyECUFVHr5cWpq9XljevdvtbPQ+Bj7zkVGwTWSTd00rXQ9j36NNCbRxqycSSjyRYpFo0StHFKD0iHYWQhryRTa8ARZDdC/s9b7Uy0ZxZmj39eXefetmp+YUWwatx1jrTQNCOpKiyAyChmeXcSuP0uF+3XKM1VS9eCmwg3Vy6MfUgbbnT6JI7//mnuknR1YsiPdVbiPUcXVGcd3aS3jYSNCnADHrLLERqCsIjMULlkVtBLZw0gJQdKIOJgwKDRoBsIIJCd5RPA7jGMCJbC6zUtlLQnvzEhPP6BxqXps3HLmQba16M+FGYOmk013ZPPNBqHGuBiRU1B8UsZGgMbcsyVjeC6x9LvG4Wu3a9nNxX6y217VMn752Ya5emGwBsRpK3HP2Bk/YJLMZMWFuZcX5N397WokFuZfGMFc639Pn5cq3BV6N3Iu1qL1/e0dbX9aQfO2k47WSnp7KpNihm/cSkWW64SHaJVSXaTtOYehGqop+BUBlm3oqz+0r69F0tp1YJuhOX17z/vOY9cTHYXgPSBJuxbC2eyLuNSlKaLvl6aWULQTFgH1qWBkTAih5R4MRCOgH/SFqcQr/xNabAmAJjCowpMKbAmAJjCjxDCriWM92YWJo5zhKq43c5GsXaQ9KSmyxrODWiVhss1lB9xnKOcyyNUu1Yc3J+YvrE1Oxko8VJJ3tU0fozLMs42pgCYwqMKTCmwJgCL2AKjKGaF3DjPUdFF11FzVn40DrrJIFMWFTdloeTRXm0k8cdeGToHzPKMxgWz6wtOT4OD02JaMAKUowhcQgnDa202WDH8HuaXdOxiWyEwjSS88Pwk8hXsi4AG9Z4HAYufGDiEsiZ0LIQCR6BauA+AQ7ZNczVPC2jCb48oAVQDWgKXHWYoAAYwCcAM2QJtx1OunBgYTmnKaxzeMeLi4s8EpgAhMefwAAhcM/hwsNzB+3Ah5QJj5u7AkiIhScR4eADoqC4DB8uEiEuEQtMxyU8DhJXzHrCE52IcPkpGwAPojZDCRgi4slbwuNWdyLSDXgkKTAksgAEooS4SQpla0jP8JaSE5fciYU/DspP1kQnPEQArwIQIjsAGwI/R13rsy1ZqEF9QWseeeQRGgUddBDk3LmtRgMZqmar2eLR870IzrH0TOiMDXuxWwEBVWvyqCoFkQF7uBRmQ9uBrkHhM2fOPPR5D508eUqFR0KKn8TaS2GXSVokw5dB4ibdCu1bAuDRYwVcpJAYovzABz5Ag5Issh503OKDIqHbfpuHU/ypaOJS3yelEiMpBWaBLQ30ZYGg5kbVQMrAC/3NzZ1rV9aWb27JcbkScIfQASmCJCkkG1IABwMxBgMUAdSDLwkVUiJvI3ANPmhHE+spuxf0EESHLIGu6q0qn5tdrfVCG4szYX/N314WbCP0KAIyAQKcCRMdgxx5EA382PeTToQerOKDlVLQSsmgXJ6s1062JibmF2bmF9julQWqKfAPYGOIBYsauzLsHBGnECEDYcvzSe4SA1QCc6YyIABQOZZbQvkZIA3a50QLmiuaxJD/w/yLUAwcQGANkXegTwhuR/qObTYa5eMnJoM2khV61bXaFZdB4q4Ld3e2ty+uXB0EYpqr2KqCKpg+g0foWZZn6v9/e+/1Jcd1pXuGN2kry8NWFTwoghIpc6mWVrdm9fTDzO2X239qv81dPb1mzXS3VsvSkxINAMIDZdOGj/vbJzILBRJkiyMRlMR9kBUZceLY75zIKuwvv70DyB4aFH5AyLOFVzk6EJ4GZ2cyVPMpR3WuiqQYzdLDWXbU8tqD9eX1rVMrZwf9zTZUGZ9uq+ZTmxXixecmAXHE6VVlbZRtQVI6Y+Yyei5lQ5oXE5F38tifBM4RHtHs1vnHKwMgzeEy53/w4atUDV17OXTWlzzrnJ9Flb9M9C3zmwiOrwjSvBrmdio8lPlKpnki4zqNYre9Rpwttyp9wsyUNdqWOkrc75wNBhstr9tG+dSL3Dhix5bv3nKfTOx0t/YnzqR2oqB+qUy2WnnQ77p8Qpp1BfBHafl4WDy5n999Yu3dr8p2fbZbDJamZ3BCeG453FjGB97BUXb7YXHvVpJOcTXGbyQ4TPhVIVikHTYMiyDu7FgKOBeWmHyYIGhReUkJq/aRCkEZhtFBbr93czbL7SuDJadVo34KWHB5NFlAPmaqnlufabsXNyNntfvpiJt2ejudjVHV2FZetf10vZNfWrU6S96k5z+ees4hMXvM3jHr3KzfySUUMo5VN2M1a3vy5h+8vlpQEVAEFAFFQBFQBL7dCPAfhJ21M7A1L5+9zH8jzJ+XTxHhb42nf0Lyxwd/2crfxIS69EI/xNkwJA1fJOSP9Kd19EwRUAQUAUVAEfhWIqBUzbdy2b980tgFGw1N8yeVHL8sibcZPJJlh/z5ZQddO1rDEGk5oVgBjYFKjiQxW3GUEznkWT3cq4f7dWvVDiIc8IuIh+/ec9MQM4anMdoa+Sq8mFSlugyGMN/QG0gTTINiXDRfj5fbX5YgOVA8wEnAnYi+YTCA0oAdgZ+AxuCcb+BjCWN0WGSx1KOG4ZJbGMo5QWRD64hUUGAQlQQ/YxiX0eXAfFCYWpTkHMKGljliVYcOaZyPwYKQMNyT39Ah2N85R/tCvw1zQ/wS+BXqUpH2qUh1amHZpv2dnR26YPz4K/vFL36BmfvmzZvYlLlFs03LxvYtLAvjp/Fm8PyVTMsUo18QIFGLlpk4icKU5NgQOShvGANlyPnLTQAl/zeQzTLfuuQcXx6fgxK4AQJQkwmd9sknn7z55pvb29tooQi1d+PGK1Bv9+7eOzCe6GiBqPJN4hwYqQXInHMCjOyfhnvjiLzmwoULFKb9JJl98vFHcGZAL7vbcHVUydh1ZdkMtKF/WGvaISgN+xNKBmbx5z//j3ffeefTT+/cu3/v0cOH3DoHD7CyTBfCG9A7czSzYxh/eGpwETP9vDLWY3l8eYk9WGzJEr4jhcekTNvLi2q4PzncG2VpAkWBxAFvVA3XgsIBcQNCBlHKADOgY62Wp5XWhF/gYIsSguDpsFDE+8ByzWeDSCREnFJAdSYEsFldW28t9aLR7ODhk8O9T2aP7xXTwxQPf0LTNP9E74FsLEl26a2ocXKV89EA5SJu12oonLTd8TZP7Vy6dP3ylXPnt1filjwHwlMI/cRcISiEmOElH3JCd8p4xbLONU1ZNeomFoX5w4Gy3HEURISqEZ6GtZeaDU8jq26QN1QIcxfAsMeL7yzXXVltVyJusSQ4iB+sJZs3Lrw6PZzuDg+G06OkmGGlD9w4tMuomsSl2ypw/1Cl3iB3Q1EQESjI6EVES4FFn66gtOSfsE1idLcJwjKbpbuzfB/qCgai1e20ux1RyiHxkQ9MepcpNeQAyyEUgcDIS7IN/yK3KSlLz7uZkGwo/sEX8aGeCFcTtiS4vcxX0nyrSZlnkvkw/kzeMwXkQiYiP5+7schgmeSmba21nB9vxQRtOfTT4ggHaL6H1y5YDVjS0Lk/rd94UN57UIwfZPkMl5t+4OVnneHOsnvh5ZX+WisXSZidFn5UeRt1d2vN2/rOqn+mj9M92QV1PZ6Wt+/m7/8uH96zqqkTBp3Ho/S0d3tptt+9fjFYdYGEDcvGuT8qfn5r9tY7s1tv5OO7uYuvtDVC1IyzgZVOk3qWTarqkzvZ//vzyfvvjNJbU8KzebtOEbjjqVWksuNSx3+YW0f79SdjWMmcX2V5bcPEJIlEhZPnLAj2irrYtfyRnQVIgJLWo4evXQ47Z5aW1zoRoj0W3kCEUUP4v7bXwvObZz+elf/xIPv1h9n7b+YPPqpmY4Sls5fDgxvnnZdeX8lX228c2E8+Yf+ITo79LBuWpZUYbwKDWQmzcAZzpmsym8X44kVq7utREVAEFAFFQBFQBBSBZxHgz7UlXu3es9l6pQgoAoqAIqAIKAJfDQGlar4aXt+K0mK//AO/z4KZjy/Lp3V2YBVT6BYnXBZfZFhtHRy3QL3Id4nFKMSPHBe2ICx+RVqN93i5BV+6IY52JJYkMS0SjLnR0+AGbS6vobmnFj4pRvmvvHUxbWNMxwiOuzPciGEKx9KN6IFMxBDYvuEz4DAwQEOfQF1QDOoFYzLUDjZ9vGMxfLgTBBOQNxzRo1BgZ2eH6jBAWADJadonBzIGDqBxOIa9nsa5RY+0wC1IF8YjeBjjJzZ96kKTXLlyhXPM+jArFGZUeFqjkatXrzISmCHM95AEjJAusENThTKcU4aJUObUqVM0S3dUZ47chTOgFy4ZJJekZjxQTZRnpvTFOXNkhNxtBkYjf6HpmKH58vFTDKiZMpg3lBtsDeIVjo2jvIZ7g7/hEsyb5WDFSeDJGoEYm4R2mgLkG3TnyirAZwBslffee48Vpzyr5roexVhrWhgOR3AGg8Eyx+HwiI1BGVprd7qwa+fOnd/f2/35f/zHb3/7W1RWlCfIzZUrV19++TsXdi7gKo3xNBbz5sH68sn+13ex2fKMirUWcy7EAzbkigj0BcSoRUh1iJBiho8xoTF4vKUc/IjEtDFlj49mO4s1XrgCeaClZxEVwJGI0wN5tIUaQF5AHXKsAtKWZjNipOdVRPARL5tNHx2NHvIRgQ4Hi/k8mYZEplfO+NBhlLRC0ws7NjQKD9HSzoWLV65eOnN2Hb6EJ0wUUJBFcA8oGDgjDAw1pEVcQQlhwwWCGyFvyHHsGH9UEhWH4YvcJ0RbQ3AdnjT4Clci+5AP7SGfcM3EZPoCHKiIag75gm3HLbQOMn1Yk8Dxe0tLO1uXH+8+fuP2G/f37xXGcyPOJX0+ZsvaLaZhvu8RU9XxU9tK0cDBSGE4lxUR5GSSHOjSfIYaBoZRWyE+Ia1+hN0+WvPquErsbFKkkczEzBBSUNxdza/khEELi0YJAd6skaxQQ9VwNE6y0HmgeMzGRYJ0haK1b7dRqkjNP81Ok56/MNEFQ+sGzpWVcMOppmFZzTKfzyT6R12F6qjlf3BU3W0l+9l0dD8tEjyFweMUp53pS33vxuVwbbuH8/O8RHbjhHW5gX/Mnh+fWqm7rWltHY2Lh49m771/dPfmZPdeMt7z8sxxQz9wi1/+PpmVdS89CFcb4Flp6/dHxbu389u/Sx49KmaHVTCrHtbFB23bbZdL3n7vVNVeckaHcD9InMqjYZVNa599LZ8QsvfaLrHEzEpDgFaMyjw9ltXyrKhlZb6dFQ4BcWa1RcVq5sKMurPi1N7IOpVZRMUR1oyXAZ7NUEKe2Xng79f2eD+7lVi/fmfy/lvT+58U2WEJP3h5Jf/hKfvilaC/03vktUaPstE4gw41NEyz3ovFZgVkb8mTLKfmqAdFQBFQBBQBRUARUAQUAUVAEVAEFAFFQBH4ZhH4yvbub3a42vufFwJi0M3FF1k2rMvciTdtXm6rdpJGGYOJSQIHSGqOJ96LrJ4eyIvvHov1MYDZMRYyvvNrbIrGB9qctuEehsY/zqAEcXL58mWYDKgXEuQEDMdPfvITdCpY6rHakwPbIZZNhml4F6pgpEUhAX8DVUMZGBHs8ljVMcqfPn2aFiB7MMTjRAvCA6YHjqQhS2gKozw2d5iPnZ0dyCFu0Rr2eigTOoUvIRlwxJza8C6Mh0EShIYuGENDnzAwqkOr0B1UDf7KaOT4Lp2ig6G7psyrr75Ka4yBI9IQaqEHYgwc4YdgmOiRWZAAATaCAswLyofhQeowKWbdjOov9MjEm3Q8fi6few6GLNDPfvaza9euIZb65S9/+c///M/Eg4FcASgIEkz4MDdIqdgArAX4k8CHS8AE8L/9278F27fffpvCdEGDHMm/ceMGq8Yyob566623UEpxDs7tdgfYT53aZDOzB2iMCEOQmmikPv74Y1RN0+mMYowKAgnfWA1PA9/Drvinf/qnH/3ov50+fYa7MExmSmLI/4pJwDDqBcMFzB8qcdUkL9gGvJZJrE/zzXusy1AdvPhFgTzFk8eQOYpPMkKIcCRJHTgK8yZn5hKCFupCeFfTIk7QpHVxOoZhHVajyHLCvxclOzmr6pxn5/ZH95YOx0ubXdfFXVOSVBOpLU8GlK2IPcRqLXM2aytCGXEkZT5QpDOEZK1wsLF29vpLl65e315e6UShS6h2alKMeZQSbd14AePTBSs6oBv2AtM1pAsLjcsqz/XDEvdZjJmJCHMTCHXECouASTaR6RzpHeMQ6GXaMigmJzMU8kiyeQnJYSgRUPbb0dqZM6cfnx/0BrEf4vQMpxCOleGymxadogiSYbu2OrUVV4OR35+5Mb4dCwkqImOTT0Ox8BtApXXWACVJiyfYsz2s/+3OanUYHt2Z7rVxJAkdCBND37hVtD2/Djw8cokyBi2USCuMvkZGLRDI3pEzc0UVqqVZOd5LZrtZfpA7EpsHEt2y28AgODWzM4OQul9PsgmusxI6vZW4bMFmVZBkjKOZeuU6R7t558D22hm3qrTCQR97c81LzrWjsxutjfPLsnwwcBICqY7syodli4NZbT+p6w8eJv/+rw/feePgwe1JNayIeutGHvvroPT+58PlX4zq6OMD3z9ib9E4+2aU2Q9m7njmsPfby7j4q0a1+//tLb0xqoLfPNg59eRvf9SJNzvXrveqsPX+EPpH9Fs162dbHa/YDicbvbq90kJDlddQnrId2ZNe4CS2hZjmyWH18F4xGUE8sqUdnqzNVvrfb9Q/fcU7s+yNHHdU1xMJ8STzcWvikDmPq+Ctcf3ow8mtu5N3/3306JMsm1anOtn/tj157Ypz4dpqttp9r2q//0n97q/TR7fRUVpehA5LIJTVbhbbwClXz6TjMs/k6oUioAgoAoqAIqAIKAKKgCKgCCgCioAioAi8GASUqnkxOP+V9oIttcDPy4S4CcKpRKtOtGH0MbmFCzURvohV+PmT51vusyOoGqmLaViMhL449+d76ZKwDor3M4yHYh80VtLnt/MH50KuEEcEeQQECcRGc8QCjkkd9oWOYS8aqsaYZW0oEC45QsaQg/3dmNrbGPEx0zc50BsUQAxBa5ArZFIFWzy2XQz6lMeyjwEUPUTTL3wM46U8fTVlqCKzNQmxRVOdu9A5EDCQPeg26IV8OBWmQD7EEnZ/mAO65kg7GMxpmTLNCY1RhRltb29zzni4yxHKATKgoXwayqGhaprBUAXChnwa/INB/YsvCGigxMQ5AiaUGzngiuuzyWQKCffRRx+xPZgn+WwVtDKAhjX/0eNHYAvHwCrvH+zDrqF1ksgjBBk6PATGJOE0haqBBHqyu8v+piRLT4AkSA7WnWY5oQztECYHsofeWV+2A7wafUHkQLk1ywrr9tOf/vTV114jzj3r/pVw//wTKM+TEAyNTkOeNvOkYpoWTVmN+R9zs2EihHnAvRl2YmELyDRkjESc4akVUc0xT2NuSQvibMwYy+UeGhi55JonnAcZ4zl8BoRQUaLZqXL6gzMp8mJ/9xDbeNyPXDeIl/rhpDcdHpZZ4Yk4AaZExiEMAfXFQxusCJMQAoNOGBau7DbWL25vXd/Z3jpzZgUPUWGAeZ1Kc6pGiAYmI36taIjVkA8V5m1Uf1BIuA0khg3zNCNmMlSFZcHKz1IJVyDPKQmCB5qKf3SNazckNjJJ05RIFFhLBsklDaKpYdzY5SO/u4Izq42N5TPLnduPho8T2BpD1cCnJDZOvODCRiF0WE2YGT47q5kX5DZe0JinzJwZGsoJGi0X8pu95OKcrbfUH8S9uN3vtZfC0MnzWToZVcLKMOSao10h74Fu8avad+vCqZigbeF0j0HSiuAhiUmJOzhgpIPJYbb/cJbsZc608lmNo1yUQdA8uJzkn6nZQPGFR7NO0oP080ySrKfZz21LqiD6iT1enk2IGknHLQqH0prCooEHwzV0ngHdt8vYqzvtoNePzUo3nT8dwLSo786q9x6kv3xj9NGb4zI1FFBLflOx2Enh3hnGd49KQ6ERfEnchuFmroJfcQML3Y54UseJnzMr3TvjoJylxaPd2X71vcve2a3O6XX/IHVuxtAt8u0ESBXZMxBFVdax6o4XuWEt0XMBvTQ7LRIicFI6Hl9UgHpjgfHNJ7//qtgpttrFVqds+9YIIg89mJkPrTFnns7DaT7bTT+eJnc/qh58MKwP8vPn/Fcu2D98KTi/FaQrvdt5/Pad+sMP84e38slB4bddQrnxAD9NwHkiPcXoc+t1opSeKgKKgCKgCCgCioAioAgoAoqAIqAIKAKKwNeOgFI1XzvEf8UdiKQmH/LCOmW7sR2u2+GqjVHKnuD4h5dYZr8olQWu+utkWOP5pchsD1UN9lBfbJxiE8bQxiV2uj8NT0N7GOKRI2CVg4rAaM6RhEkdOgT7O/lYwMkRyyWdY5rF2IbZWOI/+FxSnRz4DPgSzOjkUJFbTTHclEGfkNlU4QTepanFkfJNvxSmcVqAyCGfk+MejzuF9UHawlCxAHOXfhkDFUmMFsN9M9omhyPtNHWZFL0wKi4ZWHPkLtU5Mh6aaigc7pIoT2uUx+5OAXI4PzkeWvhLTIDQYPJfDv64GBDBV6Gt+cd//Me/+Zu/Qa+A5OPB/fvvvPsuBIpl7WEsBZlm4YhzxNKgbQJAaDM/8HF8trK28CY3nlAS+RJh7mezKcXW1td5sYrsEJiY5kjXrB0tQN6A/7FSqhkzC339OpGMXmJtGQmqmpXVlQsXLyHKYfM+a2j9L2aJ7dhYuo+Lza3eZo+LCVyu2UFNMUzTaVERsd0S2Yq5SwOwIXjtKoh4YcgZ7PkSe0YM5XNKhg8A4/4LVsZQOYaxEVs6L3maMVwTp0a4W6fMCU+TFfg7K3PYDj4ieBThcyAmib4ym9Rxp7dx/hoP3qcfvZVke1Ay4q1LIqobhkFGKv9gMEQBRCB1kRxY3fbqlcs/vH7tR5sbG91uGEYISoRZwAxv3HrRgFQzHynNjJvFR2TSJImow7MkygYH4kTgABfs6fKAyRAMGjIbg4tZPhoU0zwmdFOPoUnTZqiiaEHzIh7YjI09trv9wfn1Kw9WnozS6Sx7QvwQpBfAggV/wuCszKqG7aro1FnXmqbO0sRtD90gtZ0S+gAuBw4bdQUipDJj+8GbZPUgXvGufHdlfbPvyweVFcYFgyOkPRINp3RtKjKZggA/iHRYWfGrJtOQ4Qo9ANNGm0iGGCofckVR4S9ruJceEA0mqToxkV2tfJRnnp1FuGdDl2NYneOt9CUnc/wMHqaYyRAqYJ7FmaT5m8lucuS+ufFMjUU93LPxRJQZRPawEBIDeAmFBIalwwv/c9KK4CmbhKOcmg0+TuuP97Lf30vv3yn2H/H7KkZP4xb8ihLWTzZwTnEYqcBlnjxkPmwNexjOizOhU4RwrCF2XCsN+IJBkQRoG91uJ17qdNtR7CcWi5OUACV7xrHTyn049eB10U6ijsmI00RPCNJY9ZgYNvZhaR+NqiyRJ4x1lrHbTkYQtyez4WOvlxD9SHwEyuZj2dgFtssTONkbz6xqfxaP+YLBZLLVz/7PH7VffbWLnGi3Dv7tlv3ux/ndD/PDxzkeBF1i/MyZd+AADIOXYERvDVbNb1t+MckT0twwb3pQBBQBRUARUAQUAUVAEVAEFAFFQBFQBBSBF42AUjUvGvG/qv5EVYPVCAcrLdvv2OHA8ruWOC4TDy/y+mKqRr4OzbfJswmEjZUbh2mYlHB2hNUKA65Y17AwGctSY1H6o4HDLE76TDOwF6TPZH7mUoygi/Tc8pjmT5ZZlH36DiPy9MKyKPyZnOO7mPgMjSJEy+fTc3v/TLGTI6Gp47vNIOGBjnOak4ba+Uzmt+0ScEhoa1577TWokcHSAO7k5q1bqJagSTY21rFyAh0KJ3iyhqpBYMNydLoSM0a8xnW6GGcRS6CzwaZLXM0kmSGsodlTm6e6eE3rdCBpUNJQAIuvmP9dF6kTO4FLZDS0g3KLKty6evXaKzduoKSR9bJtxsBSrqyu+sdbsTGq/kHr9PmiJy2yYso2RlvhHEQlkxGrpOA7/6YQd3hHJoDLroyXlIAjIaE/McZrsV/La/5mLpgQ7zzJ8g/7MEFbiHaPgZraZZYWOW73sHLzmItJmyS1LCicYjrOPD9odVe66RAph+FypL7haRrbMkVNJBcxsNO+8KNR0FsdnL508eqli5eWl/txhL0dozuLJqZ6cZTGiZCk0tSJZNgbU0ZGSSGJbCPMiyQmLh3SvFi3zX0zYugmoU7MSyLniNAGsEwtAYvCWOoZsHGwZmpz7jtxq7O5ur25cv/W/s39yT5TRlQEDcfkxUQuL+Q64rArtovArkI/99wWMe9xnFVAIBHVh+DzJdototWXaeFNsuEkO8jqVo56xnLzwp3MHLf0gggxTBCXgfA7vKDHhCDg85SPY2ZopsMpM4bZYbyQFYh3ajtPitmTfLybTY9yphe1PLgCiKF8UiQjRD620/E8icLz/GTmbg7H95+9Os7+iiegKg097Vg2i0hqTLY0xiozlYJIMBScJyluSph3WUEh9wLfXl3x7bMInUIvgqOSfQIYxETKMivBK2cCyDgpk9LUDFyrFVVRCFWPkgeyhT3nlpZvTasg8C6eIR5Yq9OLcZTZCnIvZJubjmjBdqB+DnKPUDQtBF74FJSVlocJ3sXJbQIBjQsUlgjMmkFTsXLKIvAKO/DqkB0sO8hQKFSTjcW3GXhAp+PcdRPY3diyr5+rb2w6r90IN7biJ3b7nYfeG79Pb/2uGN6ZVdMsbpduBG/HTpiDx6wMJlzOc0zTi8Pz8hb39F0RUAQUAUVAEVAEFAFFQBFQBBQBRUARUAS+dgQ+a7n+2jvUDv6aEBCDLF8Nd514wwr6toeOBJ7GGFYx6YlQprF6Pm/OGMKwUfGN4mQsbI0fSbgaMRU1X57HSNXYjdR69Dz0NO9PhwC7mMawqSOagXTBgu77ASZRaJiN9XXi9+DyDusqPB8FYMI4gZjA1RkVYVCyPEerhD+vKJSoHnhAOzoaPn70iCOB32HC1jfWVtdWV5ZX4GbgaZCPND1y5C5RZ2gQF3nkw4AwEnQzqyurly5fXltdRf9FDiIb+Ax4o+OHQUyvT63Sx1jwzBgBwOdvNU+TmeniprHZNjM37RoOBvqgwO0YEVrEpktzYicvKhiCPMlzRii1+AefKlQNxm/kNZJp3qSOMQYL8SGUK0c+DnDAhHhGOJYCR4BTVDVoOeRzg35lYMIWuJinLWtyNJOANivHNAfzRnUjDr1YIFoTUkeceGHDNuRKXfluq985fWpjZ2f7zNnzy50uqgi8SUGWABFV4CZkGGbWz1I1TQNyj7sGgvnozTlVZXQyIxmhmTB2ejkz+WZ+TTWZs3AplBZeRz7C5IOPgiAzb6FmLwyWz6ysnGvdXfbdh6hqqgpAUbvwolzL6AhrO5lB4vRxnBWNB1En91qJE43rcFiGqBfZZnlVEDclr5KD0cP6ziSpd5dudsJuK+yEQdeNu2G31+pFrb7T7jhx5ACrJ0wM0cNwiYZXNnQjLAg/LElgeArOgIsFmVnOxHLHOHfD5xy+1yrEU4iN6HK2Dz9kEbkH72pzqJjgIhmkQFM2jMGnAXNx+yu+y2oIlicbkXPJNb7RiJqD9AW3bMJjNIVRn1QlPIYDkKRmkeZnMih+OoF9se85F+PT//tg8iTxXYuX8XonJ2ltH+TW3b3qd7fy/SfI3CAVqVYu+cX15Xxr018+s+R3IkjMrLYRgfrTcnnPP7fqXjgTBq0AnrYTO9FqECz75QwmrXShk+x6VrAXGTy/DsFN0DHkC9wYCpw6R+eUARvbhRESlScP0uFynCxfGHQvrXqdmMkIYSSfClKTH7iiWWnHZdmtxjvr3uvfjS+cDbvbS7eT8F/frt79ffroTjHdz70qieJZxy8q1x9bAWyfsFsCliiDaK8B07QrIHLS5NCFJkVAEVAEFAFFQBFQBBQBRUARUAQUAUVAEfimEFCq5ptC/q+iX/wCebEVrlh+z/a7BHpu7FBy9CN5iS3tC5JYhsQFj3ypGHugsbg1BikxbkpSq5GBQQ8vCgEoE9zESW9Ydi2r02nDkayuraGP4VIMrbaN2gbmhmOrFYvRE1dUeI/Cgux7y4MBXA4Fh0dHd+/eJTJQUZSQMUaII9GGKI/DNCgZWoOyQCsDeUN1mB4c6FGXc3LIw4EXKhy4GUo+TYsH4qlh9em9LzmTak3V5rn6TFFu8ZLnD1Ou0c9ACOD/rLG7C+dANPQavVCS5akhkwxFA1UjCZJBUIBdEAuwnPNjKIrGHixcBR8D4sOppF0JUZMT5IYcMbQbTE0REz0GKgLRCObwykeC47gtN+i7Yd9D/oApm3aleaQnOD0rGa5b5HU6xf/U+c0rO+cu4zUQkVKE+kFM36IVoWOzksyM2gxL6J5m+qYxmbJ5nfycQm5iighkUkdK8E98V5nxNjlylEs6EuLIdCYjpIx01pjXDVMDvQPjAYvguJ0uS73eaa3H0W5RzSAEqjKl5azKLAmPwikfhvAMuVdnrpW0nLRjzSw3nlixX8UoNRKkLWHUiqEpLKIc7T3JZtNRfD8Ke3HYDYO2E3eDTifuRnHPbbW8KPCEWUTRBJ6EW/EdP0QYAxUZcvRCdh9+6QjCEgWdXoS3tjBy2m0vq7xMtCUorAoqipYE6oLxsv64t/Se0igNVA1Eso3+VOlLCB+65C6LjHc2NqfsXXnxEAqLdGIMpmAzKGFrWq59tuVGp8I1pzc78K1J6hQlPvl81w49ULYes0xxefegPDpiprLZWMeWW56Lk6uDeu0MqlE/KfAMZyMCjVL39Gq43icGWFzF4UrlLcVevBz6vSyf5k5StOzZUt9ZPteKen6NtIXmUokzBHPDqP2qYH9bqz5O256MveHImg7dapq76awVVt3ttfaFDa8j1K+UXsyLGeGtrhX5mwP/fOBvLEcXzztRK7g9DN68bb/xdnHv49Q6HC+H2bktq7sUlI57MPNme3xqCW86TwLRCZgk9+llA9q8pL4pAoqAIqAIKAKKgCKgCCgCioAioAgoAorAi0VAqZoXi/dfV2+2G1nxpg1Vg6nMxr8/dmpJfF3bDlry4mvcX5awdEL2ENWGsBJYpI7TU8vRcZaeKAJfEwKN4dmY8psesI+aE8JV+D6ql6rsNpZOSj569OjBgwcPHz6EpuAuXA7UijA3bUiCCOmMuLY7e3ZnZwcyhjYx0BNsiMLoafb394lMMx6PaZ3Lx48fIxZBTwNJgwkfRod8iXEhIVKIlyHO6xgIxlOSHJuzxZu5ae49PRhqQQ5Pn6CTxuunBZt2G15hzsk0LIv58j3fvzdEi7ATuBHzrbKskjxNM0z1kDkS40SKwNAIvWBIm1KkIdAZdC7vQldAr0iHQnQIZ0FgGcLd4PeMvlG88MCLoZ2CYpY3RSBWCPHCh4ck5CDBwMcs3Vn3/dgm0geMh7ROzyZEie2XRRFMh+uD1Zcuv3r98rXVlX4Qzf0m0p50bloy9Mzx8goyMjx6lcTg5ZzSckNym1EbCKluSpuCcnu+HlLeNE+e0dAIW9PclhbNbKSM1Je6qJJSIbXgSfCW1Wuf7XfS3EryclxlB0VGNJgkLUZFSdSioPLisg5SvI5V+XKZrURTHO318fGWx44V551O1eutLS/VefHwzsPJcDwcF+NdHJ8NBTcwdXGsh2ZGZDPsIt7EwxzsnxuEfiSvMIjjsNUOW3EYE0DJF33K6lr/0uXNzbV+51wQ9t36djUa1aio8C7HciHDaRGnhlXMyiIzghxYEYPA/Ciz/9MlgzrNAbHBlaOgzRV9soHQZOXATDHh+9iSQoyZ4GiCQJNMRWqZNsxF6FjrgR11fQQuB641mSZlmqPmkueN6jA9tOfiK854P2t2gWnPq0qvKhwkRjXBf3CNJo73KB91wrgf+jCsUUhAm/W2z6XXZpO7UTo+Gw5vbASv/cNmfLp/8yjfezLNHhTFrCgDL7Sr5SJbW/LXL3V3g/jfH9offVzde6vAY2JEfJvQb5/fbG9vClXDcyJiKOYqDyRPURS426v+jWudU+fX7Hb4ZJb99m7xm9/kH31U7T6yrMPRdvLpjU37b362FV9a+iit3/ukfPT/pIejApeAAMgONq/jXb6AuHlv1nSB/xxKfVMEFAFFQBFQBBQBRUARUAQUAUVAEVAEFIEXhcCXW9Jf1Ci0n79QBMQ6aFQInzHuYNuLuk68ZEcd24/qMse4+5kpEmXcxgIb9zCeWUGMifEzBfRSEfimEBAzu+mb8BRu1EhbxOROwu6NGgaqhqgzZVk27ssQyhBU5vDgEN4FF2pra2tEnUFPQ3kKo8Kh8Keffnr//n2YHkga2iZ/b28PEU+n20G+QNibRRihhXW6mXxjcm5GMx/Uf4XK8eifU9DcO+5BmhUD7twiLjyIWL3FLCzcCoZqrNfiC4soO9NZMpuiAkHUwl1uG4YGxYhQNcyALBgaE3hFFASmScz8pnmhYrCtU8BUND02nTbTk1EYggd6B52KMZMT3cXvuFHktTbcoGVVCTGxxB0XRbnP2FBE2GXc6q4vb2yd3zl79nSnG8P08FEkDp6MyZ5TLo0XRrHyL1ZVhtcYpWmMHs0YDVgnP8e4ITXmBblD0/TMj7Qvt/hpoJQrmpFJmgpNHZFykMOkYahSeCWENQ4O9HCYFfrdqgocHyKqVxLeaLyXJxNLnKE5mWVP0B/JJ6YwUvihiyvM+8Sccdqtzsr6UtUbtIIoGU5xsIX4Q0YjkMgHLBeLRNWGFBOmhl3suX7gRxAzfhhEURC3wpijUDW+4/pra0t0Xmblzs5KvBr0p/iurPBUZ8KoCPcTePihE093ZSnRb5i2zP5kOonEyfyveC4IWnVS1sOkms2KYpTDE/J7BgkN4COnGhX1hw+yg0dpOmYTOo5f+3YaeXndCkZucO8wT+6NrUK2ID+UIDRM4Fhdr45j1++E7KBH4/rOo+roZpYfpV4LkRFTs3K7HlbVo/0yOUJMJLyIxPbBHV3lPkhCf999fLf0DlMGkFZOWnudghg++1YSR1ubkee1IFHYe6x2gfezChZxLUzOrzjbW761Ed1K6gmCmaldjO0iJEqNHeH+LMwHTuK1nNW+/7ALS1Q7ZRmXaccJ414r6HfAndaynIhG8mgBJIuLBqrfDQYrcWujfVD6v7tVvvFe9vZb6eHDohtUZ5amN4Ls1avh965FxXb7wZFt7yU4bJOdJf4FTTLLt1hAhixJVk/Onq6i5GpSBBQBRUARUAQUAUVAEVAEFAFFQBFQBBSBF4uAUjUvFu+/vt5OGjcXs7PdwGoN7N66012vxrvW9BD/SIubi3dCMPc2nKUzTmfFDtswN4sb+q4IvFAEMIDSn9j4jTFUDo3JsrFbclNO+MFOLZwEYhpkNO+99x7UC5IaKpJPZrfbxY/Zd0363ve+B1tDYUiaX//617/97W/ffvvte/fuwdBAe8j0xPTvbG9vXbp8CVO62JSx0wur0AxEipDmVnHpXEZpBiKHz1nKJU/qNjeaN5nWM8nclrbIlZ+GLmmaNT2IbdvQGMJGcJfJuQRYL3MEIOMZL5gZGSJlMB7P+RnxfWYyxOzLgI3EBKJAIrNLK9ylWWzfIrqRVkVvYzQyQgrJOKRLilDBDIproqXgjot4V76DV6+gXSNsKHOYAmmRW0RiT3Ls7vj9Whusrq8Plpa7fig6JKF8xNIumh5kOhAuhnGie3oR6KQFoaLM+yJTsuTeYgQGSS5kZGZ23JGWZPSmunQhpnxTjZxFIdNC49CRWC8UFkYrJSZXifc4MzDEGVlVTnEo57fay5uXIEIO9x4koz0rGdX5rMJLnFXjI2+CcqPyitQd52hqXKfTdpaXN7fPZl54cHfv4PF+OkvpF/kVmxAVjUxTBseQGKVMhhPR1MBnNMFoOIpzOBuVTzYpGFXq4oZL6k2PpqMn0/H+pN3xzp9d6Z0OnNBK7khworbnteF38JvmI+5wjVew+axl7id3a9OtQUT6lrvm4qscqMiviv20fHc3vXdnPP5wvxynYRdKSYIdTfPq4cS6tVffvlePngCV64flUjBcirJsqXXbjvdvjsPHJeXqXGi9rLInhdv3ypd62bnTce/S+u1Z+D9/M337zdHo/UkxTP1O4IYIkXi2odOKNKumcC3sP6ghVDaVdVSFvzoK35nawV2miqqsKJFz4SVuOr60+/4Profdi6e651ZzXBpmZcaaPJmW48T3Zu2BZffsB7Ns99Ppf76ZffL7Mn3ilvhZw8dhXUSpszXIDmdPWqte6bTCcSCiVD/dTEYbRRGWsJI1CqEyryfDkheu/lhQYd8YlOfs1s6tw/L2g/pX//fs5jvT4V7WC7LvnU5vnCuvnVk9t9UO+uGTcXXvcf1kv8rL2nGlNZLwV7JV4WPnj4O8mztyVzbP/49Fk/qaFAFFQBFQBBQBRUARUAQUAUVAEVAEFAFF4I9HQO3jfzyG2sLnEEAiE7Sczqq7ulMXaXVwp5ocWEUmXznGtgcrIzzNurt2iQJ2awkfaGog+hyImvENI4DZ0hgxzdvC6IxWBg5ma2sLfQwMzdHREaIZPJtB3mAxJ0QNOUSpGQ6HDVUDPfOrX/3qrbfe+uCDD6BtMPfiIQ1fZ6TllZWLly6dOXN2sLyM2ILZ0p0xlnL6tPMFCtyZD0fuff7+vNx8oF9SxtAN86YWlShOPJUm4sxCjyA2fuMdqrbTrByNZtOJUdXIQAwzYdiaRg0jFnyx+WJh5qYZqZzIi5blSKZIYqQjsigpXZtRzI3FTX1TEEIM9QYGczEoyxGnUx7vBPqQKpBABLzJcsR7S53eytKg3W4RfIUWoUWIZcPgGBrTNKUpL586wiOYPmmBf5IhwzKZcnI8HFNK+jU50pJpobluRkw1aappzrQjZXgxfUFPjk0tzgjNk1ZZUkHVwPTRX4DCRazwU6vAgh7gNqs98PygV02OimSCMzT4AEaPc66x7eSWM0ZP4/f6y2vtwYrjB7jtGh4cDg+OijyHZYErlHAzYAG9IMvFstGJTI+3xiOauPmSLGOKN2XkQqz2FmjZbpXM0ifJYbsdfHp3EHf81V63tRR0D6J8WnYQ48iAxdQvq/dsejajuWLmkpq3Zws0dxa3n3cPGnNU1Z8e5r95d/The0fDj46qSRH1IYugaspZVj+Z1Ptj+2jk5mntVnk7SPtx4ofWEys+OorrD/gVM6mmWZ2DNXISd5p7Ay+fdA4mV1qX1roHuXPzbnbzo3T/kwzJTtiz3dAsF7qTDOKqRsHlRrL1eUH0JZUzTbxqLM7f6oJIQrmA4JTdJFs5HCUbeZnOmddO5OysB8ML4ZDgNVWR9+I7E+/x+7NHqfPhB9Xje7i0g6Rj0+QWYYAyZzRBtpMNVrJpyyrTDGans5K8cqZ15Uqv1w0SQl6Bw1H26Xvjh+9P0kktupuqTkt7HyLqSXL/KLl9y/743WR4Z7bSSS+t59/Zqc6eD4rVzh0/vvOp/ek4+fhxtQvfxpDZcA61zTPOTOdL9LwFOLFEeqoIKAKKgCKgCCgCioAioAgoAoqAIqAIKAIvGAGlal4w4N+O7sRQ6DitgXf2FXygFYhm9m5X4706m2IntMIOehpIGu/My+7Klh31FkbPbwc4Oss/MwRkt2JZXtgv53b4ha15bpCXXMzi7mAwuH79Ol7OfvCDH9y5cwcCBhrml7/8JSQNzA0+zd54441bt27927/9W+MAjeA0EDmQN6PRiBagZHCS9uMf//iVV17ZuXCBdiBser1+KyawkxjRjfWUw3w0GNzNeBpqY04giKF1bmz9Miix1ItZ+em8pLBkmHdpmTNeIpORE0PVGI4EvmWhgsO6X5REsK/G42wyyYjWARlg6glg0vacpREVC1cmzYkKUd2UhtUwaqG6coUZkFoQBRAvjYqGWowFikVGZEQ8CBSKDF9TyEuwKpdEuPdxIgYRI5oQJA9pViezOjsKgmiwtLG01EVTgv4DVUSZuaXnIckR/QE90SbzM3oCOZOfJpkzOTTsgzmTYS0oGpnKAh/G2xA2pr58tIncQqpIeZQ+phGyRWZEaHphq6gtBACcC1R1AU/Di0AveQW30ol77Sh+cjSdjqb7u0v4vwva3SjqlMGSm6R2lglqDL0ucUBG4ynTXnJAU44AABdiSURBVF1a3tqq2q0nj48OnhzsP3qSTGbwM8hpQE2C4RjoTbwVmboZnCBv/kGzCItDUTh0ThsVjufi+sv1EHn43AJYe5alH374gGV5+dr55bi7NIjrqPZxVMlM6YGxMOHGE9kJKOeICpb0fOKGDEKQ+HxqMgVrU+ZkgVlVPyyr3z1If/Gvh++/MS6mdBngpoxBkiDw2Ip5gQSNCErZwB32PXwPuqkfPT5szR5HZY4XMSQyTrP0uP0qyqhVl4f2ZJxl/VfSIo7w84ZAC1pPCqHrYgWhWwrOjYwMVoodxP5kr6LuqglSQ4OsqQipZPOy4GXWDaxrZ3pXz7a7rYBJANG5tfC//2z1pevt+3uz+/dGdz8KP/w4y96djdNymPs076KfcTI3m8GRJVZ0kLbeeNyNRpXtZX1ndtEdf+eC//0fXrj40sbKueUjx32nrn55f/bb/+vRx78Zp9PajsK6qId5dvP++H6aPyj83QfeZG+2Esx+sj196Yqzcbk9anf/86Dz4ANveicb76fDLE3QF5W+G/kMHT98RcrzJFvWMKBz4A2VarbM81bk5OrouSKgCCgCioAioAgoAoqAIqAIKAKKgCKgCHytCChV87XC+y1uHLta2HIGZ4hJzXe7q7iPJ7Q6m5E9p2qWz7mrF+zuqu2K2yJNisCfNwJiXkZlAgFDWl1dvXjx4s7ODtIZwtWQ8+GHHyKaQWFDQnDT6FEw6zYpjKKlwQAhzfra+tVrV3/8+o9fvvHy1tY2dRtz9dx4PYdArk4YsY8NqIZ5acqcuP2sObxpqWng+Hze7vGbqS2HuW3dWKCJOENsEmEesOTyMhQOTfBl/LyAHMmx+3pEWBGigmmZbrktL2FZZMhyThIjvGlSbNtyhpVbOuOSTucvcYLGqVTkIIMx3AJSA6cocv4xHlF+GAZJmqYQFvosL2cTK5269Sz0ww6kRxyLEZ/iJFgOQr5Tr6xxNCYKF0PZCAnGD30temw6xjg/R0B6J28+GnkzP0+Ly/gkiw8wuBpX5iJX5NGwmZ9cw9MwCDINUyMaDIlpAo1UiBO5jEnVVugTLCaEG8mT6ejgoeV4/Sjyw7YVxlbtERyJVpAn4fCtTBFXVFYrKNud1A+gr3Yf7R493kumU1ghSBbjMU8Ql2WrREODEz0zE2FVmJ38iCqJF4OGp5HAM7zQ4fDy8WrmE8RGnPhBA4DZ7u5htx9tn99YCrvctT3hM8Q9X17XgZSiEUFA0hyv+VWTBwbPXJP7nKym7HOP7DsEJAfj4sGn0/s3p7BKbuC6qYSrEXUW/FdRu/w+CUuUJ8t+EoXQYcEo8feOnOlEYgIJO0insvosgzBn8GVFPbaHgVdUg8i7dMovr0R5u2OlhdcWtVaVsj514VrT0hrNrCRF5iJr6Xt5L7SWBl4cew7KHUoKbwPLGG4FvRvd7e2rcWupzZyJtNZrexd22k7fnd2u7x2ke9Pg7qNqul+WBZ7u8l7fPrVWL7Wr0PHHuXtvEg9H3mhcHe4h5XGq0MrbRLGxB7G11HaIH8TCPy6s+4f5ww/H+zcnwVLoB5Zb5207DausntmjwzQblhv97EK3vHLVXTnjH9XhJ4/dD+5UD+9mw0+TfJh6VmoHttMh0FDtFFnbycMWvFdseyf/8DMPn2xe5jF/e+7SaKYioAgoAoqAIqAIKAKKgCKgCCgCioAioAh83Qic/B/7192Xtv8tQ4BIF36EgIZQNPXGFatI5Xv7GPqMAzQ7aNkhkZP9Y8vftwwdne6fFwJi1V6kxmL/9FrszVw1dkwKyR3KdDu9q1eura1tfPe7r3700Ydoa9566010Nnu7u+IWDMP2oiG0OESvadKFCzvLyyv9fr/dacvmx568sG8/00EzHtOEFFp0f3JUzXiPCQ8zqCZvUVzuPT8ZnqS5JSMQdQgO0EQ8IZIaw5EQCEW4FZQgWL8zvp6fccpYMegaM7gZueFpZJ5k8SY8zSJfQmLIORZ2Q5lwpPQ8iV0Y51tSUfA0tAJ8AroP3EvBPACgFGeEwjaI/62yQE9TolKY7DtV0g69OPJCgpjAKEhBAJeeRdlSihsw8iRgDTWFv+DQdPwUDalF26YHOVBfZmb6XODGIpg8mmuGYo7kipqFDswLVCRAj1zIVIl6UnAUTU9dWLA1woGRWRVZnsMJwJQEBH5xfRBPRrtQJ2EU1225SUGhI2gfOgIvbxZche23IQnKvYd7+Sw5evgwnU4hWYgeI5jIsMzuEIdxDEfwdBxxd4V8SWQ0AoAQP7QJlSNQUkJe/JApH8gUFNzR1rgW40uSNJkVSVTaU8tJKpcyTkXgFtEq0QJLITvTQC7dS0Mmmez5uXkDDwG3GZ85O3n3C84pBxnkORae3oIgFfduPtofV7LoyaDcCvLTvXSplXsh5Eq4O4qHU0/0I0Xq2YXQJrjLk6Gxh7LSqZbd8evx+CeDzll4krXWP73uH15rWdMeUiEjEpKy07rerevf3c//89fJ/U+yfJT52WQ1PLy+Uv3oRu/s9pK3umTHschRZHmcnleea20s971wrd/MjezEtp6Minffn7z75vjRp9lshOcxNwrKlju92q3+4Wpw6VLH3RjcsuJ/f2B//PvZg1/tT8ZJFbhHefjWsGfdnG1YH3dGR+t/F5Zn4jy1ze9MnkYm5QdOvl4fXA6KVzeiWTd4ktbRcvG9rWprw+9u9x4k3m/eqm/eSg8Ox8mMSdfsKSFVcZtGoKciXS4PzkXWypmV1plVLzbuFgXP+erJkkr6Q5epKa1HRUARUAQUAUVAEVAEFAFFQBFQBBQBRUAR+NMioFTNnxZPbe0EAph/bE/4mLBzIldPFYG/EgSCMFwJw+Xl5e3t7dOnThGEpt/vwcrcvHkTYc1kKu7+Ot3O+sbG5cuXv//977/66qv4PUOII0ZnkrGPzm2lx5CI/fT44otOKDFvYnFyouRxC1Lk+OJEAdODdDK/Ka2RIBN4iYcxo6qRuDC8MI4b1Yh44yrQGRiSQkgYsfZDzGDv59w4/RKqRG7IBMQGzAv2B7s2+QubsAxD+BHpnqNpvcnjmqLoPmzHiGMYB9UaJ2kMCT1NViWTYoZXpyPfKT23C0uDQoSA6dAUBeoFXgR9x1MarcI8Gc0Jtn5iqhODZBHJxYDe9C9DkHHMk2FqOGfY8yQjkNQUakgJcubTE5KDZHAwYhqR9UDJ5CKgKXPESULVEKumwPWZqGqIWp/h2g0yiTki00DrUqTTZHKQjPZpBirFECcgyLC8ysphGoDDE9lhMTkapsPJbDxGIoI/K8gVgc+QITIEGoUSMgOFDAe3Zm4mwyygzJRFMEshgzbkmVk3yZR5yMTAipe0B2mXVjb+yLzSkkWH+5EChu7hzQBjDgKQJHO7OT0+Pi/v+KacfK4AGsyubZ3ueS9fjbtW7to1K2gj5WrUQpSHIg38s32vE5e55xymfu8gHk2gEwvYPFEMAYzlURDXZrBMZe1t+/H3u2tXr3SW+3HU9rrn3RLSpmoJGGYATGpU1/fZyr+f3PokncVFuFKse/XOcvjytvujV7rndnruWs9utSnCGrG/II/CQAIFcck85AcMq8qtqnZdrcVu+2xUrFuQcpFX9i3npc36p9+NLlzqW6dXN+wof1T2uu7pbDq+b9WBeKBz6lbXG5V2liRC2EWWtWLb53v+d6+2Tge10w97vn82zy6s19ev96ZxPApDuMsfbvprq+540Mp27c4n6Uo3XQ1KBuXH0HnC5EFGFXYQW/kpK76x5a9vr4ZrAycUqmbxTD5dA84k2xz1oAgoAoqAIqAIKAKKgCKgCCgCioAioAgoAi8eAaVqXjzm2qMioAj8GSHQmKmbAZ2UBjSGy8VAn17NDZpYNJszIqXY9vr6+uv/7fULFy68/vrrb7755r/8y78QscYP+B79pb//+7+HoTl16tTq2ioezxZ2bqkuDfBz0jjK7aZLYzzn1Fwed/bMPUzGzfUzx0ULYsZ/3n0KS9vNreZIQyQYEgz0hqfB8C/JtCu9kN0QOdALDb1hbkOgQNLMeZo5dcFtOhZWAPIA31MoREwwFNe2OJd+Rb5CGazT+JJqBiOtilqB2CtY2ulNxiFuu4w+hvAjaVLNJvnsME2HRTkTikaYGA+hDk7FsoJoI0Wa5m4qAhAUJsY5mOt6Ykx3XcszDARVZHAkMws5Z4q8meGauS4OZvZzBObnMlCKN8gJtCRGKRoa4WYIRZMRRsXwNFlaEmGH8DriVYyYO8LWVElaJKmkjKLY9B3CxHhSI09mkwOULW7UsR2kNkJ2SaoKu86BxOCBACct05SBi4sz2sUzmQSRAS3GJCMBVRzH1exFV5zUMS+h2ZrpSXMUI5AOIFPQRAwSCk0mxI+sPLRG4MYtt9P1wwhsa2glYWsQZtAppJ00KQ1JU7LEZnc0WTTx1VNTR0ifebPSRGRbm0hozsZr/8fG8PW+4QrZBsiEzMox4aoOfavbkmVNynqWW0kigisBRoo0jckEDetIhtsL6vPtMytLQbjeh4iKwE9gQH0zHzb9s+t7tbURVBeco83+0fXLztbZ1sbF02unOssDv9UOGmbGEDMyd9oVTku6NTPnsqqCrDgTWf9wvZWcI4AN3JaD4ArGpOtVKx1nczVo90MrCrdtp+XXP2i7w003HWVmauz5OixWltLVcBC6/fbAs77Xss9djH/wP05NjlLLdyLfGribSx2nvxoWnnfmipB7623HCewDy17ulZdaWTYp8KbG2rHt5fkS93lMzQ4da8nfXOn5G+ttrxfZHnNvlrAZPUdZgxPrYCalB0VAEVAEFAFFQBFQBBQBRUARUAQUAUVAEXixCChV82Lx1t4UAUXgrwIBsW4a06Z8r96x2+02qpq19bWtrfNLSwMM8FvbW74fXLp86e9+9ndXLl8hpAper+aWZGqKhdykE/bRE6cnMfqC7JNFOKfUl5AzJwoLiyJlpX8qyVjMcMRaD1VjhAOGgBH7PyTAPACLkYxIhlSWr+uLVzMxiAvfYfyemYZo1DRNQ0w2CmIclfXiFZo5qvayIpHaUkBs3ab/45EZDsW416pQpTAYRkceGhR4j9m0SsZFNiHyh8QLgcDAdxU3a6KmF0mWT6eZh1KCAO/YsX1PPIz5UDXwIbzssuF2XKzYYvYXssZ0JF2SzBDkKDiYSZl5zg8GAIOFTNyMn25FlyLqn5xQNGWewtMUnBjapuISbob47dyF/TJlquksmeFcLE2yIiXXdIz4Ay1Qmc8mjhsEKG08lCA4vIJIAHj4GDDE6o7UyBHdjMhxBBMZIwOSdROMTHmBAoGTzbDMmpLNOxgKjFLMvOTUrF9z0sxQaAIbyVRQ2WHktdo+kXQw9zMSJEGiSGK9WGvG0jQkb/NksmixeV/k/hHvPCEd2456/uq1flF0pO+mNZm4dEMOlBuLC0gJNFjJ9mBk0CKypYS7Yn5mT7JunIksycPFHLyY8IIk4evm6fikjmqrb9lnu95r26Hdj6+f9c+c73e318NB55nJNcMxLUg/JxLsR8u2N9ve2fMtZuFBKIkXO4RitkS6QQfFRoRBsSziU/UDq4id2cAF9mbT8dihvsom/cB3/HYUOTaU0vpquN1aIm4TfaHjiQLaQS4jHNH6GrPDv5qbE/0oK1dapQ/HA1y4qhMihmRWX5hUYW7iwMXpnjgYZAiLeYOo2dGL66aeHhUBRUARUAQUAUVAEVAEFAFFQBFQBBQBReAbQkCpmm8IeO1WEVAE/jwQaGz1WK2PhyOWWGPCPM75zAlFTRFj9zY2USlg2/ADBLC5du3aYHkwnU4weHc6nY31jbiFQyIxoJo+xLAspZsrqSlnjbnUHJvTZkDN+cnykrOoy/m8STkTy2uTsygjM5Hzp0kM/EKVQLGQuWinkcBUVY6tX7LpWwLGiLm+tPJcpCskEd7UWJux2gtRIFZgjmIRZhQSrsVYyzEhozbJizzww5Xuykp3dbW7lqSz32cE5hhVojaAaMCyDsVlRi8TpS4mdEASQ7pwG5AERm7g5Lld5mUyLrOpBNIRigPliG+kMVSHqcmSaToepjSD8ygv9ALYobAIQ88PXM9v2BrX8yphPHhJIBdSw9aIbkeSwUKOwCj0lAFEzqBIQEGOApyZNdkipjG+zqBkIGZ4EUYH12eAJLcywqZU+QyVSwlkmNqzNJ9MJtPZJEmnRYFbsdQgB3ngW/hJS7PKneSM1acnxCEEiDFgyzhwZBW4CGXczHIzpi8WeuO9TOA3V2bURkgjIe9FMtS8ANgoaxi2LE0za5nqgiNjDKyVvCoLkom19QMPVgNOgRVtEmfUYMVFbmU4EdPdMwcD33HOHMXj66900lSGUyAQERSD2Vs0cKJNpiRMm/hja7musEzz/UeGPAEUnqu1ZCtLPCTWmHWX/EVDZkhcme0nF2wpq19bwVpr7adn2e3d2IlbAZTJvGdTQWqbgUjN46aaobGQrtOP/Sr0kNdIZ0YJxIYBHFdEQfNd1rTEECGc4tiXAvOHAD6sLrsh9VgFcpkhOLQQ4FTydxr15eGQ50O6lPg9klkjreoHTsUDMS8mPTaDkvlTdDEG6krvHGThBcbmymTJHU2KgCKgCCgCioAioAgoAoqAIqAIKAKKgCLwzSKgVM03i7/2rggoAn9hCGDCFmvo8xJ+uTCrr4ar+Dqbm0ubYsY2KqeNlXde97gRY1Cdt3qcKX08U/yZFo+LzdviTcrPf5rM55ShEBZraba5Oe9ALoSHwcpscjgYWkLM9RInRvgKo+OY54t53xAA827F8Ct1TG3s0NISbIzTCjtL7cFKd3nsjjzXF+pB+sc6TY/m1fQn4zXGbGNmFloIpsgUgLSw0PoYlYoQTFINkzOvZgIULXA7liYFxmts5J7wS8JYmNuMCR9aNCVTxgsauhus9iIUQX1hCJumW9O7qbPgKISaMfNGWyJUDSIfaUjs6uAkPA1+z6BnRE8jbA1OzxDIMHNKFvh9E7ZJ7pIhUWpywtRkORXKvK5yYcFkynAmhq2iolTIoAywzzO1hs4SfohziAaJtCMRaAwmUtOMRZbI4LAA01w2sDZZgtbiJdAucuXMIGSwoRvESzJjpCfACETCAUkv5khJ7h0vmcn7+g4yxjkvwdC5MqkZSTMKmZLkw2qQFiXM5pKr5rUYOyUERSlJOnHaXHGUe/CovMKWv7TV5/JpBTmfoyCnX5zgURo69mSR+ajnLZy8Yzaxb/Qvi0JymzhD5s0cP1dmMQveG9qFCvjHg9kho9kb8yLPGfLTbljMpn1zXDTKxXNqnSiop4qAIqAIKAKKgCKgCCgCioAioAgoAoqAIvA1I4BR7eR/2r/m3rR5RUARUAQUAUVAEVAEFAFFQBFQBBQBRUARUAQUAUVAEVAEFAFFQBFQBBSBEwiYb6WeuNZTRUARUAQUAUVAEVAEFAFFQBFQBBQBRUARUAQUAUVAEVAEFAFFQBFQBBSBF4aAN51OX1hn2pEioAgoAoqAIqAIKAKKgCKgCCgCioAioAgoAoqAIqAIKAKKgCKgCCgCisBJBFRVcxINPVcEFAFFQBFQBBQBRUARUAQUAUVAEVAEFAFFQBFQBBQBRUARUAQUAUXghSKgsWpeKNzamSKgCCgCioAioAgoAoqAIqAIKAKKgCKgCCgCioAioAgoAoqAIqAIKAInEVBVzUk09FwRUAQUAUVAEVAEFAFFQBFQBBQBRUARUAQUAUVAEVAEFAFFQBFQBBSBF4qAUjUvFG7tTBFQBBQBRUARUAQUAUVAEVAEFAFFQBFQBBQBRUARUAQUAUVAEVAEFIGTCChVcxINPVcEFAFFQBFQBBQBRUARUAQUAUVAEVAEFAFFQBFQBBQBRUARUAQUAUXghSKgVM0LhVs7UwQUAUVAEVAEFAFFQBFQBBQBRUARUAQUAUVAEVAEFAFFQBFQBBQBReAkAkrVnERDzxUBRUARUAQUAUVAEVAEFAFFQBFQBBQBRUARUAQUAUVAEVAEFAFFQBF4oQj8LyC4M6TjZqOaAAAAAElFTkSuQmCC;" parent="1" vertex="1">
                    <mxGeometry x="80" y="40" width="720" height="29.08" as="geometry"/>
                </mxCell>
                <mxCell id="26" value="左边部分又包含了logo图与另一图片" style="text;strokeColor=none;align=center;fillColor=none;html=1;verticalAlign=middle;whiteSpace=wrap;rounded=0;shadow=0;sketch=1;" parent="1" vertex="1">
                    <mxGeometry x="180" y="340" width="200" height="30" as="geometry"/>
                </mxCell>
                <mxCell id="28" value="右边部分可看作一个ul，ul中包含了两个item，item中包含着a元素与icon图标" style="text;strokeColor=none;align=center;fillColor=none;html=1;verticalAlign=middle;whiteSpace=wrap;rounded=0;shadow=0;sketch=1;" parent="1" vertex="1">
                    <mxGeometry x="515" y="340" width="220" height="30" as="geometry"/>
                </mxCell>
                <mxCell id="30" value="布局思路" style="text;strokeColor=none;align=center;fillColor=#fad9d5;html=1;verticalAlign=middle;whiteSpace=wrap;rounded=0;shadow=0;dashed=1;dashPattern=1 1;sketch=1;curveFitting=1;jiggle=2;fontColor=#FFFFFF;" parent="1" vertex="1">
                    <mxGeometry width="70" height="50" as="geometry"/>
                </mxCell>
                <mxCell id="31" value="布局技巧" style="text;strokeColor=none;align=center;fillColor=#fad9d5;html=1;verticalAlign=middle;whiteSpace=wrap;rounded=0;shadow=0;dashed=1;dashPattern=1 1;sketch=1;curveFitting=1;jiggle=2;" parent="1" vertex="1">
                    <mxGeometry y="420" width="70" height="50" as="geometry"/>
                </mxCell>
                <mxCell id="32" value="注意事项" style="text;strokeColor=none;align=center;fillColor=#fad9d5;html=1;verticalAlign=middle;whiteSpace=wrap;rounded=0;shadow=0;dashed=1;dashPattern=1 1;sketch=1;curveFitting=1;jiggle=2;" parent="1" vertex="1">
                    <mxGeometry y="690" width="70" height="50" as="geometry"/>
                </mxCell>
                <mxCell id="33" value="1. 当父元素中的文本/行内级元素是垂直居中的、同时以及其子元素中的文本/行内级元素也是垂直居中的。此时可以考虑直接给外层父元素添加line-height，利用line-height的继承性以及height=line-height的特性使得内容垂直居中～不用给子元素再设置一遍line-height 了&lt;br&gt;" style="text;strokeColor=none;align=left;fillColor=none;html=1;verticalAlign=middle;whiteSpace=wrap;rounded=0;" vertex="1" parent="1">
                    <mxGeometry x="80" y="450" width="580" height="30" as="geometry"/>
                </mxCell>
                <mxCell id="34" value="&lt;p&gt;2. 如果给父元素设置了display:flex;align-items默认为&lt;span style=&quot;background-color: rgb(40, 42, 54); font-family: Menlo, Monaco, &amp;quot;Courier New&amp;quot;, monospace;&quot;&gt;&lt;b style=&quot;color: rgb(255, 51, 153);&quot;&gt;stretch，&lt;/b&gt;&lt;font color=&quot;#ffffff&quot;&gt;子元素高度会与父元素高度一致所以就不用给子元素再设置一遍高度了&lt;/font&gt;&lt;/span&gt;&lt;/p&gt;" style="text;strokeColor=none;align=left;fillColor=none;html=1;verticalAlign=middle;whiteSpace=wrap;rounded=0;" vertex="1" parent="1">
                    <mxGeometry x="80" y="500" width="600" height="40" as="geometry"/>
                </mxCell>
                <mxCell id="35" value="&lt;p&gt;3.对于logo图片，可以使用h+a标签包裹文字，并且设置上text-indent为足够大的负像素隐藏文字，然后将为a元素设置背景图片为logo图片即可。这样有利于SEO优化。&lt;/p&gt;" style="text;strokeColor=none;align=left;fillColor=none;html=1;verticalAlign=middle;whiteSpace=wrap;rounded=0;" vertex="1" parent="1">
                    <mxGeometry x="80" y="560" width="600" height="40" as="geometry"/>
                </mxCell>
                <mxCell id="36" value="&lt;p&gt;3.对于logo图片，可以使用h+a标签包裹文字，并且设置上text-indent为足够大的负像素隐藏文字，然后将为a元素设置背景图片为logo图片即可。这样有利于SEO优化。&lt;/p&gt;" style="text;strokeColor=none;align=left;fillColor=none;html=1;verticalAlign=middle;whiteSpace=wrap;rounded=0;" vertex="1" parent="1">
                    <mxGeometry x="80" y="710" width="600" height="40" as="geometry"/>
                </mxCell>
                <mxCell id="37" value="&lt;p&gt;3.对于logo图片，可以使用h+a标签包裹文字，并且设置上text-indent为足够大的负像素隐藏文字，然后将为a元素设置背景图片为logo图片即可。这样有利于SEO优化。&lt;/p&gt;" style="text;strokeColor=none;align=left;fillColor=none;html=1;verticalAlign=middle;whiteSpace=wrap;rounded=0;" vertex="1" parent="1">
                    <mxGeometry x="80" y="620" width="600" height="40" as="geometry"/>
                </mxCell>
            </root>
        </mxGraphModel>
    </diagram>
</mxfile>